<svg width="197" height="182" viewBox="0 0 197 182" fill="none" xmlns="http://www.w3.org/2000/svg">
<g opacity="0.2">
<path d="M46.0367 125.207C46.2233 120.454 46.9284 113.304 46.9284 113.304C46.9284 113.304 75.1982 102.791 90.3053 103.274C107.485 103.823 133.03 116.055 133.03 116.055C133.03 116.055 132.885 124.34 132.742 127.978C132.236 140.857 112.417 150.677 88.4738 149.912C64.5305 149.146 45.5308 138.086 46.0367 125.207Z" fill="#F79219"/>
<path d="M91.1023 150.992C90.2159 150.992 89.3264 150.978 88.433 150.949C76.6486 150.573 65.6493 147.741 57.4627 142.975C49.0926 138.102 44.6263 131.779 44.8862 125.171C45.0714 120.445 45.774 113.284 45.7814 113.212L45.8432 112.584L46.49 112.343C47.6542 111.911 75.1707 101.758 90.3455 102.235C107.592 102.786 132.517 114.634 133.569 115.138L134.192 115.436L134.181 116.071C134.179 116.155 134.034 124.408 133.893 128.015C133.633 134.623 128.682 140.646 119.951 144.972C112.058 148.882 101.898 150.991 91.1023 150.992ZM48.0151 114.028C47.84 115.879 47.3386 121.391 47.1877 125.244C46.9578 131.093 51.0506 136.77 58.7107 141.229C66.5539 145.796 77.1388 148.51 88.5137 148.873C99.8945 149.242 110.66 147.205 118.842 143.151C126.833 139.191 131.361 133.79 131.591 127.942C131.709 124.943 131.829 118.699 131.866 116.682C127.863 114.83 105.509 104.799 90.2638 104.311C76.8097 103.891 52.3081 112.482 48.0151 114.028Z" fill="#D87716"/>
<path d="M133.162 118.025C133.536 105.142 114.427 94.1346 90.4809 93.4399C66.535 92.7452 46.82 102.626 46.4463 115.509C46.0725 128.392 65.1815 139.399 89.1274 140.093C113.073 140.788 132.788 130.907 133.162 118.025Z" fill="#FCB61A"/>
<path d="M98.0694 111.149L102.188 109.027L102.772 107.814C102.772 107.814 96.6361 106.171 92.8473 105.806L92.3648 102.285L88.1832 102.068L86.9639 105.451C86.9639 105.451 80.418 106.16 78.295 108.848C76.1721 111.534 77.162 113.987 81.2782 115.871C85.3944 117.756 94.1603 119.789 94.537 122.055C94.9136 124.321 93.1335 126.184 86.4946 125.304C79.8558 124.424 74.7271 124.338 74.7271 124.338L75.1533 125.609C75.1533 125.609 79.5532 128.171 86.3601 128.722L86.9943 132.332L91.4923 132.392L92.253 128.827C92.253 128.827 98.0075 128.51 101.057 125.936C104.107 123.362 102.371 120.135 97.9649 117.74C93.5583 115.345 88.1302 115.255 85.422 113.082C82.7138 110.908 86.6739 108.865 90.5455 109.072C94.4171 109.279 98.0694 111.149 98.0694 111.149Z" fill="#D87716"/>
<path d="M98.1159 109.965L102.234 107.842C102.234 107.842 99.3873 105.247 92.8939 104.622L92.4113 101.101L88.2298 100.884L87.0104 104.267C87.0104 104.267 80.4645 104.976 78.3416 107.663C76.2187 110.35 77.2085 112.803 81.3247 114.687C85.4409 116.572 94.2069 118.605 94.5835 120.871C94.9601 123.137 93.18 125 86.5412 124.12C79.9023 123.24 78.7213 121.7 78.7213 121.7L75.2002 124.425C75.2002 124.425 79.6001 126.987 86.407 127.538L87.0411 131.148L91.5392 131.208L92.2999 127.642C92.2999 127.642 98.0544 127.326 101.104 124.752C104.154 122.178 102.418 118.95 98.0118 116.556C93.6052 114.161 88.177 114.071 85.4688 111.897C82.7607 109.724 86.7207 107.68 90.5924 107.887C94.4647 108.095 98.1159 109.965 98.1159 109.965Z" fill="#FDC25C"/>
<path d="M91.8826 131.589L86.6846 131.519L86.0452 127.885C79.4012 127.28 75.1543 124.847 74.9736 124.741L74.5044 124.468L78.8009 121.142L79.0643 121.486C79.0706 121.493 80.3382 122.918 86.6015 123.748C90.9857 124.329 92.8043 123.64 93.5583 122.958C94.1065 122.462 94.313 121.779 94.1715 120.927C93.9499 119.598 89.5909 118.092 86.0882 116.883C84.2232 116.239 82.4625 115.63 81.1359 115.023C78.7597 113.935 77.3534 112.642 76.9547 111.179C76.6315 109.99 76.9833 108.734 78.0022 107.445C79.9818 104.939 85.4111 104.094 86.6951 103.927L87.9334 100.491L92.7826 100.743L93.2682 104.282C99.6014 104.967 102.413 107.47 102.531 107.578L102.913 107.926L98.1172 110.398L97.9107 110.292C97.875 110.274 94.2941 108.463 90.5685 108.264C88.1154 108.134 85.5914 108.958 85.0806 110.069C84.8542 110.559 85.0785 111.081 85.7465 111.617C87.0878 112.693 89.2342 113.259 91.5063 113.858C93.646 114.422 96.0704 115.062 98.2272 116.233C101.111 117.801 102.818 119.679 103.033 121.521C103.18 122.782 102.612 123.995 101.389 125.027C98.6521 127.336 93.9359 127.885 92.6495 127.995L91.8826 131.589ZM87.3981 130.776L91.1964 130.827L91.9517 127.285L92.2742 127.267C92.3305 127.263 97.9173 126.926 100.82 124.476C101.859 123.6 102.323 122.631 102.203 121.599C102.016 119.997 100.452 118.32 97.7971 116.878C95.7329 115.756 93.465 115.158 91.2725 114.58C88.9071 113.956 86.6735 113.367 85.1924 112.178C83.93 111.165 84.0981 110.241 84.3094 109.779C84.9652 108.353 87.7408 107.364 90.6181 107.511C94.0551 107.695 97.266 109.128 98.1112 109.533L101.51 107.781C100.51 107.082 97.7244 105.465 92.8497 104.995L92.5206 104.964L92.0398 101.458L88.5266 101.275L87.324 104.611L87.0599 104.64C86.9966 104.646 80.6712 105.361 78.681 107.881C77.8104 108.983 77.5019 110.032 77.7646 110.998C78.1021 112.238 79.3631 113.366 81.5129 114.351C82.8011 114.94 84.5429 115.541 86.3863 116.178C90.6628 117.655 94.7032 119.051 94.9957 120.813C95.1767 121.898 94.8831 122.823 94.1491 123.488C92.8567 124.656 90.2778 124.993 86.4802 124.491C81.3462 123.81 79.3834 122.739 78.6982 122.212L75.9163 124.365C77.2321 125.02 81.1037 126.729 86.4439 127.162L86.7678 127.187L87.3981 130.776Z" fill="#D87716"/>
<path d="M123.286 119.922C122.119 122.885 119.748 125.439 116.968 127.386C114.16 129.333 110.966 130.8 107.638 131.867C100.963 133.997 93.7852 134.696 86.7515 134.211C79.722 133.734 72.7031 132.079 66.5422 128.87C63.4808 127.263 60.6423 125.212 58.51 122.625C56.4255 120.043 55.0779 116.845 55.4332 113.698C55.6128 116.844 57.133 119.735 59.3894 121.986C61.606 124.279 64.4287 126.043 67.4146 127.452C73.441 130.218 80.1602 131.717 86.9238 132.141C90.3063 132.422 93.7198 132.363 97.0964 132.068C100.478 131.793 103.823 131.202 107.075 130.334C110.314 129.439 113.467 128.235 116.314 126.563C119.209 124.95 121.642 122.684 123.286 119.922Z" fill="#D87716"/>
<path d="M56.6938 110.935C58.039 108.07 60.4823 105.643 63.2866 103.781C66.1188 101.924 69.3021 100.524 72.6126 99.5111C79.2486 97.4804 86.3518 96.8763 93.3114 97.3756C96.7872 97.6824 100.261 98.1621 103.623 99.067C106.971 99.9873 110.257 101.158 113.275 102.791C116.293 104.399 119.088 106.445 121.184 109.016C123.232 111.581 124.551 114.748 124.195 117.863C124.017 114.749 122.523 111.885 120.301 109.649C118.118 107.372 115.337 105.614 112.393 104.203C106.455 101.417 99.8091 99.9276 93.1227 99.4444C86.4297 98.9241 79.6183 99.4147 73.1503 101.051C69.9282 101.894 66.7847 103.034 63.9155 104.62C60.9998 106.147 58.5013 108.296 56.6938 110.935Z" fill="#D87716"/>
<path d="M49.3444 133.851L48.2051 133.815L48.529 125.559L49.6683 125.595L49.3444 133.851Z" fill="#D87716"/>
<path d="M53.1639 137.91L52.0249 137.874L52.3802 128.831L53.5193 128.867L53.1639 137.91Z" fill="#D87716"/>
<path d="M58.9856 141.64L57.8462 141.604L58.2016 132.56L59.3409 132.596L58.9856 141.64Z" fill="#D87716"/>
<path d="M66.1477 145.018L65.0083 144.982L65.3636 135.938L66.503 135.974L66.1477 145.018Z" fill="#D87716"/>
<path d="M74.6653 147.652L73.5259 147.616L73.8812 138.572L75.0206 138.608L74.6653 147.652Z" fill="#D87716"/>
<path d="M82.9138 148.702L81.7744 148.666L82.0829 140.803L83.222 140.839L82.9138 148.702Z" fill="#D87716"/>
<path d="M90.8143 150.136L89.6753 150.1L90.0149 141.45L91.1539 141.486L90.8143 150.136Z" fill="#D87716"/>
<path d="M97.4535 149.954L96.3145 149.918L96.6845 140.482L97.8239 140.518L97.4535 149.954Z" fill="#D87716"/>
<path d="M105.825 147.86L104.686 147.824L105.056 138.388L106.195 138.424L105.825 147.86Z" fill="#D87716"/>
<path d="M112.51 146.499L111.371 146.463L111.711 137.813L112.85 137.849L112.51 146.499Z" fill="#D87716"/>
<path d="M118.217 144.713L117.078 144.677L117.449 135.241L118.588 135.277L118.217 144.713Z" fill="#D87716"/>
<path d="M123.639 141.737L122.5 141.701L122.855 132.658L123.994 132.694L123.639 141.737Z" fill="#D87716"/>
<path d="M128.822 136.391L127.683 136.355L127.992 128.492L129.132 128.528L128.822 136.391Z" fill="#D87716"/>
<path d="M91.4881 141.163C90.6017 141.163 89.7121 141.149 88.8187 141.12C77.0343 140.744 66.0351 137.911 57.8484 133.146C49.4783 128.273 45.012 121.95 45.272 115.341C45.5312 108.733 50.4828 102.71 59.2131 98.3842C67.7541 94.1534 78.9599 92.0304 90.7309 92.406C115.271 93.1908 134.805 104.755 134.278 118.185C134.019 124.794 129.067 130.816 120.337 135.143C112.444 139.053 102.284 141.162 91.4881 141.163ZM88.0574 94.4402C77.6458 94.4402 67.8799 96.4604 60.3221 100.205C52.3308 104.165 47.8033 109.566 47.5734 115.414C47.3435 121.263 51.4363 126.94 59.0964 131.399C66.9396 135.966 77.5246 138.68 88.8994 139.043C100.277 139.41 111.045 137.375 119.228 133.321C127.219 129.361 131.747 123.96 131.977 118.112C132.459 105.826 113.92 95.226 90.6495 94.4815C89.782 94.4542 88.9169 94.4402 88.0574 94.4402Z" fill="#FDC25C"/>
<path d="M90.8883 135.05C90.1738 135.05 89.4568 135.038 88.7367 135.015C79.2384 134.715 70.3736 132.457 63.7753 128.656C57.0292 124.771 53.4294 119.729 53.639 114.459C53.848 109.189 57.8388 104.386 64.8756 100.937C71.7597 97.563 80.7911 95.8702 90.2782 96.1696C110.057 96.7954 125.801 106.017 125.377 116.727C125.168 121.997 121.177 126.799 114.14 130.248C107.778 133.367 99.59 135.049 90.8883 135.05ZM88.1232 97.7919C79.7314 97.7919 71.8603 99.4026 65.769 102.389C59.3279 105.547 55.6791 109.854 55.4936 114.517C55.3081 119.181 58.6071 123.708 64.7812 127.264C71.1028 130.905 79.634 133.07 88.8021 133.359C97.9719 133.652 106.651 132.029 113.246 128.796C119.687 125.639 123.336 121.332 123.522 116.668C123.91 106.872 108.968 98.4187 90.2129 97.8251C89.5134 97.8031 88.816 97.7919 88.1232 97.7919Z" fill="#FDC25C"/>
<path d="M47.4967 112.064C47.6833 107.311 48.3883 100.161 48.3883 100.161C48.3883 100.161 76.6582 89.6476 91.7653 90.1301C108.945 90.679 134.49 102.912 134.49 102.912C134.49 102.912 134.345 111.197 134.202 114.834C133.696 127.713 113.877 137.533 89.9337 136.768C65.9904 136.003 46.9911 124.943 47.4967 112.064Z" fill="#F79219"/>
<path d="M92.5623 137.849C91.6759 137.849 90.7863 137.835 89.8929 137.806C78.1086 137.43 67.1093 134.598 58.9226 129.832C50.5525 124.959 46.0862 118.636 46.3462 112.027C46.5314 107.302 47.234 100.141 47.2413 100.069L47.3032 99.4406L47.9499 99.2002C49.1141 98.768 76.6306 88.6153 91.8055 89.0922C109.052 89.6432 133.977 101.491 135.029 101.995L135.652 102.293L135.641 102.928C135.639 103.012 135.494 111.265 135.353 114.872C135.093 121.48 130.142 127.503 121.411 131.829C113.518 135.739 103.359 137.848 92.5623 137.849ZM49.475 100.885C49.3 102.736 48.7986 108.248 48.6476 112.101C48.4177 117.95 52.5106 123.627 60.1707 128.086C68.0139 132.652 78.5987 135.367 89.9736 135.73C101.354 136.099 112.12 134.062 120.302 130.008C128.293 126.048 132.821 120.647 133.051 114.799C133.169 111.8 133.289 105.556 133.326 103.539C129.323 101.687 106.969 91.6557 91.7237 91.1683C78.27 90.7476 53.768 99.3386 49.475 100.885Z" fill="#D87716"/>
<path d="M134.622 104.881C134.996 91.9985 115.887 80.9916 91.9408 80.2969C67.9949 79.6022 48.28 89.4827 47.9062 102.366C47.5325 115.249 66.6414 126.256 90.5873 126.95C114.533 127.645 134.248 117.764 134.622 104.881Z" fill="#FCB61A"/>
<path d="M99.529 98.0061L103.647 95.8839L104.232 94.6712C104.232 94.6712 98.0958 93.0283 94.3069 92.6635L93.8244 89.142L89.6429 88.925L88.4235 92.3086C88.4235 92.3086 81.8776 93.0175 79.7547 95.7043C77.6318 98.3912 78.6216 100.844 82.7378 102.728C86.854 104.613 95.62 106.646 95.9966 108.912C96.3733 111.178 94.5931 113.041 87.9542 112.161C81.3154 111.281 76.187 111.194 76.187 111.194L76.6133 112.466C76.6133 112.466 81.0132 115.028 87.8201 115.579L88.4542 119.188L92.9523 119.249L93.713 115.684C93.713 115.684 99.4675 115.367 102.517 112.793C105.567 110.219 103.831 106.992 99.4249 104.597C95.0183 102.202 89.5901 102.112 86.882 99.9386C84.1738 97.7651 88.1339 95.7215 92.0055 95.9287C95.8771 96.1359 99.529 98.0061 99.529 98.0061Z" fill="#D87716"/>
<path d="M99.5754 96.8212L103.694 94.699C103.694 94.699 100.847 92.1037 94.3533 91.479L93.8708 87.9574L89.6893 87.7405L88.4699 91.124C88.4699 91.124 81.924 91.8333 79.8011 94.5201C77.6781 97.207 78.668 99.6593 82.7842 101.544C86.9004 103.429 95.6663 105.462 96.043 107.728C96.4196 109.993 94.6391 111.857 88.0006 110.977C81.3618 110.096 80.1809 108.556 80.1809 108.556L76.6597 111.282C76.6597 111.282 81.0596 113.843 87.8665 114.395L88.5006 118.004L92.9987 118.064L93.7594 114.499C93.7594 114.499 99.5139 114.182 102.564 111.608C105.614 109.034 103.878 105.807 99.4712 103.412C95.0647 101.017 89.6365 100.928 86.9284 98.7541C84.2202 96.5805 88.1802 94.5369 92.0519 94.7441C95.9242 94.9516 99.5754 96.8212 99.5754 96.8212Z" fill="#FDC25C"/>
<path d="M93.3425 118.446L88.1446 118.376L87.5052 114.742C80.8611 114.137 76.6142 111.703 76.4336 111.598L75.9644 111.325L80.2609 107.999L80.5243 108.343C80.5306 108.35 81.7982 109.775 88.0614 110.604C92.4456 111.186 94.2642 110.497 95.0182 109.814C95.5664 109.319 95.7729 108.635 95.6314 107.783C95.4099 106.454 91.0508 104.949 87.5481 103.74C85.6834 103.095 83.9225 102.487 82.5958 101.879C80.2196 100.792 78.8133 99.4983 78.4146 98.0358C78.0914 96.8468 78.4433 95.591 79.4621 94.3021C81.4418 91.7959 86.871 90.9511 88.1551 90.7834L89.3933 87.3481L94.2425 87.6L94.7282 91.1394C101.061 91.8242 103.873 94.3273 103.991 94.4352L104.373 94.7832L99.5771 97.2548L99.3706 97.1493C99.335 97.1308 95.754 95.3199 92.0288 95.1208C89.5757 94.9911 87.0517 95.815 86.5409 96.9257C86.3145 97.4166 86.5388 97.9379 87.2068 98.4739C88.5481 99.5503 90.6945 100.116 92.9666 100.716C95.1063 101.28 97.5307 101.919 99.6875 103.091C102.571 104.658 104.278 106.536 104.493 108.378C104.641 109.64 104.072 110.852 102.85 111.884C100.112 114.194 95.3962 114.743 94.1098 114.852L93.3425 118.446ZM88.858 117.633L92.6563 117.684L93.4117 114.142L93.7342 114.124C93.7904 114.12 99.3773 113.783 102.28 111.333C103.318 110.457 103.783 109.489 103.663 108.456C103.476 106.854 101.912 105.177 99.2571 103.735C97.1928 102.613 94.9249 102.015 92.7325 101.437C90.3671 100.813 88.1334 100.224 86.6523 99.0354C85.3899 98.0225 85.558 97.0976 85.7694 96.6364C86.4252 95.2099 89.2008 94.2214 92.0784 94.3685C95.5154 94.5523 98.726 95.9851 99.5711 96.3897L102.97 94.6382C101.97 93.9395 99.1844 92.3221 94.3096 91.8525L93.9805 91.821L93.4997 88.3146L89.9866 88.1321L88.7839 91.4685L88.5198 91.4975C88.4566 91.5038 82.1312 92.219 80.141 94.7382C79.2703 95.8405 78.9618 96.8894 79.2245 97.8558C79.562 99.0955 80.823 100.223 82.9728 101.208C84.2611 101.798 86.0028 102.399 87.8462 103.035C92.1228 104.512 96.1628 105.908 96.4556 107.671C96.6366 108.756 96.3431 109.681 95.609 110.346C94.3166 111.513 91.7378 111.851 87.9402 111.349C82.8062 110.668 80.8429 109.597 80.1581 109.07L77.3763 111.222C78.6921 111.878 82.5637 113.587 87.9038 114.019L88.2277 114.045L88.858 117.633Z" fill="#D87716"/>
<path d="M124.746 106.779C123.579 109.742 121.208 112.296 118.429 114.243C115.621 116.19 112.427 117.657 109.098 118.724C102.424 120.854 95.2456 121.553 88.2119 121.068C81.1825 120.591 74.1635 118.936 68.0027 115.727C64.9413 114.12 62.1028 112.069 59.9704 109.481C57.886 106.9 56.5383 103.702 56.8937 100.554C57.0733 103.701 58.5935 106.592 60.8499 108.843C63.0664 111.136 65.8892 112.9 68.8751 114.309C74.9014 117.075 81.6206 118.574 88.3842 118.998C91.7667 119.279 95.1803 119.22 98.5568 118.925C101.938 118.65 105.283 118.059 108.535 117.191C111.775 116.296 114.928 115.092 117.775 113.42C120.669 111.807 123.102 109.541 124.746 106.779Z" fill="#D87716"/>
<path d="M58.1543 97.7915C59.4995 94.9264 61.9427 92.4999 64.747 90.6384C67.5792 88.781 70.7625 87.3813 74.073 86.368C80.7091 84.3374 87.8123 83.7332 94.7718 84.2325C98.2476 84.5393 101.722 85.019 105.083 85.924C108.432 86.8443 111.717 88.0154 114.735 89.6481C117.754 91.2564 120.548 93.3021 122.644 95.8726C124.692 98.4375 126.012 101.605 125.655 104.72C125.477 101.606 123.984 98.7422 121.761 96.5067C119.579 94.229 116.798 92.4713 113.853 91.0604C107.915 88.2744 101.27 86.7845 94.5831 86.3016C87.8905 85.7814 81.0787 86.2719 74.6107 87.9085C71.3886 88.7509 68.2451 89.891 65.3762 91.4769C62.4602 93.0041 59.9617 95.1521 58.1543 97.7915Z" fill="#D87716"/>
<path d="M50.8046 120.708L49.6655 120.672L49.9894 112.416L51.1288 112.452L50.8046 120.708Z" fill="#D87716"/>
<path d="M54.6242 124.767L53.4849 124.731L53.8402 115.688L54.9796 115.724L54.6242 124.767Z" fill="#D87716"/>
<path d="M60.446 128.496L59.3066 128.461L59.662 119.417L60.801 119.453L60.446 128.496Z" fill="#D87716"/>
<path d="M67.6073 131.875L66.4683 131.839L66.8236 122.795L67.9627 122.831L67.6073 131.875Z" fill="#D87716"/>
<path d="M76.1252 134.509L74.9858 134.473L75.3412 125.429L76.4805 125.465L76.1252 134.509Z" fill="#D87716"/>
<path d="M84.3737 135.559L83.2344 135.523L83.5425 127.66L84.6819 127.696L84.3737 135.559Z" fill="#D87716"/>
<path d="M92.2747 136.993L91.1353 136.957L91.4749 128.307L92.6143 128.343L92.2747 136.993Z" fill="#D87716"/>
<path d="M98.9138 136.811L97.7744 136.775L98.1447 127.339L99.2841 127.375L98.9138 136.811Z" fill="#D87716"/>
<path d="M107.286 134.717L106.146 134.681L106.517 125.245L107.656 125.281L107.286 134.717Z" fill="#D87716"/>
<path d="M113.97 133.356L112.831 133.32L113.17 124.67L114.31 124.706L113.97 133.356Z" fill="#D87716"/>
<path d="M119.677 131.57L118.538 131.534L118.908 122.098L120.048 122.134L119.677 131.57Z" fill="#D87716"/>
<path d="M125.099 128.594L123.96 128.558L124.315 119.515L125.454 119.551L125.099 128.594Z" fill="#D87716"/>
<path d="M130.282 123.248L129.143 123.212L129.452 115.349L130.591 115.385L130.282 123.248Z" fill="#D87716"/>
<path d="M92.948 128.02C92.0616 128.02 91.1721 128.006 90.2787 127.977C78.4943 127.601 67.495 124.769 59.3084 120.003C50.9383 115.13 46.472 108.807 46.7319 102.198C46.9912 95.5897 51.9428 89.5672 60.6731 85.2413C69.214 81.0105 80.4198 78.8876 92.1909 79.2632C116.731 80.048 136.265 91.6122 135.738 105.043C135.479 111.651 130.527 117.673 121.797 122C113.904 125.91 103.744 128.019 92.948 128.02ZM89.5173 81.2974C79.1057 81.2974 69.3398 83.3176 61.7821 87.062C53.7907 91.022 49.2633 96.423 49.0334 102.271C48.8035 108.12 52.8963 113.797 60.5564 118.257C68.3996 122.823 78.9845 125.537 90.3594 125.901C101.737 126.268 112.505 124.232 120.688 120.178C128.679 116.218 133.207 110.817 133.437 104.969C133.919 92.6834 115.379 82.0832 92.1095 81.3386C91.2419 81.3113 90.3768 81.2974 89.5173 81.2974Z" fill="#FDC25C"/>
<path d="M92.3482 121.907C91.6337 121.907 90.9171 121.895 90.1967 121.872C80.6984 121.572 71.8336 119.314 65.2353 115.513C58.4892 111.628 54.8894 106.586 55.099 101.316C55.3079 96.0459 59.2987 91.2435 66.3355 87.794C73.2196 84.4202 82.2511 82.7274 91.7382 83.0268C111.517 83.6526 127.261 92.8741 126.837 103.584C126.628 108.854 122.637 113.656 115.6 117.106C109.238 120.224 101.05 121.906 92.3482 121.907ZM89.5831 84.649C81.1914 84.649 73.3202 86.2597 67.2289 89.246C60.7878 92.4038 57.1391 96.7108 56.9536 101.374C56.768 106.038 60.067 110.565 66.2412 114.121C72.5628 117.762 81.0939 119.927 90.262 120.217C99.4319 120.509 108.111 118.886 114.706 115.654C121.147 112.496 124.796 108.189 124.982 103.525C125.37 93.7287 110.428 85.2759 91.6729 84.6822C90.973 84.6602 90.276 84.649 89.5831 84.649Z" fill="#FDC25C"/>
<path d="M46.0367 96.0513C46.2233 91.2985 46.9284 84.1478 46.9284 84.1478C46.9284 84.1478 75.1982 73.6349 90.3053 74.1174C107.485 74.6663 133.03 86.899 133.03 86.899C133.03 86.899 132.885 95.1838 132.742 98.8217C132.236 111.7 112.417 121.52 88.4738 120.755C64.5305 119.99 45.5308 108.93 46.0367 96.0513Z" fill="#F79219"/>
<path d="M91.1023 121.836C90.2159 121.836 89.3264 121.822 88.433 121.793C76.6486 121.417 65.6493 118.585 57.4627 113.819C49.0926 108.946 44.6263 102.623 44.8862 96.0145C45.0714 91.289 45.774 84.1278 45.7814 84.0558L45.8432 83.4276L46.49 83.1872C47.6542 82.755 75.1707 72.6027 90.3455 73.0793C107.592 73.6302 132.517 85.4779 133.569 85.982L134.192 86.2801L134.181 86.9153C134.179 86.9988 134.034 95.2518 133.893 98.8586C133.633 105.467 128.682 111.49 119.951 115.816C112.058 119.726 101.898 121.835 91.1023 121.836ZM48.0151 84.8724C47.84 86.7228 47.3386 92.2351 47.1877 96.0879C46.9578 101.937 51.0506 107.614 58.7107 112.073C66.5539 116.639 77.1388 119.354 88.5137 119.717C99.8945 120.086 110.66 118.049 118.842 113.995C126.833 110.035 131.361 104.634 131.591 98.7856C131.709 95.7871 131.829 89.5427 131.866 87.5257C127.863 85.6739 105.509 75.6428 90.2638 75.1554C76.8097 74.7347 52.3081 83.3256 48.0151 84.8724Z" fill="#D87716"/>
<path d="M133.161 88.8673C133.535 75.9843 114.426 64.9774 90.4803 64.2827C66.5345 63.588 46.8195 73.4685 46.4458 86.3515C46.072 99.2345 65.181 110.241 89.1269 110.936C113.073 111.631 132.788 101.75 133.161 88.8673Z" fill="#FCB61A"/>
<path d="M98.0694 81.9932L102.188 79.871L102.772 78.6582C102.772 78.6582 96.6361 77.0154 92.8473 76.6506L92.3648 73.1291L88.1832 72.9121L86.9639 76.2956C86.9639 76.2956 80.418 77.0045 78.295 79.6917C76.1721 82.3786 77.162 84.831 81.2782 86.7156C85.3944 88.6002 94.1603 90.6334 94.537 92.8992C94.9136 95.165 93.1335 97.0283 86.4946 96.1482C79.8558 95.2681 74.7271 95.1818 74.7271 95.1818L75.1533 96.4536C75.1533 96.4536 79.5532 99.015 86.3601 99.5663L86.9943 103.176L91.4923 103.236L92.253 99.6711C92.253 99.6711 98.0075 99.3542 101.057 96.7803C104.107 94.2063 102.371 90.9789 97.9649 88.5842C93.5583 86.1894 88.1302 86.0996 85.422 83.926C82.7138 81.7525 86.6739 79.7088 90.5455 79.916C94.4171 80.1232 98.0694 81.9932 98.0694 81.9932Z" fill="#D87716"/>
<path d="M98.1159 80.8085L102.234 78.6863C102.234 78.6863 99.3873 76.091 92.8939 75.4663L92.4113 71.9447L88.2298 71.7278L87.0104 75.1113C87.0104 75.1113 80.4645 75.8202 78.3416 78.5071C76.2187 81.1939 77.2085 83.6463 81.3247 85.5309C85.4409 87.4156 94.2069 89.4487 94.5835 91.7145C94.9601 93.9803 93.18 95.8436 86.5412 94.9635C79.9023 94.0834 78.7213 92.5433 78.7213 92.5433L75.2002 95.2689C75.2002 95.2689 79.6001 97.8303 86.407 98.3817L87.0411 101.991L91.5392 102.051L92.2999 98.4861C92.2999 98.4861 98.0544 98.1692 101.104 95.5952C104.154 93.0216 102.418 89.7939 98.0118 87.3992C93.6052 85.0044 88.177 84.9146 85.4688 82.741C82.7607 80.5675 86.7207 78.5238 90.5924 78.731C94.4647 78.9389 98.1159 80.8085 98.1159 80.8085Z" fill="#FDC25C"/>
<path d="M91.8826 102.433L86.6846 102.363L86.0452 98.7286C79.4012 98.1242 75.1543 95.6903 74.9736 95.5852L74.5044 95.3123L78.8009 91.9864L79.0643 92.3302C79.0706 92.3372 80.3382 93.762 86.6015 94.5918C90.9857 95.1732 92.8043 94.4839 93.5583 93.8018C94.1065 93.3061 94.313 92.6226 94.1715 91.7708C93.9499 90.4417 89.5909 88.9362 86.0882 87.7269C84.2232 87.0827 82.4625 86.4743 81.1359 85.8667C78.7597 84.7794 77.3534 83.4856 76.9547 82.0231C76.6315 80.8341 76.9833 79.5784 78.0022 78.2895C79.9818 75.7833 85.4111 74.9384 86.6951 74.7707L87.9334 71.3354L92.7826 71.5874L93.2682 75.1264C99.6014 75.8112 102.413 78.3142 102.531 78.4222L102.913 78.7702L98.1172 81.2418L97.9107 81.1367C97.875 81.1181 94.2941 79.3072 90.5685 79.1081C88.1154 78.9784 85.5914 79.8023 85.0806 80.913C84.8542 81.4039 85.0785 81.9252 85.7465 82.4612C87.0878 83.5377 89.2342 84.1037 91.5063 84.7029C93.646 85.2668 96.0704 85.9066 98.2272 87.0781C101.111 88.6455 102.818 90.5235 103.033 92.3655C103.18 93.6272 102.612 94.8395 101.389 95.8713C98.6521 98.1811 93.9359 98.7304 92.6495 98.8394L91.8826 102.433ZM87.3981 101.62L91.1964 101.671L91.9517 98.1287L92.2742 98.1106C92.3305 98.1074 97.9173 97.7702 100.82 95.3203C101.859 94.4437 102.323 93.4755 102.203 92.4434C102.016 90.8407 100.452 89.1643 97.7971 87.7217C95.7329 86.6001 93.465 86.0023 91.2725 85.4241C88.9071 84.8004 86.6735 84.2113 85.1924 83.0223C83.93 82.0094 84.0981 81.0846 84.3094 80.6234C84.9652 79.1968 87.7408 78.2084 90.6181 78.3555C94.0551 78.5393 97.266 79.9721 98.1112 80.3767L101.51 78.6252C100.51 77.9264 97.7244 76.3091 92.8497 75.8395L92.5206 75.8081L92.0398 72.3015L88.5266 72.1192L87.324 75.4555L87.0599 75.4845C86.9966 75.4908 80.6712 76.206 78.681 78.7251C77.8104 79.8275 77.5019 80.8764 77.7646 81.8428C78.1021 83.0824 79.3631 84.2103 81.5129 85.1949C82.8011 85.7846 84.5429 86.3856 86.3863 87.0222C90.6628 88.4994 94.7032 89.8953 94.9957 91.658C95.1767 92.7428 94.8831 93.6677 94.1491 94.3326C92.8567 95.5003 90.2778 95.8381 86.4802 95.336C81.3462 94.6551 79.3834 93.5845 78.6982 93.0569L75.9163 95.2092C77.2321 95.865 81.1037 97.5735 86.4439 98.0064L86.7678 98.0323L87.3981 101.62Z" fill="#D87716"/>
<path d="M123.286 90.7664C122.119 93.7293 119.748 96.283 116.968 98.2302C114.16 100.177 110.966 101.643 107.638 102.711C100.963 104.841 93.7852 105.54 86.7515 105.055C79.722 104.578 72.7031 102.923 66.5422 99.7137C63.4808 98.1072 60.6423 96.0556 58.51 93.4683C56.4255 90.8873 55.0779 87.689 55.4332 84.5413C55.6128 87.6879 57.133 90.5792 59.3894 92.8296C61.606 95.123 64.4287 96.8871 67.4146 98.2962C73.441 101.062 80.1602 102.561 86.9238 102.984C90.3063 103.266 93.7198 103.207 97.0964 102.912C100.478 102.636 103.823 102.046 107.075 101.178C110.314 100.283 113.467 99.0788 116.314 97.407C119.209 95.7942 121.642 93.528 123.286 90.7664Z" fill="#D87716"/>
<path d="M56.6938 81.7785C58.039 78.9135 60.4823 76.4869 63.2866 74.6254C66.1188 72.768 69.3021 71.3683 72.6126 70.3551C79.2486 68.3244 86.3518 67.7203 93.3114 68.2196C96.7872 68.5264 100.261 69.0061 103.623 69.911C106.971 70.8313 110.257 72.0025 113.275 73.6352C116.293 75.2435 119.088 77.2891 121.184 79.8596C123.232 82.4245 124.551 85.5925 124.195 88.707C124.017 85.5928 122.523 82.7289 120.301 80.4938C118.118 78.2161 115.337 76.4579 112.393 75.0474C106.455 72.2614 99.8091 70.7716 93.1227 70.2887C86.4297 69.7685 79.6183 70.259 73.1503 71.8956C69.9282 72.738 66.7847 73.878 63.9155 75.4639C60.9998 76.9911 58.5013 79.1396 56.6938 81.7785Z" fill="#D87716"/>
<path d="M49.3444 104.696L48.2051 104.66L48.529 96.4031L49.6683 96.4391L49.3444 104.696Z" fill="#D87716"/>
<path d="M53.1639 108.754L52.0249 108.718L52.3802 99.675L53.5193 99.711L53.1639 108.754Z" fill="#D87716"/>
<path d="M58.9856 112.484L57.8462 112.448L58.2016 103.405L59.3409 103.441L58.9856 112.484Z" fill="#D87716"/>
<path d="M66.1477 115.862L65.0083 115.826L65.3636 106.782L66.503 106.818L66.1477 115.862Z" fill="#D87716"/>
<path d="M74.6653 118.496L73.5259 118.46L73.8812 109.417L75.0206 109.452L74.6653 118.496Z" fill="#D87716"/>
<path d="M82.9138 119.547L81.7744 119.511L82.0829 111.647L83.222 111.683L82.9138 119.547Z" fill="#D87716"/>
<path d="M90.8143 120.98L89.6753 120.944L90.0149 112.294L91.1539 112.33L90.8143 120.98Z" fill="#D87716"/>
<path d="M97.4535 120.798L96.3145 120.762L96.6845 111.326L97.8239 111.362L97.4535 120.798Z" fill="#D87716"/>
<path d="M105.825 118.704L104.686 118.668L105.056 109.232L106.195 109.268L105.825 118.704Z" fill="#D87716"/>
<path d="M112.51 117.342L111.371 117.306L111.711 108.657L112.85 108.693L112.51 117.342Z" fill="#D87716"/>
<path d="M118.217 115.557L117.078 115.521L117.449 106.085L118.588 106.121L118.217 115.557Z" fill="#D87716"/>
<path d="M123.639 112.581L122.5 112.545L122.855 103.502L123.994 103.538L123.639 112.581Z" fill="#D87716"/>
<path d="M128.822 107.235L127.683 107.199L127.992 99.3357L129.132 99.3717L128.822 107.235Z" fill="#D87716"/>
<path d="M91.4881 112.007C90.6017 112.007 89.7121 111.993 88.8187 111.964C77.0343 111.588 66.0351 108.756 57.8484 103.99C49.4783 99.1173 45.012 92.7944 45.272 86.1856C45.5312 79.5768 50.4828 73.5546 59.2131 69.2284C67.7541 64.9976 78.9599 62.8747 90.7309 63.2503C115.271 64.035 134.805 75.5992 134.278 89.0296C134.019 95.6384 129.067 101.661 120.337 105.987C112.444 109.897 102.284 112.006 91.4881 112.007ZM88.0574 65.2845C77.6458 65.2845 67.8799 67.3047 60.3221 71.0491C52.3308 75.0091 47.8033 80.4101 47.5734 86.2586C47.3435 92.1074 51.4363 97.7844 59.0964 102.244C66.9396 106.81 77.5246 109.525 88.8994 109.888C100.277 110.255 111.045 108.219 119.228 104.166C127.219 100.206 131.747 94.8048 131.977 88.9562C132.459 76.6709 113.92 66.0706 90.6495 65.326C89.782 65.2984 88.9169 65.2845 88.0574 65.2845Z" fill="#FDC25C"/>
<path d="M90.8883 105.894C90.1738 105.894 89.4568 105.883 88.7367 105.859C79.2384 105.559 70.3736 103.301 63.7753 99.5005C57.0292 95.6149 53.4294 90.5728 53.639 85.3029C53.848 80.033 57.8388 75.2306 64.8756 71.781C71.7597 68.4072 80.7911 66.7144 90.2782 67.0139C110.057 67.6396 125.801 76.8612 125.377 87.5708C125.168 92.8407 121.177 97.6431 114.14 101.093C107.778 104.211 99.59 105.893 90.8883 105.894ZM88.1232 68.6364C79.7314 68.6364 71.8603 70.2471 65.769 73.2334C59.3279 76.3912 55.6791 80.6982 55.4936 85.3616C55.3081 90.0257 58.6071 94.5524 64.7812 98.1086C71.1028 101.75 79.634 103.914 88.8021 104.204C97.9719 104.496 106.651 102.874 113.246 99.641C119.687 96.4832 123.336 92.1762 123.522 87.5128C123.91 77.7162 108.968 69.2632 90.2129 68.6696C89.5134 68.6476 88.816 68.6364 88.1232 68.6364Z" fill="#FDC25C"/>
<path d="M45.817 82.3988C46.0036 77.646 46.7086 70.4953 46.7086 70.4953C46.7086 70.4953 74.9784 59.9823 90.0855 60.4648C107.265 61.0137 132.81 73.2464 132.81 73.2464C132.81 73.2464 132.665 81.5312 132.522 85.1691C132.016 98.0478 112.197 107.868 88.254 107.103C64.3111 106.338 45.3114 95.2774 45.817 82.3988Z" fill="#F79219"/>
<path d="M90.8821 108.184C89.9957 108.184 89.1061 108.169 88.2127 108.141C76.4284 107.765 65.4291 104.932 57.2424 100.167C48.8724 95.294 44.4061 88.971 44.666 82.3622C44.8512 77.6366 45.5538 70.4755 45.5612 70.4035L45.623 69.7753L46.2694 69.5349C47.4336 69.1027 74.9505 58.9503 90.125 59.4269C107.372 59.9779 132.297 71.8255 133.349 72.3297L133.971 72.6277L133.96 73.2629C133.959 73.3464 133.814 81.5995 133.672 85.2063C133.413 91.8151 128.461 97.8372 119.731 102.163C111.838 106.074 101.678 108.183 90.8821 108.184ZM47.7952 71.22C47.6202 73.0704 47.1188 78.5828 46.9678 82.4356C46.7379 88.2844 50.8308 93.9614 58.4909 98.4207C66.3341 102.987 76.9189 105.701 88.2938 106.065C99.6746 106.433 110.44 104.396 118.622 100.342C126.614 96.3823 131.141 90.9814 131.371 85.1329C131.489 82.1344 131.61 75.89 131.647 73.873C127.643 72.0212 105.289 61.9901 90.0439 61.5027C76.5898 61.0824 52.0882 69.6733 47.7952 71.22Z" fill="#D87716"/>
<path d="M132.942 75.2149C133.315 62.332 114.207 51.3251 90.2607 50.6303C66.3148 49.9356 46.5998 59.8162 46.2261 72.6992C45.8523 85.5821 64.9613 96.5891 88.9072 97.2838C112.853 97.9785 132.568 88.0979 132.942 75.2149Z" fill="#FCB61A"/>
<path d="M97.8493 68.3409L101.968 66.2186L102.552 65.0059C102.552 65.0059 96.4161 63.3631 92.6272 62.9983L92.1447 59.4767L87.9632 59.2598L86.7438 62.6433C86.7438 62.6433 80.1979 63.3522 78.075 66.0394C75.952 68.7262 76.9419 71.1786 81.0581 73.0633C85.1743 74.9479 93.9403 76.981 94.3169 79.2469C94.6936 81.5127 92.913 83.376 86.2746 82.4959C79.6357 81.6157 74.5073 81.5294 74.5073 81.5294L74.9336 82.8012C74.9336 82.8012 79.3335 85.3627 86.1404 85.914L86.7745 89.5236L91.2727 89.5837L92.0333 86.0185C92.0333 86.0185 97.7878 85.7015 100.838 83.1276C103.888 80.5539 102.152 77.3262 97.7452 74.9315C93.3386 72.5367 87.9104 72.447 85.2023 70.2734C82.4941 68.0998 86.4541 66.0562 90.3258 66.2634C94.1981 66.4709 97.8493 68.3409 97.8493 68.3409Z" fill="#D87716"/>
<path d="M97.8952 67.1562L102.013 65.034C102.013 65.034 99.1666 62.4387 92.6732 61.814L92.1906 58.2924L88.0091 58.0754L86.7897 61.459C86.7897 61.459 80.2438 62.1679 78.1209 64.8547C75.998 67.5416 76.9878 69.994 81.104 71.8786C85.2202 73.7632 93.9862 75.7964 94.3628 78.0622C94.7394 80.328 92.9593 82.1913 86.3205 81.3112C79.6816 80.4314 78.5007 78.8909 78.5007 78.8909L74.9795 81.6166C74.9795 81.6166 79.3794 84.1779 86.1863 84.7293L86.8204 88.3392L91.3185 88.3993L92.0792 84.8341C92.0792 84.8341 97.8337 84.5172 100.884 81.9432C103.933 79.3696 102.198 76.1419 97.7911 73.7472C93.3845 71.3524 87.9563 71.2626 85.2481 69.089C82.54 66.9155 86.5 64.8718 90.3717 65.079C94.2444 65.2866 97.8952 67.1562 97.8952 67.1562Z" fill="#FDC25C"/>
<path d="M91.6628 88.7802L86.4649 88.7103L85.8255 85.0763C79.1814 84.4718 74.9345 82.038 74.7539 81.9328L74.2847 81.6599L78.5812 78.334L78.8446 78.6778C78.8509 78.6848 80.1185 80.1097 86.3818 80.9395C90.7659 81.5209 92.5845 80.8315 93.3385 80.1495C93.8867 79.6537 94.0932 78.9703 93.9517 78.1185C93.7302 76.7894 89.3712 75.2838 85.8685 74.0746C84.0034 73.4303 82.2429 72.822 80.9162 72.2144C78.54 71.1271 77.1336 69.8333 76.735 68.3707C76.4118 67.1817 76.7633 65.926 77.7825 64.6367C79.7618 62.1305 85.1914 61.2857 86.475 61.1183L87.7133 57.6831L92.5626 57.935L93.0482 61.474C99.3813 62.1588 102.193 64.6619 102.311 64.7699L102.693 65.1179L97.8971 67.5895L97.6906 67.4839C97.655 67.4654 94.074 65.6545 90.3488 65.4554C87.8957 65.3257 85.3716 66.1496 84.8608 67.2603C84.6344 67.7509 84.8587 68.2725 85.5268 68.8082C86.8681 69.8846 89.0144 70.4506 91.2865 71.0499C93.4262 71.6138 95.8507 72.2536 98.0075 73.4251C100.891 74.9925 102.598 76.8704 102.813 78.7124C102.96 79.9741 102.392 81.1865 101.169 82.2183C98.4323 84.5281 93.7163 85.0774 92.4298 85.1864L91.6628 88.7802ZM87.1784 87.9679L90.9766 88.0185L91.732 84.4767L92.0545 84.4586C92.1108 84.4554 97.6976 84.1182 100.6 81.6683C101.639 80.7917 102.104 79.8235 101.984 78.7914C101.796 77.1887 100.232 75.5123 97.5774 74.0697C95.5132 72.9481 93.2453 72.3503 91.0528 71.7721C88.6874 71.1484 86.4537 70.5593 84.9727 69.3703C83.7103 68.3574 83.8784 67.4326 84.0898 66.9714C84.7456 65.5448 87.5212 64.5564 90.3988 64.7035C93.8358 64.8873 97.0463 66.3201 97.8915 66.7247L101.291 64.9732C100.29 64.2744 97.5047 62.6571 92.63 62.1875L92.3009 62.156L91.8201 58.6495L88.3069 58.4672L87.1043 61.8035L86.8402 61.8325C86.7769 61.8388 80.4515 62.5536 78.4614 65.0728C77.5907 66.1751 77.2821 67.224 77.5449 68.1908C77.8824 69.4304 79.1434 70.5583 81.2932 71.5429C82.5814 72.1326 84.3231 72.7336 86.1665 73.3702C90.4431 74.8474 94.4832 76.2433 94.776 78.0056C94.9569 79.0905 94.6635 80.0153 93.9294 80.6802C92.637 81.8479 90.0577 82.1858 86.2605 81.6833C81.1265 81.0024 79.1633 79.9318 78.4785 79.4046L75.6966 81.5568C77.0124 82.2127 80.8841 83.9212 86.2242 84.3541L86.548 84.3799L87.1784 87.9679Z" fill="#D87716"/>
<path d="M123.066 77.114C121.899 80.0768 119.528 82.6305 116.748 84.5781C113.94 86.5245 110.747 87.9913 107.418 89.0591C100.743 91.1886 93.5654 91.8874 86.5318 91.4028C79.5023 90.9255 72.4833 89.2708 66.3225 86.0616C63.2611 84.4551 60.4226 82.4035 58.2902 79.8162C56.2057 77.2352 54.8582 74.0369 55.2135 70.8892C55.3931 74.0358 56.9133 76.9271 59.1697 79.1775C61.3862 81.4709 64.209 83.235 67.1949 84.6441C73.2213 87.4099 79.9404 88.9088 86.704 89.3323C90.0865 89.6139 93.5001 89.5545 96.8766 89.2596C100.258 88.9839 103.603 88.3934 106.855 87.5256C110.095 86.6308 113.247 85.4267 116.095 83.7549C118.989 82.1417 121.422 79.8756 123.066 77.114Z" fill="#D87716"/>
<path d="M56.4741 68.1262C57.8193 65.2611 60.2626 62.8346 63.0668 60.9731C65.899 59.1157 69.0824 57.716 72.3929 56.7027C79.0289 54.6721 86.1321 54.068 93.0917 54.5672C96.5674 54.874 100.041 55.3537 103.403 56.2587C106.752 57.179 110.037 58.3501 113.055 59.9829C116.073 61.5911 118.869 63.6368 120.964 66.2073C123.012 68.7722 124.331 71.9398 123.975 75.0547C123.796 71.9405 122.303 69.0765 120.081 66.8415C117.898 64.5638 115.117 62.806 112.173 61.3955C106.234 58.6094 99.589 57.1196 92.9027 56.6364C86.21 56.1161 79.3982 56.6067 72.9302 58.2429C69.7081 59.0853 66.5646 60.2253 63.6958 61.8112C60.7801 63.3388 58.2815 65.4872 56.4741 68.1262Z" fill="#D87716"/>
<path d="M49.1248 91.0433L47.9854 91.0073L48.3092 82.7507L49.4487 82.7867L49.1248 91.0433Z" fill="#D87716"/>
<path d="M52.9441 95.1019L51.8047 95.066L52.1604 86.0229L53.2994 86.0589L52.9441 95.1019Z" fill="#D87716"/>
<path d="M58.7659 98.8312L57.6265 98.7952L57.9818 89.7522L59.1212 89.7878L58.7659 98.8312Z" fill="#D87716"/>
<path d="M65.9279 102.209L64.7886 102.173L65.1439 93.1304L66.2833 93.1664L65.9279 102.209Z" fill="#D87716"/>
<path d="M74.4455 104.843L73.3062 104.807L73.6615 95.7644L74.8008 95.8004L74.4455 104.843Z" fill="#D87716"/>
<path d="M82.6936 105.894L81.5542 105.858L81.8627 97.9949L83.0018 98.0309L82.6936 105.894Z" fill="#D87716"/>
<path d="M90.5944 107.328L89.4551 107.292L89.795 98.6418L90.9341 98.6775L90.5944 107.328Z" fill="#D87716"/>
<path d="M97.2341 107.146L96.0947 107.11L96.4651 97.6738L97.6044 97.7098L97.2341 107.146Z" fill="#D87716"/>
<path d="M105.606 105.052L104.466 105.016L104.837 95.5798L105.976 95.6158L105.606 105.052Z" fill="#D87716"/>
<path d="M112.29 103.69L111.151 103.654L111.491 95.0049L112.63 95.0409L112.29 103.69Z" fill="#D87716"/>
<path d="M117.997 101.905L116.858 101.869L117.229 92.4324L118.368 92.4684L117.997 101.905Z" fill="#D87716"/>
<path d="M123.419 98.9289L122.28 98.8929L122.635 89.8499L123.774 89.8859L123.419 98.9289Z" fill="#D87716"/>
<path d="M128.603 93.583L127.463 93.547L127.773 85.6836L128.912 85.7196L128.603 93.583Z" fill="#D87716"/>
<path d="M91.2683 98.3548C90.3819 98.3548 89.4924 98.3408 88.599 98.3118C76.8146 97.9355 65.8153 95.1033 57.6287 90.3376C49.2586 85.465 44.7926 79.142 45.0522 72.5332C45.3115 65.9244 50.2631 59.9023 58.9934 55.5761C67.5347 51.3452 78.7401 49.2223 90.5112 49.5979C115.051 50.383 134.585 61.9469 134.058 75.3773C133.799 81.986 128.847 88.0082 120.117 92.3344C112.224 96.2448 102.065 98.3541 91.2683 98.3548ZM87.8376 51.6321C77.426 51.6321 67.6601 53.6523 60.1024 57.3968C52.111 61.3564 47.5835 66.7577 47.3536 72.6062C47.1237 78.4551 51.2165 84.132 58.8767 88.5917C66.7199 93.1579 77.3048 95.8724 88.6796 96.2357C100.057 96.6026 110.825 94.567 119.008 90.5134C126.999 86.5537 131.527 81.1524 131.757 75.3039C132.239 63.0185 113.7 52.4182 90.4298 51.6737C89.5622 51.6464 88.6971 51.6321 87.8376 51.6321Z" fill="#FDC25C"/>
<path d="M90.6686 92.2414C89.9541 92.2414 89.2371 92.2302 88.517 92.2072C79.0187 91.907 70.1539 89.6489 63.5556 85.8482C56.8092 81.9626 53.2097 76.9205 53.4193 71.6505C53.6282 66.3806 57.619 61.5782 64.6558 58.1286C71.5399 54.7549 80.5715 53.0621 90.0586 53.3615C109.837 53.9873 125.581 63.2089 125.157 73.9185C124.948 79.1884 120.957 83.9908 113.92 87.4404C107.559 90.5591 99.3702 92.241 90.6686 92.2414ZM87.9035 54.9838C79.5117 54.9838 71.6406 56.5948 65.5492 59.5807C59.1082 62.7386 55.4595 67.0455 55.2739 71.7089C55.0884 76.3729 58.3873 80.8997 64.5615 84.4558C70.8831 88.0969 79.4142 90.2617 88.5823 90.5514C97.7522 90.8438 106.431 89.2205 113.027 85.9883C119.468 82.8305 123.116 78.5235 123.302 73.8601C123.691 64.0635 108.748 55.6106 89.9932 55.017C89.2934 54.9953 88.5963 54.9838 87.9035 54.9838Z" fill="#FDC25C"/>
<path d="M46.0367 62.7234C46.2233 57.9706 46.9284 50.8199 46.9284 50.8199C46.9284 50.8199 75.1982 40.307 90.3053 40.7898C107.485 41.3387 133.03 53.5714 133.03 53.5714C133.03 53.5714 132.885 61.8562 132.742 65.4941C132.236 78.3728 112.417 88.1928 88.4738 87.4276C64.5305 86.6625 45.5308 75.602 46.0367 62.7234Z" fill="#F79219"/>
<path d="M91.1023 88.5083C90.2159 88.5083 89.3264 88.4943 88.433 88.4653C76.6486 88.089 65.6493 85.2568 57.4627 80.4911C49.0926 75.6184 44.6263 69.2954 44.8862 62.6866C45.0714 57.9611 45.774 50.7999 45.7814 50.7279L45.8432 50.0997L46.49 49.8593C47.6542 49.4271 75.1707 39.2748 90.3455 39.7514C107.592 40.3024 132.517 52.15 133.569 52.6541L134.192 52.9522L134.181 53.5874C134.179 53.6709 134.034 61.9239 133.893 65.5307C133.633 72.1395 128.682 78.162 119.951 82.4879C112.058 86.3983 101.898 88.5076 91.1023 88.5083ZM48.0151 51.5441C47.84 53.3945 47.3386 58.9069 47.1877 62.7597C46.9578 68.6085 51.0506 74.2855 58.7107 78.7451C66.5539 83.3114 77.1388 86.0258 88.5137 86.3892C99.8945 86.7578 110.66 84.7205 118.842 80.6668C126.833 76.7068 131.361 71.3058 131.591 65.4573C131.709 62.4592 131.829 56.2145 131.866 54.1974C127.863 52.3456 105.509 42.3145 90.2638 41.8271C76.8097 41.4065 52.3081 49.9977 48.0151 51.5441Z" fill="#D87716"/>
<path d="M133.16 55.5382C133.534 42.6552 114.425 31.6483 90.4794 30.9536C66.5335 30.2589 46.8186 40.1394 46.4448 53.0224C46.0711 65.9054 65.18 76.9123 89.1259 77.607C113.072 78.3017 132.787 68.4212 133.16 55.5382Z" fill="#FCB61A"/>
<path d="M98.0694 48.6649L102.188 46.5426L102.772 45.3299C102.772 45.3299 96.6361 43.687 92.8473 43.3223L92.3648 39.8007L88.1832 39.5837L86.9639 42.9673C86.9639 42.9673 80.418 43.6765 78.295 46.3634C76.1721 49.0502 77.162 51.5026 81.2782 53.3873C85.3944 55.2719 94.1603 57.305 94.537 59.5708C94.9136 61.8367 93.1335 63.7 86.4946 62.8199C79.8558 61.9401 74.7271 61.8534 74.7271 61.8534L75.1533 63.1252C75.1533 63.1252 79.5532 65.6866 86.3601 66.238L86.9943 69.8476L91.4923 69.9077L92.253 66.3424C92.253 66.3424 98.0075 66.0255 101.057 63.4515C104.107 60.8776 102.371 57.6502 97.9649 55.2555C93.5583 52.8607 88.1302 52.7709 85.422 50.5974C82.7138 48.4238 86.6739 46.3802 90.5455 46.5874C94.4178 46.7952 98.0694 48.6649 98.0694 48.6649Z" fill="#D87716"/>
<path d="M98.1159 47.4802L102.234 45.3579C102.234 45.3579 99.3873 42.7626 92.8939 42.1379L92.4113 38.6164L88.2298 38.3994L87.0104 41.7829C87.0104 41.7829 80.4645 42.4918 78.3416 45.1787C76.2187 47.8655 77.2085 50.3179 81.3247 52.2026C85.4409 54.0872 94.2069 56.1203 94.5835 58.3861C94.9601 60.652 93.18 62.5153 86.5412 61.6352C79.9023 60.7554 78.7213 59.2149 78.7213 59.2149L75.2002 61.9405C75.2002 61.9405 79.6001 64.5019 86.407 65.0533L87.0411 68.6632L91.5392 68.7233L92.2999 65.1581C92.2999 65.1581 98.0544 64.8412 101.104 62.2672C104.154 59.6936 102.418 56.4659 98.0118 54.0711C93.6052 51.6764 88.177 51.5866 85.4688 49.413C82.7607 47.2394 86.7207 45.1958 90.5924 45.403C94.4647 45.6106 98.1159 47.4802 98.1159 47.4802Z" fill="#FDC25C"/>
<path d="M91.8826 69.1046L86.6846 69.0347L86.0452 65.4006C79.4012 64.7962 75.1543 62.3626 74.9736 62.2571L74.5044 61.9842L78.8009 58.6584L79.0643 59.0022C79.0706 59.0092 80.3382 60.434 86.6015 61.2638C90.9857 61.8452 92.8043 61.1558 93.5583 60.4738C94.1065 59.978 94.313 59.2946 94.1715 58.4428C93.9499 57.1137 89.5909 55.6082 86.0882 54.3989C84.2232 53.7546 82.4625 53.1463 81.1359 52.5387C78.7597 51.4514 77.3534 50.1576 76.9547 48.6951C76.6315 47.5061 76.9833 46.2503 78.0022 44.9611C79.9818 42.4549 85.4111 41.61 86.6951 41.4423L87.9334 38.0071L92.7826 38.259L93.2682 41.798C99.6014 42.4828 102.413 44.9859 102.531 45.0938L102.913 45.4418L98.1172 47.9135L97.9107 47.8079C97.875 47.7894 94.2941 45.9785 90.5685 45.7793C88.1154 45.6497 85.5914 46.4736 85.0806 47.5843C84.8542 48.0752 85.0785 48.5965 85.7465 49.1321C87.0878 50.2086 89.2342 50.7746 91.5063 51.3739C93.646 51.9378 96.0704 52.5775 98.2272 53.749C101.111 55.3164 102.818 57.1944 103.033 59.0364C103.18 60.2977 102.612 61.5105 101.389 62.5422C98.6521 64.8521 93.9359 65.4013 92.6495 65.5103L91.8826 69.1046ZM87.3981 68.2919L91.1964 68.3425L91.9517 64.8007L92.2742 64.7826C92.3305 64.7794 97.9173 64.4422 100.82 61.9923C101.859 61.1157 102.323 60.1475 102.203 59.1154C102.016 57.5127 100.452 55.8363 97.7971 54.3937C95.7329 53.2721 93.465 52.6743 91.2725 52.0961C88.9071 51.4724 86.6735 50.8833 85.1924 49.6943C83.93 48.6814 84.0981 47.7566 84.3094 47.2954C84.9652 45.8688 87.7408 44.8804 90.6181 45.0275C94.0551 45.2112 97.266 46.6441 98.1112 47.0487L101.51 45.2972C100.51 44.5984 97.7244 42.9811 92.8497 42.5115L92.5206 42.48L92.0398 38.9735L88.5266 38.7911L87.324 42.1275L87.0599 42.1565C86.9966 42.1628 80.6712 42.8776 78.681 45.3971C77.8104 46.4995 77.5019 47.5483 77.7646 48.5148C78.1021 49.7544 79.3631 50.8823 81.5129 51.8669C82.8011 52.4566 84.5429 53.0576 86.3863 53.6942C90.6628 55.1714 94.7032 56.5672 94.9957 58.3299C95.1767 59.4148 94.8831 60.3397 94.1491 61.0046C92.8567 62.1722 90.2778 62.5101 86.4802 62.008C81.3462 61.327 79.3834 60.2565 78.6982 59.7289L75.9163 61.8812C77.2321 62.537 81.1037 64.2455 86.4439 64.6784L86.7678 64.7039L87.3981 68.2919Z" fill="#D87716"/>
<path d="M123.286 57.4383C122.119 60.4012 119.748 62.9549 116.968 64.9021C114.16 66.8485 110.966 68.3153 107.638 69.383C100.963 71.5126 93.7852 72.2114 86.7515 71.7267C79.722 71.2495 72.7031 69.5948 66.5422 66.3856C63.4808 64.7791 60.6423 62.7274 58.51 60.1402C56.4255 57.5592 55.0779 54.3608 55.4332 51.2131C55.6128 54.3598 57.133 57.251 59.3894 59.5015C61.606 61.7949 64.4287 63.559 67.4146 64.9681C73.441 67.7339 80.1602 69.2328 86.9238 69.6563C90.3063 69.9379 93.7198 69.8785 97.0964 69.5836C100.478 69.3083 103.823 68.7174 107.075 67.8496C110.314 66.9548 113.467 65.7507 116.314 64.0789C119.209 62.4661 121.642 60.1999 123.286 57.4383Z" fill="#D87716"/>
<path d="M56.6938 48.4502C58.039 45.5851 60.4823 43.1586 63.2866 41.297C66.1188 39.4396 69.3021 38.04 72.6126 37.0267C79.2486 34.996 86.3518 34.3919 93.3114 34.8912C96.7872 35.198 100.261 35.6777 103.623 36.5826C106.971 37.5029 110.257 38.6741 113.275 40.3068C116.293 41.9151 119.088 43.9608 121.184 46.5313C123.232 49.0962 124.551 52.2638 124.195 55.3786C124.017 52.2645 122.523 49.4005 120.301 47.1654C118.118 44.8877 115.337 43.1299 112.393 41.7191C106.455 38.933 99.8091 37.4432 93.1227 36.9603C86.4297 36.4401 79.6183 36.9306 73.1503 38.5668C69.9282 39.4092 66.7847 40.5493 63.9155 42.1352C60.9998 43.6631 58.5013 45.8112 56.6938 48.4502Z" fill="#D87716"/>
<path d="M49.3444 71.3674L48.2051 71.3314L48.529 63.0752L49.6683 63.1112L49.3444 71.3674Z" fill="#D87716"/>
<path d="M53.1639 75.4263L52.0249 75.3903L52.3802 66.3469L53.5193 66.3829L53.1639 75.4263Z" fill="#D87716"/>
<path d="M58.9856 79.1552L57.8462 79.1192L58.2016 70.0762L59.3409 70.1122L58.9856 79.1552Z" fill="#D87716"/>
<path d="M66.1477 82.5331L65.0083 82.4971L65.3636 73.4541L66.503 73.4901L66.1477 82.5331Z" fill="#D87716"/>
<path d="M74.6653 85.1674L73.5259 85.1318L73.8812 76.0884L75.0206 76.1244L74.6653 85.1674Z" fill="#D87716"/>
<path d="M82.9138 86.2184L81.7744 86.1825L82.0829 78.3193L83.222 78.3553L82.9138 86.2184Z" fill="#D87716"/>
<path d="M90.8143 87.6518L89.6753 87.6158L90.0149 78.9658L91.1539 79.0018L90.8143 87.6518Z" fill="#D87716"/>
<path d="M97.4535 87.4701L96.3145 87.4341L96.6845 77.998L97.8239 78.034L97.4535 87.4701Z" fill="#D87716"/>
<path d="M105.825 85.3757L104.686 85.3397L105.056 75.9043L106.195 75.9403L105.825 85.3757Z" fill="#D87716"/>
<path d="M112.51 84.0147L111.371 83.9787L111.711 75.3291L112.85 75.3651L112.51 84.0147Z" fill="#D87716"/>
<path d="M118.217 82.229L117.078 82.193L117.449 72.7566L118.588 72.7926L118.217 82.229Z" fill="#D87716"/>
<path d="M123.639 79.2532L122.5 79.2172L122.855 70.1738L123.994 70.2098L123.639 79.2532Z" fill="#D87716"/>
<path d="M128.822 73.9071L127.683 73.8712L127.992 66.0081L129.132 66.0441L128.822 73.9071Z" fill="#D87716"/>
<path d="M91.4881 78.6788C90.6017 78.6788 89.7121 78.6648 88.8187 78.6358C77.0343 78.2595 66.0351 75.4273 57.8484 70.6616C49.4783 65.789 45.012 59.466 45.272 52.8572C45.5312 46.2484 50.4828 40.2262 59.2131 35.9C67.7541 31.6692 78.9599 29.5463 90.7309 29.9219C115.271 30.7066 134.805 42.2709 134.278 55.7013C134.019 62.31 129.067 68.3325 120.337 72.6584C112.444 76.5688 102.284 78.6781 91.4881 78.6788ZM88.0574 31.9561C77.6458 31.9561 67.8799 33.9763 60.3221 37.7207C52.3308 41.6804 47.8033 47.0817 47.5734 52.9302C47.3435 58.7791 51.4363 64.456 59.0964 68.9157C66.9396 73.4819 77.5246 76.1964 88.8994 76.5597C100.277 76.9266 111.045 74.891 119.228 70.8374C127.219 66.8773 131.747 61.4764 131.977 55.6279C132.459 43.3425 113.92 32.7422 90.6495 31.9977C89.782 31.9704 88.9169 31.9561 88.0574 31.9561Z" fill="#FDC25C"/>
<path d="M90.8883 72.5658C90.1738 72.5658 89.4568 72.5547 88.7367 72.5316C79.2384 72.2315 70.3736 69.973 63.7753 66.1726C57.0292 62.287 53.4294 57.2449 53.639 51.975C53.848 46.7051 57.8388 41.9027 64.8756 38.4531C71.7597 35.0794 80.7911 33.3866 90.2782 33.686C110.057 34.3118 125.801 43.5337 125.377 54.2429C125.168 59.5128 121.177 64.3153 114.14 67.7648C107.778 70.8832 99.59 72.5651 90.8883 72.5658ZM88.1232 35.3082C79.7314 35.3082 71.8603 36.9189 65.769 39.9052C59.3279 43.063 55.6791 47.37 55.4936 52.0334C55.3081 56.6974 58.6071 61.2242 64.7812 64.7803C71.1028 68.4213 79.634 70.5862 88.8021 70.8759C97.9719 71.1683 106.651 69.5453 113.246 66.3127C119.687 63.1549 123.336 58.8479 123.522 54.1846C123.91 44.3879 108.968 35.935 90.2129 35.3414C89.5134 35.3194 88.816 35.3082 88.1232 35.3082Z" fill="#FDC25C"/>
<path d="M46.0367 48.1197C46.2233 43.3669 46.9284 36.2162 46.9284 36.2162C46.9284 36.2162 75.1982 25.7033 90.3053 26.1858C107.485 26.7347 133.03 38.9673 133.03 38.9673C133.03 38.9673 132.885 47.2522 132.742 50.89C132.236 63.7687 112.417 73.5888 88.4738 72.8236C64.5305 72.0588 45.5308 60.9984 46.0367 48.1197Z" fill="#F79219"/>
<path d="M91.1023 73.9047C90.2159 73.9047 89.3264 73.8904 88.433 73.8618C76.6486 73.4855 65.6493 70.6533 57.4627 65.8876C49.0926 61.0149 44.6263 54.6919 44.8862 48.0831C45.0714 43.3576 45.774 36.1964 45.7814 36.1244L45.8432 35.4962L46.49 35.2558C47.6542 34.8236 75.1707 24.6713 90.3455 25.1479C107.592 25.6988 132.517 37.5465 133.569 38.0506L134.192 38.3487L134.181 38.9839C134.179 39.0674 134.034 47.3204 133.893 50.9272C133.633 57.536 128.682 63.5582 119.951 67.8843C112.058 71.7948 101.898 73.904 91.1023 73.9047ZM48.0151 36.9409C47.84 38.7913 47.3386 44.3037 47.1877 48.1565C46.9578 54.0054 51.0506 59.6823 58.7107 64.1416C66.5539 68.7079 77.1388 71.4223 88.5137 71.7857C99.8945 72.1543 110.66 70.117 118.842 66.0633C126.833 62.1033 131.361 56.7023 131.591 50.8538C131.709 47.8557 131.829 41.611 131.866 39.5939C127.863 37.7421 105.509 27.711 90.2638 27.2236C76.8097 26.8033 52.3081 35.3942 48.0151 36.9409Z" fill="#D87716"/>
<path d="M133.16 40.9339C133.534 28.0509 114.425 17.044 90.4794 16.3493C66.5335 15.6546 46.8186 25.5352 46.4448 38.4182C46.0711 51.3011 65.18 62.308 89.1259 63.0028C113.072 63.6975 132.787 53.8169 133.16 40.9339Z" fill="#FCB61A"/>
<path d="M98.0694 34.0616L102.188 31.9393L102.772 30.7266C102.772 30.7266 96.6361 29.0838 92.8473 28.719L92.3648 25.1975L88.1832 24.9805L86.9639 28.364C86.9639 28.364 80.418 29.0729 78.295 31.7601C76.1721 34.4469 77.162 36.8994 81.2782 38.784C85.3944 40.6686 94.1603 42.7017 94.537 44.9676C94.9136 47.2334 93.1335 49.0964 86.4946 48.2166C79.8558 47.3368 74.7271 47.2502 74.7271 47.2502L75.1533 48.5219C75.1533 48.5219 79.5532 51.0833 86.3601 51.6347L86.9943 55.2443L91.4923 55.3044L92.253 51.7392C92.253 51.7392 98.0075 51.4223 101.057 48.8483C104.107 46.2743 102.371 43.0469 97.9649 40.6522C93.5583 38.2574 88.1302 38.1677 85.422 35.9941C82.7138 33.8205 86.6739 31.7769 90.5455 31.9841C94.4178 32.192 98.0694 34.0616 98.0694 34.0616Z" fill="#D87716"/>
<path d="M98.1159 32.8771L102.234 30.7549C102.234 30.7549 99.3873 28.1596 92.8939 27.5349L92.4113 24.0134L88.2298 23.7964L87.0104 27.1799C87.0104 27.1799 80.4645 27.8888 78.3416 30.576C76.2187 33.2629 77.2085 35.7153 81.3247 37.5999C85.4409 39.4845 94.2069 41.5177 94.5835 43.7835C94.9601 46.0493 93.18 47.9126 86.5412 47.0325C79.9023 46.1527 78.7213 44.6122 78.7213 44.6122L75.2002 47.3379C75.2002 47.3379 79.6001 49.8993 86.407 50.4506L87.0411 54.0602L91.5392 54.1203L92.2999 50.5551C92.2999 50.5551 98.0544 50.2382 101.104 47.6642C104.154 45.0906 102.418 41.8629 98.0118 39.4681C93.6052 37.0734 88.177 36.9836 85.4688 34.81C82.7607 32.6364 86.7207 30.5928 90.5924 30.8C94.4647 31.0072 98.1159 32.8771 98.1159 32.8771Z" fill="#FDC25C"/>
<path d="M91.8826 54.5012L86.6846 54.4313L86.0452 50.7972C79.4012 50.1928 75.1543 47.7593 74.9736 47.6537L74.5044 47.3809L78.8009 44.055L79.0643 44.3988C79.0706 44.4058 80.3382 45.8306 86.6015 46.6604C90.9857 47.2418 92.8043 46.5524 93.5583 45.8704C94.1065 45.3746 94.313 44.6912 94.1715 43.8394C93.9499 42.5103 89.5909 41.0048 86.0882 39.7955C84.2232 39.1512 82.4625 38.5429 81.1359 37.9353C78.7597 36.848 77.3534 35.5542 76.9547 34.0917C76.6315 32.9027 76.9833 31.6469 78.0022 30.3577C79.9818 27.8515 85.4111 27.0066 86.6951 26.8393L87.9334 23.4041L92.7826 23.656L93.2682 27.195C99.6014 27.8798 102.413 30.3828 102.531 30.4908L102.913 30.8388L98.1172 33.3104L97.9107 33.2053C97.875 33.1867 94.2941 31.3758 90.5685 31.1767C88.1154 31.047 85.5914 31.8709 85.0806 32.9816C84.8542 33.4722 85.0785 33.9938 85.7465 34.5295C87.0878 35.6059 89.2342 36.172 91.5063 36.7712C93.646 37.3351 96.0704 37.9748 98.2272 39.1463C101.111 40.7137 102.818 42.5917 103.033 44.4337C103.18 45.6954 102.612 46.9078 101.389 47.9395C98.6521 50.2494 93.9359 50.7986 92.6495 50.9076L91.8826 54.5012ZM87.3981 53.6885L91.1964 53.7391L91.9517 50.1973L92.2742 50.1792C92.3305 50.176 97.9173 49.8388 100.82 47.3889C101.859 46.5123 102.323 45.5441 102.203 44.512C102.016 42.9093 100.452 41.2329 97.7971 39.7903C95.7329 38.6687 93.465 38.0709 91.2725 37.4927C88.9071 36.869 86.6735 36.2799 85.1924 35.0909C83.93 34.078 84.0981 33.1532 84.3094 32.692C84.9652 31.2654 87.7408 30.277 90.6181 30.4241C94.0551 30.6079 97.266 32.0407 98.1112 32.4453L101.51 30.6938C100.51 29.995 97.7244 28.3777 92.8497 27.9081L92.5206 27.8766L92.0398 24.3701L88.5266 24.1877L87.324 27.5241L87.0599 27.5531C86.9966 27.5594 80.6712 28.2742 78.681 30.7937C77.8104 31.8961 77.5019 32.945 77.7646 33.9114C78.1021 35.151 79.3631 36.2789 81.5129 37.2635C82.8011 37.8532 84.5429 38.4542 86.3863 39.0908C90.6628 40.568 94.7032 41.9639 94.9957 43.7262C95.1767 44.8111 94.8831 45.7359 94.1491 46.4008C92.8567 47.5685 90.2778 47.9063 86.4802 47.4043C81.3462 46.7233 79.3834 45.6528 78.6982 45.1252L75.9163 47.2774C77.2321 47.9333 81.1037 49.6418 86.4439 50.0747L86.7678 50.1005L87.3981 53.6885Z" fill="#D87716"/>
<path d="M123.286 42.8349C122.119 45.7978 119.748 48.3515 116.968 50.299C114.16 52.2455 110.966 53.7122 107.638 54.78C100.963 56.9095 93.7852 57.6083 86.7515 57.1237C79.722 56.6465 72.7031 54.9917 66.5422 51.7825C63.4808 50.176 60.6423 48.1244 58.51 45.5371C56.4255 42.9558 55.0779 39.7578 55.4332 36.6101C55.6128 39.7568 57.133 42.648 59.3894 44.8984C61.606 47.1919 64.4287 48.9559 67.4146 50.365C73.441 53.1308 80.1602 54.6298 86.9238 55.0532C90.3063 55.3348 93.7198 55.2754 97.0964 54.9805C100.478 54.7049 103.823 54.1144 107.075 53.2465C110.314 52.3517 113.467 51.1477 116.314 49.4758C119.209 47.8627 121.642 45.5965 123.286 42.8349Z" fill="#D87716"/>
<path d="M56.6938 33.8471C58.039 30.9821 60.4823 28.5555 63.2866 26.694C66.1188 24.8366 69.3021 23.4369 72.6126 22.4237C79.2486 20.393 86.3518 19.7889 93.3114 20.2882C96.7872 20.595 100.261 21.0747 103.623 21.9796C106.971 22.8999 110.257 24.0711 113.275 25.7038C116.293 27.3121 119.088 29.3578 121.184 31.9283C123.232 34.4932 124.551 37.6608 124.195 40.7756C124.017 37.6615 122.523 34.7975 120.301 32.5624C118.118 30.2847 115.337 28.5269 112.393 27.1164C106.455 24.3303 99.8091 22.8405 93.1227 22.3573C86.4297 21.8371 79.6183 22.3276 73.1503 23.9638C69.9282 24.8062 66.7847 25.9463 63.9155 27.5322C60.9998 29.0597 58.5013 31.2078 56.6938 33.8471Z" fill="#D87716"/>
<path d="M49.3444 56.7639L48.2051 56.7279L48.529 48.4717L49.6683 48.5077L49.3444 56.7639Z" fill="#D87716"/>
<path d="M53.1639 60.8229L52.0249 60.7869L52.3802 51.7439L53.5193 51.7799L53.1639 60.8229Z" fill="#D87716"/>
<path d="M58.9856 64.5522L57.8462 64.5163L58.2016 55.4729L59.3409 55.5089L58.9856 64.5522Z" fill="#D87716"/>
<path d="M66.1477 67.9302L65.0083 67.8942L65.3636 58.8508L66.503 58.8868L66.1477 67.9302Z" fill="#D87716"/>
<path d="M74.6653 70.5642L73.5259 70.5282L73.8812 61.4849L75.0206 61.5209L74.6653 70.5642Z" fill="#D87716"/>
<path d="M82.9138 71.6149L81.7744 71.5789L82.0829 63.7158L83.222 63.7518L82.9138 71.6149Z" fill="#D87716"/>
<path d="M90.8143 73.0488L89.6753 73.0128L90.0149 64.3625L91.1539 64.3985L90.8143 73.0488Z" fill="#D87716"/>
<path d="M97.4535 72.8666L96.3145 72.8306L96.6845 63.3945L97.8239 63.4305L97.4535 72.8666Z" fill="#D87716"/>
<path d="M105.825 70.7722L104.686 70.7362L105.056 61.3008L106.195 61.3368L105.825 70.7722Z" fill="#D87716"/>
<path d="M112.51 69.4112L111.371 69.3752L111.711 60.7256L112.85 60.7616L112.51 69.4112Z" fill="#D87716"/>
<path d="M118.217 67.6254L117.078 67.5894L117.449 58.1533L118.588 58.1893L118.217 67.6254Z" fill="#D87716"/>
<path d="M123.639 64.6498L122.5 64.6138L122.855 55.5708L123.994 55.6068L123.639 64.6498Z" fill="#D87716"/>
<path d="M128.822 59.3037L127.683 59.2677L127.992 51.4045L129.132 51.4405L128.822 59.3037Z" fill="#D87716"/>
<path d="M91.4881 64.0753C90.6017 64.0753 89.7121 64.0613 88.8187 64.0323C77.0343 63.656 66.0351 60.8238 57.8484 56.0581C49.4783 51.1854 45.012 44.8625 45.272 38.2537C45.5312 31.6449 50.4828 25.6227 59.2131 21.2965C67.7541 17.0657 78.9599 14.9428 90.7309 15.3184C115.271 16.1035 134.805 27.6674 134.278 41.0977C134.019 47.7065 129.067 53.729 120.337 58.0549C112.444 61.9653 102.284 64.0749 91.4881 64.0753ZM88.0574 17.3529C77.6458 17.3529 67.8799 19.3731 60.3221 23.1176C52.3308 27.0773 47.8033 32.4785 47.5734 38.327C47.3435 44.1759 51.4363 49.8528 59.0964 54.3125C66.9396 58.8787 77.5246 61.5932 88.8994 61.9566C100.277 62.3234 111.045 60.2878 119.228 56.2342C127.219 52.2741 131.747 46.8732 131.977 41.0247C132.459 28.739 113.92 18.1391 90.6495 17.3945C89.782 17.3669 88.9169 17.3529 88.0574 17.3529Z" fill="#FDC25C"/>
<path d="M90.8883 57.9623C90.1738 57.9623 89.4568 57.9512 88.7367 57.9281C79.2384 57.628 70.3736 55.3698 63.7753 51.5691C57.0292 47.6835 53.4294 42.6414 53.639 37.3715C53.848 32.1016 57.8388 27.2992 64.8756 23.8496C71.7597 20.4758 80.7911 18.783 90.2782 19.0825C110.057 19.7082 125.801 28.9298 125.377 39.6394C125.168 44.9093 121.177 49.7117 114.14 53.1613C107.778 56.28 99.59 57.962 90.8883 57.9623ZM88.1232 20.7047C79.7314 20.7047 71.8603 22.3158 65.769 25.3017C59.3279 28.4595 55.6791 32.7665 55.4936 37.4299C55.3081 42.0939 58.6071 46.6207 64.7812 50.1768C71.1028 53.8182 79.634 55.9827 88.8021 56.2723C97.9719 56.5648 106.651 54.9418 113.246 51.7092C119.687 48.5514 123.336 44.2444 123.522 39.5811C123.91 29.7844 108.968 21.3315 90.2129 20.7379C89.5134 20.7159 88.816 20.7047 88.1232 20.7047Z" fill="#FDC25C"/>
<path d="M46.0367 33.5161C46.2233 28.7633 46.9284 21.6126 46.9284 21.6126C46.9284 21.6126 75.1982 11.0997 90.3053 11.5825C107.485 12.1314 133.03 24.3641 133.03 24.3641C133.03 24.3641 132.885 32.6489 132.742 36.2868C132.236 49.1655 112.417 58.9855 88.4738 58.2204C64.5305 57.4552 45.5308 46.3948 46.0367 33.5161Z" fill="#F79219"/>
<path d="M91.1023 59.301C90.2159 59.301 89.3264 59.287 88.433 59.258C76.6486 58.8817 65.6493 56.0495 57.4627 51.2838C49.0926 46.4111 44.6263 40.0882 44.8862 33.4794C45.0714 28.7538 45.774 21.5926 45.7814 21.5207L45.8432 20.8924L46.49 20.6521C47.6542 20.2199 75.1707 10.0675 90.3455 10.5441C107.592 11.0951 132.517 22.9427 133.569 23.4469L134.192 23.7449L134.181 24.3801C134.179 24.4636 134.034 32.7166 133.893 36.3234C133.633 42.9322 128.682 48.9547 119.951 53.2806C112.058 57.191 101.898 59.3006 91.1023 59.301ZM48.0151 22.3372C47.84 24.1876 47.3386 29.7 47.1877 33.5527C46.9578 39.4016 51.0506 45.0785 58.7107 49.5382C66.5539 54.1044 77.1388 56.8189 88.5137 57.1823C99.8945 57.5509 110.66 55.5135 118.842 51.4599C126.833 47.4998 131.361 42.0989 131.591 36.2504C131.709 33.2519 131.829 27.0075 131.866 24.9905C127.863 23.1387 105.509 13.1076 90.2638 12.6202C76.8097 12.1995 52.3081 20.7904 48.0151 22.3372Z" fill="#D87716"/>
<path d="M133.16 26.3302C133.534 13.4472 114.425 2.44029 90.4794 1.74558C66.5335 1.05087 46.8186 10.9314 46.4448 23.8144C46.0711 36.6974 65.18 47.7043 89.1259 48.399C113.072 49.0937 132.787 39.2131 133.16 26.3302Z" fill="#FCB61A"/>
<path d="M98.0694 19.458L102.188 17.3358L102.772 16.1231C102.772 16.1231 96.6361 14.4802 92.8473 14.1155L92.3648 10.5939L88.1832 10.377L86.9639 13.7605C86.9639 13.7605 80.418 14.4694 78.295 17.1562C76.1721 19.8431 77.162 22.2955 81.2782 24.1801C85.3944 26.0647 94.1603 28.0979 94.537 30.3637C94.9136 32.6295 93.1335 34.4928 86.4946 33.6127C79.8558 32.7329 74.7271 32.6463 74.7271 32.6463L75.1533 33.9181C75.1533 33.9181 79.5532 36.4795 86.3601 37.0308L86.9943 40.6404L91.4923 40.7005L92.253 37.1353C92.253 37.1353 98.0075 36.8184 101.057 34.2444C104.107 31.6708 102.371 28.4431 97.9649 26.0483C93.5583 23.6536 88.1302 23.5638 85.422 21.3902C82.7138 19.2166 86.6739 17.173 90.5455 17.3802C94.4171 17.5874 98.0694 19.458 98.0694 19.458Z" fill="#D87716"/>
<path d="M98.1159 18.2734L102.234 16.1512C102.234 16.1512 99.3873 13.5559 92.8939 12.9311L92.4113 9.40959L88.2298 9.19263L87.0104 12.5761C87.0104 12.5761 80.4645 13.2851 78.3416 15.9719C76.2187 18.6588 77.2085 21.1111 81.3247 22.9958C85.4409 24.8804 94.2069 26.9135 94.5835 29.1794C94.9601 31.4452 93.18 33.3081 86.5412 32.4284C79.9023 31.5486 78.7213 30.0081 78.7213 30.0081L75.2002 32.7338C75.2002 32.7338 79.6001 35.2952 86.407 35.8465L87.0411 39.4561L91.5392 39.5162L92.2999 35.951C92.2999 35.951 98.0544 35.6341 101.104 33.0601C104.154 30.4864 102.418 27.2587 98.0118 24.864C93.6052 22.4692 88.177 22.3795 85.4688 20.2059C82.7607 18.0323 86.7207 15.9887 90.5924 16.1959C94.4647 16.4038 98.1159 18.2734 98.1159 18.2734Z" fill="#FDC25C"/>
<path d="M91.8826 39.8974L86.6846 39.8275L86.0452 36.1935C79.4012 35.589 75.1543 33.1555 74.9736 33.05L74.5044 32.7771L78.8009 29.4512L79.0643 29.795C79.0706 29.802 80.3382 31.2268 86.6015 32.0566C90.9857 32.638 92.8043 31.9487 93.5583 31.2667C94.1065 30.7709 94.313 30.0875 94.1715 29.2356C93.9499 27.9065 89.5909 26.401 86.0882 25.1918C84.2232 24.5475 82.4625 23.9392 81.1359 23.3316C78.7597 22.2443 77.3534 20.9505 76.9547 19.4879C76.6315 18.2989 76.9833 17.0432 78.0022 15.7543C79.9818 13.2481 85.4111 12.4032 86.6951 12.2355L87.9334 8.80029L92.7826 9.05219L93.2682 12.5912C99.6014 13.276 102.413 15.7791 102.531 15.887L102.913 16.235L98.1172 18.7066L97.9107 18.6011C97.875 18.5826 94.2941 16.7717 90.5685 16.5726C88.1154 16.4429 85.5914 17.2668 85.0806 18.3775C84.8542 18.8681 85.0785 19.3897 85.7465 19.9253C87.0878 21.0018 89.2342 21.5678 91.5063 22.167C93.646 22.731 96.0704 23.3707 98.2272 24.5422C101.111 26.1096 102.818 27.9876 103.033 29.8296C103.18 31.0913 102.612 32.3037 101.389 33.3354C98.6521 35.6453 93.9359 36.1945 92.6495 36.3035L91.8826 39.8974ZM87.3981 39.0851L91.1964 39.1357L91.9517 35.5939L92.2742 35.5761C92.3305 35.5729 97.9173 35.2358 100.82 32.7858C101.859 31.9092 102.323 30.941 102.203 29.9089C102.016 28.3063 100.452 26.6299 97.7971 25.1872C95.7329 24.0657 93.465 23.4678 91.2725 22.8896C88.9071 22.2659 86.6735 21.6769 85.1924 20.4879C83.93 19.475 84.0981 18.5501 84.3094 18.0889C84.9652 16.6623 87.7408 15.6739 90.6181 15.821C94.0551 16.0048 97.266 17.4377 98.1112 17.8422L101.51 16.0907C100.51 15.3919 97.7244 13.7746 92.8497 13.305L92.5206 13.2736L92.0398 9.76705L88.5266 9.58468L87.324 12.9207L87.0599 12.9497C86.9966 12.956 80.6712 13.6708 78.681 16.19C77.8104 17.2923 77.5019 18.3412 77.7646 19.308C78.1021 20.5476 79.3631 21.6755 81.5129 22.66C82.8011 23.2498 84.5429 23.8508 86.3863 24.4874C90.6628 25.9646 94.7032 27.3604 94.9957 29.1231C95.1767 30.208 94.8831 31.1329 94.1491 31.7978C92.8567 32.9654 90.2778 33.3033 86.4802 32.8012C81.3462 32.1202 79.3834 31.0497 78.6982 30.5221L75.9163 32.6744C77.2321 33.3302 81.1037 35.0387 86.4439 35.4716L86.7678 35.4975L87.3981 39.0851Z" fill="#D87716"/>
<path d="M123.286 28.2311C122.119 31.194 119.748 33.7481 116.968 35.6952C114.16 37.6417 110.966 39.1085 107.638 40.1762C100.963 42.3058 93.7852 43.0046 86.7515 42.52C79.722 42.0427 72.7031 40.388 66.5422 37.1788C63.4808 35.5723 60.6423 33.5206 58.51 30.9334C56.4255 28.352 55.0779 25.154 55.4332 22.0063C55.6128 25.153 57.133 28.0442 59.3894 30.2947C61.606 32.5881 64.4287 34.3522 67.4146 35.7613C73.441 38.5271 80.1602 40.026 86.9238 40.4494C90.3063 40.7311 93.7198 40.6717 97.0964 40.3768C100.478 40.1015 103.823 39.5106 107.075 38.6427C110.314 37.7479 113.467 36.5439 116.314 34.8721C119.209 33.2589 121.642 30.9928 123.286 28.2311Z" fill="#D87716"/>
<path d="M56.6938 19.2434C58.039 16.3783 60.4823 13.9518 63.2866 12.0902C66.1188 10.2328 69.3021 8.83317 72.6126 7.81993C79.2486 5.78925 86.3518 5.18515 93.3114 5.68443C96.7872 5.9912 100.261 6.47092 103.623 7.37585C106.971 8.29615 110.257 9.46767 113.275 11.1C116.293 12.7083 119.088 14.754 121.184 17.3245C123.232 19.8894 124.551 23.057 124.195 26.1719C124.017 23.0577 122.523 20.1937 120.301 17.9583C118.118 15.6806 115.337 13.9228 112.393 12.5123C106.455 9.72622 99.8091 8.23641 93.1227 7.7532C86.4297 7.23295 79.6183 7.72349 73.1503 9.3597C69.9282 10.2021 66.7847 11.3422 63.9155 12.9281C60.9998 14.456 58.5013 16.6044 56.6938 19.2434Z" fill="#D87716"/>
<path d="M49.3444 42.1604L48.2051 42.1244L48.529 33.8679L49.6683 33.9039L49.3444 42.1604Z" fill="#D87716"/>
<path d="M53.1639 46.2191L52.0249 46.1832L52.3802 37.1401L53.5193 37.1761L53.1639 46.2191Z" fill="#D87716"/>
<path d="M58.9856 49.9484L57.8462 49.9124L58.2016 40.8694L59.3409 40.905L58.9856 49.9484Z" fill="#D87716"/>
<path d="M66.1477 53.3264L65.0083 53.2904L65.3636 44.2471L66.503 44.2831L66.1477 53.3264Z" fill="#D87716"/>
<path d="M74.6653 55.9606L73.5259 55.9246L73.8812 46.8816L75.0206 46.9176L74.6653 55.9606Z" fill="#D87716"/>
<path d="M82.9138 57.0115L81.7744 56.9755L82.0829 49.1121L83.222 49.1481L82.9138 57.0115Z" fill="#D87716"/>
<path d="M90.8143 58.4452L89.6753 58.4092L90.0149 49.7593L91.1539 49.7949L90.8143 58.4452Z" fill="#D87716"/>
<path d="M97.4535 58.2634L96.3145 58.2274L96.6845 48.791L97.8239 48.827L97.4535 58.2634Z" fill="#D87716"/>
<path d="M105.825 56.1687L104.686 56.1327L105.056 46.697L106.195 46.733L105.825 56.1687Z" fill="#D87716"/>
<path d="M112.51 54.8076L111.371 54.7716L111.711 46.1223L112.85 46.1583L112.51 54.8076Z" fill="#D87716"/>
<path d="M118.217 53.0219L117.078 52.9862L117.449 43.5498L118.588 43.5858L118.217 53.0219Z" fill="#D87716"/>
<path d="M123.639 50.046L122.5 50.0101L122.855 40.967L123.994 41.003L123.639 50.046Z" fill="#D87716"/>
<path d="M128.822 44.6999L127.683 44.6643L127.992 36.8008L129.132 36.8368L128.822 44.6999Z" fill="#D87716"/>
<path d="M91.4881 49.4718C90.6017 49.4718 89.7121 49.4578 88.8187 49.4288C77.0343 49.0525 66.0351 46.2203 57.8484 41.4546C49.4783 36.5819 45.012 30.2589 45.272 23.6502C45.5312 17.0414 50.4828 11.0189 59.2131 6.69303C67.7541 2.46221 78.9599 0.339279 90.7309 0.714878C115.271 1.49997 134.805 13.0639 134.278 26.4942C134.019 33.103 129.067 39.1252 120.337 43.4514C112.444 47.3618 102.284 49.4711 91.4881 49.4718ZM88.0574 2.74906C77.6458 2.74906 67.8799 4.76926 60.3221 8.51372C52.3308 12.4734 47.8033 17.8747 47.5734 23.7232C47.3435 29.5721 51.4363 35.249 59.0964 39.7083C66.9396 44.2745 77.5246 46.989 88.8994 47.3527C100.277 47.7196 111.045 45.684 119.228 41.6303C127.219 37.6706 131.747 32.2694 131.977 26.4208C132.459 14.1351 113.92 3.5352 90.6495 2.79064C89.782 2.76304 88.9169 2.74906 88.0574 2.74906Z" fill="#FDC25C"/>
<path d="M90.8883 43.3586C90.1738 43.3586 89.4568 43.3474 88.7367 43.3243C79.2384 43.0242 70.3736 40.7661 63.7753 36.9654C57.0292 33.0798 53.4294 28.0376 53.639 22.7677C53.848 17.4978 57.8388 12.6954 64.8756 9.24584C71.7597 5.87209 80.7911 4.17928 90.2782 4.47871C110.057 5.10448 125.801 14.326 125.377 25.0357C125.168 30.3056 121.177 35.108 114.14 38.5576C107.778 41.6762 99.59 43.3582 90.8883 43.3586ZM88.1232 6.10095C79.7314 6.10095 71.8603 7.71165 65.769 10.6979C59.3279 13.8557 55.6791 18.1627 55.4936 22.8261C55.3081 27.4902 58.6071 32.0169 64.7812 35.573C71.1028 39.2141 79.634 41.3786 88.8021 41.6686C97.9719 41.961 106.651 40.3377 113.246 37.1055C119.687 33.9476 123.336 29.6407 123.522 24.9773C123.91 15.1807 108.968 6.72775 90.2129 6.13413C89.5134 6.11247 88.816 6.10095 88.1232 6.10095Z" fill="#FDC25C"/>
<path d="M1.58899 149.716C1.76683 143.856 2.43833 135.038 2.43833 135.038C2.43833 135.038 29.3731 122.075 43.7664 122.67C60.1348 123.347 84.4733 138.431 84.4733 138.431C84.4733 138.431 84.3353 148.647 84.199 153.133C83.7172 169.013 64.8335 181.122 42.0215 180.179C19.2093 179.236 1.10717 165.597 1.58899 149.716Z" fill="#F79219"/>
<path d="M44.5261 181.512C43.6816 181.512 42.834 181.494 41.9825 181.459C30.7547 180.995 20.275 177.503 12.4751 171.626C4.5002 165.617 0.245261 157.821 0.492632 149.671C0.669076 143.844 1.33853 135.014 1.34552 134.925L1.40455 134.15L2.02055 133.854C3.12987 133.321 29.3466 120.802 43.8046 121.39C60.2366 122.069 83.9842 136.679 84.987 137.3L85.5798 137.668L85.5697 138.451C85.5683 138.554 85.43 148.731 85.2951 153.178C85.0481 161.327 80.3306 168.753 72.0122 174.088C64.4919 178.91 54.8122 181.511 44.5261 181.512ZM3.474 135.932C3.30699 138.214 2.82937 145.011 2.68577 149.761C2.4667 156.974 6.36628 163.974 13.6648 169.473C21.1376 175.103 31.2226 178.451 42.0604 178.899C52.9035 179.353 63.1606 176.841 70.9563 171.842C78.5703 166.96 82.8836 160.3 83.1027 153.088C83.2152 149.391 83.3301 141.691 83.365 139.203C79.5504 136.92 58.2524 124.551 43.7274 123.95C30.9088 123.431 7.564 134.024 3.474 135.932Z" fill="#D87716"/>
<path d="M84.5481 141.406C85.3678 125.541 67.5466 111.724 44.7433 110.546C21.94 109.368 2.78979 121.274 1.97007 137.139C1.15035 153.005 18.9715 166.821 41.7748 167.999C64.5781 169.178 83.7283 157.271 84.5481 141.406Z" fill="#FCB61A"/>
<path d="M51.1639 132.382L55.0876 129.765L55.6446 128.269C55.6446 128.269 49.7985 126.244 46.1886 125.794L45.7288 121.452L41.7446 121.184L40.5829 125.356C40.5829 125.356 34.3462 126.231 32.3236 129.544C30.3009 132.857 31.2439 135.881 35.1659 138.205C39.0878 140.529 47.4398 143.036 47.7986 145.83C48.1574 148.624 46.4611 150.921 40.136 149.836C33.8109 148.751 28.9243 148.645 28.9243 148.645L29.3306 150.213C29.3306 150.213 33.5227 153.371 40.0082 154.051L40.6123 158.502L44.8979 158.577L45.6229 154.181C45.6229 154.181 51.1056 153.79 54.0115 150.616C56.9171 147.443 55.2637 143.463 51.0651 140.51C46.8668 137.557 41.695 137.446 39.1147 134.766C36.5345 132.086 40.3076 129.565 43.9965 129.821C47.6854 130.076 51.1639 132.382 51.1639 132.382Z" fill="#D87716"/>
<path d="M51.2082 130.921L55.132 128.304C55.132 128.304 52.4196 125.104 46.2329 124.333L45.7731 119.991L41.7889 119.723L40.6272 123.895C40.6272 123.895 34.3905 124.769 32.3679 128.083C30.3452 131.396 31.2883 134.42 35.2102 136.744C39.1322 139.068 47.4841 141.575 47.8429 144.369C48.2017 147.163 46.5054 149.46 40.1803 148.375C33.8552 147.29 32.7299 145.391 32.7299 145.391L29.375 148.752C29.375 148.752 33.567 151.91 40.0525 152.59L40.6566 157.042L44.9422 157.116L45.6672 152.72C45.6672 152.72 51.1499 152.329 54.0558 149.155C56.9614 145.982 55.3077 142.002 51.1094 139.049C46.9111 136.096 41.7393 135.985 39.1591 133.305C36.5788 130.625 40.3519 128.104 44.0408 128.36C47.7294 128.615 51.2082 130.921 51.2082 130.921Z" fill="#FDC25C"/>
<path d="M45.2697 157.585L40.3174 157.499L39.7081 153.017C33.3777 152.272 29.3314 149.271 29.1591 149.141L28.7119 148.805L32.8054 144.704L33.0563 145.127C33.0626 145.136 34.2701 146.893 40.2374 147.916C44.4144 148.633 46.147 147.783 46.8657 146.942C47.3881 146.331 47.5848 145.488 47.4499 144.438C47.2389 142.799 43.0856 140.942 39.7486 139.451C37.9719 138.657 36.2941 137.907 35.03 137.157C32.7663 135.816 31.4264 134.221 31.0462 132.418C30.7381 130.952 31.0735 129.403 32.0441 127.814C33.9301 124.724 39.1029 123.682 40.3261 123.475L41.506 119.24L46.1261 119.55L46.5887 123.914C52.6227 124.758 55.3011 127.845 55.4136 127.978L55.7781 128.407L51.2091 131.455L51.0124 131.325C50.9785 131.302 47.5666 129.069 44.0171 128.824C41.68 128.664 39.2748 129.68 38.7884 131.049C38.5729 131.654 38.7863 132.298 39.4229 132.958C40.701 134.285 42.746 134.983 44.9109 135.722C46.9496 136.417 49.2594 137.206 51.3146 138.651C54.0622 140.584 55.6883 142.9 55.8934 145.171C56.0338 146.727 55.4923 148.222 54.3278 149.494C51.7199 152.342 47.2267 153.02 46.0007 153.154L45.2697 157.585ZM40.997 156.583L44.6157 156.646L45.3354 152.279L45.6429 152.257C45.6963 152.253 51.0193 151.837 53.7844 148.816C54.7743 147.735 55.2173 146.541 55.1027 145.269C54.9241 143.292 53.4337 141.225 50.9047 139.446C48.938 138.063 46.7774 137.326 44.6883 136.613C42.4347 135.844 40.3062 135.118 38.8954 133.652C37.6924 132.403 37.8528 131.262 38.054 130.693C38.6787 128.934 41.3233 127.715 44.065 127.897C47.3399 128.123 50.3988 129.89 51.2042 130.389L54.443 128.229C53.4899 127.368 50.8359 125.373 46.1914 124.794L45.878 124.756L45.42 120.432L42.0727 120.207L40.9267 124.321L40.6752 124.356C40.6147 124.364 34.5884 125.246 32.6922 128.352C31.8624 129.711 31.5689 131.005 31.8191 132.196C32.1405 133.725 33.3421 135.116 35.3902 136.33C36.6177 137.057 38.277 137.799 40.0334 138.583C44.108 140.405 47.9572 142.126 48.2361 144.299C48.4083 145.637 48.1288 146.778 47.4293 147.597C46.1981 149.037 43.7408 149.454 40.1228 148.835C35.2313 147.995 33.3609 146.675 32.7083 146.024L30.0578 148.678C31.3114 149.487 35 151.594 40.0882 152.128L40.397 152.159L40.997 156.583Z" fill="#D87716"/>
<path d="M75.1894 143.199C74.0773 146.853 71.8185 150.002 69.1701 152.403C66.4944 154.803 63.4515 156.612 60.2801 157.929C53.9208 160.555 47.0821 161.416 40.3803 160.819C33.6828 160.231 26.9954 158.19 21.1256 154.233C18.2088 152.252 15.5045 149.722 13.4728 146.532C11.4868 143.349 10.2028 139.405 10.5414 135.524C10.7126 139.404 12.1608 142.969 14.3106 145.744C16.4224 148.572 19.1117 150.747 21.9568 152.485C27.6984 155.895 34.1003 157.744 40.5446 158.266C43.7674 158.613 47.0195 158.54 50.2368 158.176C53.4585 157.837 56.6457 157.108 59.7441 156.038C62.8303 154.935 65.8344 153.45 68.5471 151.388C71.3052 149.399 73.6231 146.605 75.1894 143.199Z" fill="#D87716"/>
<path d="M11.7432 132.117C13.0247 128.584 15.3528 125.591 18.0246 123.296C20.7229 121.005 23.756 119.28 26.91 118.03C33.2327 115.526 40.0001 114.781 46.6312 115.397C49.9431 115.775 53.2529 116.367 56.4558 117.483C59.6458 118.618 62.776 120.062 65.6519 122.075C68.5278 124.058 71.1908 126.581 73.1876 129.751C75.1386 132.914 76.3954 136.82 76.0561 140.661C75.8867 136.821 74.4636 133.289 72.3463 130.533C70.267 127.724 67.6172 125.556 64.8119 123.817C59.1542 120.382 52.8228 118.544 46.452 117.949C40.0756 117.307 33.5856 117.912 27.4229 119.93C24.3528 120.969 21.3578 122.374 18.6245 124.33C15.8458 126.213 13.465 128.862 11.7432 132.117Z" fill="#D87716"/>
<path d="M4.74033 160.376L3.65479 160.331L3.96366 150.15L5.04886 150.195L4.74033 160.376Z" fill="#D87716"/>
<path d="M8.37949 165.38L7.29395 165.336L7.63251 154.185L8.71805 154.229L8.37949 165.38Z" fill="#D87716"/>
<path d="M13.9264 169.979L12.8408 169.935L13.1794 158.783L14.2649 158.828L13.9264 169.979Z" fill="#D87716"/>
<path d="M20.7501 174.144L19.6646 174.1L20.0031 162.949L21.0883 162.993L20.7501 174.144Z" fill="#D87716"/>
<path d="M28.8655 177.393L27.7803 177.348L28.1185 166.197L29.204 166.241L28.8655 177.393Z" fill="#D87716"/>
<path d="M36.7242 178.688L35.6387 178.644L35.9325 168.948L37.0181 168.992L36.7242 178.688Z" fill="#D87716"/>
<path d="M44.2517 180.456L43.1665 180.412L43.4901 169.745L44.5756 169.79L44.2517 180.456Z" fill="#D87716"/>
<path d="M50.5778 180.232L49.4922 180.188L49.8451 168.552L50.9307 168.596L50.5778 180.232Z" fill="#D87716"/>
<path d="M58.5538 177.649L57.4683 177.605L57.8211 165.97L58.9064 166.014L58.5538 177.649Z" fill="#D87716"/>
<path d="M64.923 175.971L63.8374 175.926L64.161 165.261L65.2465 165.305L64.923 175.971Z" fill="#D87716"/>
<path d="M70.3592 173.769L69.2739 173.724L69.6272 162.089L70.7127 162.133L70.3592 173.769Z" fill="#D87716"/>
<path d="M75.526 170.099L74.4404 170.055L74.779 158.904L75.8646 158.948L75.526 170.099Z" fill="#D87716"/>
<path d="M80.4645 163.507L79.3789 163.463L79.6735 153.767L80.759 153.811L80.4645 163.507Z" fill="#D87716"/>
<path d="M44.8937 169.391C44.0492 169.391 43.2016 169.374 42.3502 169.338C31.1224 168.874 20.6427 165.382 12.8428 159.505C4.86787 153.496 0.612936 145.7 0.860307 137.55C1.10733 129.401 5.82484 121.975 14.1432 116.64C22.2809 111.423 32.9574 108.806 44.1722 109.269C67.5527 110.237 86.1645 124.497 85.6628 141.057C85.4158 149.206 80.6979 156.632 72.3799 161.967C64.8599 166.789 55.1799 169.39 44.8937 169.391ZM41.6251 111.778C31.7052 111.778 22.4008 114.268 15.1998 118.886C7.5858 123.769 3.27252 130.429 3.0531 137.641C2.83403 144.853 6.73361 151.853 14.0321 157.352C21.5049 162.983 31.5899 166.33 42.4277 166.778C53.2677 167.23 63.5273 164.721 71.3236 159.722C78.9376 154.839 83.2509 148.179 83.47 140.967C83.9294 125.818 66.2658 112.747 44.0951 111.829C43.2684 111.795 42.4441 111.778 41.6251 111.778Z" fill="#FDC25C"/>
<path d="M44.322 161.853C43.6414 161.853 42.9583 161.839 42.2721 161.811C33.2225 161.441 24.7762 158.656 18.4896 153.97C12.0621 149.179 8.63247 142.962 8.83197 136.463C9.03112 129.965 12.8336 124.043 19.5377 119.789C26.0966 115.629 34.7015 113.542 43.7406 113.911C62.5848 114.683 77.5857 126.054 77.1811 139.26C76.982 145.758 73.1795 151.68 66.4753 155.933C60.4144 159.779 52.6128 161.853 44.322 161.853ZM41.6876 115.911C33.6924 115.911 26.193 117.897 20.3892 121.58C14.2525 125.473 10.776 130.784 10.5992 136.535C10.4228 142.286 13.5655 147.868 19.4479 152.253C25.4708 156.743 33.5991 159.412 42.3343 159.769C51.0709 160.13 59.3403 158.129 65.6242 154.143C71.761 150.249 75.2374 144.938 75.4142 139.188C75.7846 127.107 61.5478 116.684 43.6784 115.952C43.0121 115.925 42.3476 115.911 41.6876 115.911Z" fill="#FDC25C"/>
<path d="M143.134 87.9892C148.901 86.9323 157.663 85.7373 157.663 85.7373C157.663 85.7373 175.993 109.349 178.434 123.546C181.21 139.692 171.574 166.655 171.574 166.655C171.574 166.655 161.557 168.666 157.142 169.475C141.514 172.338 125.71 156.419 121.841 133.917C117.973 111.416 127.506 90.8532 143.134 87.9892Z" fill="#F79219"/>
<path d="M121.065 136.646C120.887 135.82 120.726 134.988 120.582 134.148C118.678 123.073 119.892 112.094 123.999 103.234C128.199 94.1749 134.929 88.3775 142.948 86.9079C148.682 85.8566 157.456 84.6568 157.544 84.6449L158.314 84.54L158.733 85.0802C159.487 86.0529 177.232 109.056 179.694 123.315C182.481 139.523 173.184 165.809 172.787 166.92L172.552 167.577L171.784 167.732C171.683 167.752 161.704 169.754 157.328 170.556C149.309 172.026 141.057 168.973 134.095 161.961C127.801 155.62 123.226 146.703 121.065 136.646ZM157.007 86.9373C154.741 87.2531 147.995 88.2139 143.32 89.0706C136.223 90.3711 130.198 95.6536 126.354 103.944C122.418 112.433 121.264 122.996 123.102 133.686C124.934 144.383 129.544 153.884 136.069 160.456C142.442 166.875 149.859 169.693 156.956 168.393C160.594 167.727 168.147 166.222 170.586 165.734C172.017 161.525 179.638 138.105 177.175 123.777C174.99 111.135 159.731 90.5357 157.007 86.9373Z" fill="#D87716"/>
<path d="M168.604 167.371C184.287 164.842 194.053 144.519 190.418 121.978C186.783 99.4373 171.123 83.2147 155.44 85.7437C139.758 88.2728 129.991 108.596 133.626 131.137C137.261 153.677 152.921 169.9 168.604 167.371Z" fill="#FCB61A"/>
<path d="M170.493 132.818L173.875 136.105L175.454 136.335C175.454 136.335 176.207 130.194 175.889 126.57L180.038 125.209L179.463 121.257L175.139 120.997C175.139 120.997 172.975 115.083 169.311 113.802C165.647 112.52 162.888 114.077 161.44 118.399C159.991 122.722 159.294 131.414 156.638 132.352C153.981 133.289 151.379 132.113 151.112 125.701C150.844 119.289 149.922 114.49 149.922 114.49L148.474 115.216C148.474 115.216 146.266 119.978 146.964 126.462L142.739 127.987L143.566 132.193L148.016 131.978C148.016 131.978 149.55 137.256 153.263 139.431C156.977 141.606 160.52 139.153 162.526 134.428C164.531 129.703 163.553 124.623 165.632 121.538C167.71 118.452 170.967 121.612 171.491 125.272C172.016 128.933 170.493 132.818 170.493 132.818Z" fill="#D87716"/>
<path d="M171.93 132.554L175.313 135.841C175.313 135.841 177.872 132.517 177.326 126.307L181.475 124.945L180.9 120.994L176.577 120.734C176.577 120.734 174.412 114.82 170.748 113.538C167.084 112.257 164.326 113.814 162.877 118.136C161.429 122.458 160.732 131.151 158.075 132.088C155.419 133.026 152.816 131.85 152.549 125.438C152.282 119.026 153.902 117.527 153.902 117.527L149.912 114.953C149.912 114.953 147.704 119.715 148.401 126.198L144.176 127.724L145.004 131.929L149.454 131.715C149.454 131.715 150.988 136.993 154.701 139.168C158.414 141.342 161.958 138.89 163.963 134.165C165.969 129.44 164.991 124.36 167.069 121.275C169.148 118.189 172.404 121.349 172.929 125.009C173.454 128.669 171.93 132.554 171.93 132.554Z" fill="#FDC25C"/>
<path d="M144.613 132.348L143.658 127.488L147.911 125.951C147.311 119.606 149.395 115.019 149.486 114.824L149.721 114.316L154.59 117.457L154.229 117.792C154.221 117.799 152.757 119.349 153.01 125.398C153.186 129.632 154.381 131.148 155.354 131.674C156.062 132.056 156.927 132.072 157.926 131.719C159.483 131.169 160.426 126.718 161.184 123.142C161.587 121.238 161.968 119.44 162.435 118.047C163.271 115.552 164.549 113.907 166.232 113.157C167.601 112.548 169.185 112.551 170.943 113.166C174.361 114.361 176.466 119.2 176.925 120.352L181.314 120.616L181.98 125.198L177.811 126.567C178.252 132.644 175.797 135.911 175.691 136.049L175.347 136.495L171.408 132.668L171.494 132.448C171.509 132.41 172.975 128.605 172.47 125.083C172.136 122.765 170.637 120.627 169.196 120.439C168.559 120.355 167.975 120.699 167.463 121.46C166.434 122.988 166.181 125.134 165.913 127.406C165.661 129.545 165.375 131.969 164.394 134.282C163.082 137.374 161.159 139.45 158.981 140.128C157.49 140.592 155.914 140.376 154.426 139.505C151.094 137.553 149.488 133.302 149.098 132.132L144.613 132.348ZM144.696 127.96L145.395 131.511L149.815 131.298L149.902 131.594C149.917 131.646 151.441 136.763 154.975 138.832C156.24 139.572 157.5 139.755 158.72 139.375C160.615 138.786 162.323 136.895 163.531 134.048C164.47 131.835 164.737 129.567 164.996 127.375C165.274 125.01 165.537 122.777 166.674 121.09C167.643 119.651 168.792 119.569 169.39 119.646C171.241 119.888 172.988 122.217 173.387 124.936C173.853 128.185 172.767 131.547 172.449 132.439L175.241 135.152C175.883 134.039 177.276 131.026 176.867 126.363L176.839 126.048L180.97 124.693L180.487 121.373L176.224 121.116L176.137 120.878C176.116 120.82 173.989 115.113 170.553 113.912C169.05 113.386 167.724 113.371 166.611 113.866C165.184 114.501 164.077 115.968 163.319 118.225C162.866 119.578 162.49 121.356 162.091 123.238C161.166 127.605 160.292 131.73 158.225 132.458C156.954 132.908 155.78 132.874 154.831 132.362C153.165 131.461 152.242 129.146 152.087 125.479C151.881 120.52 152.779 118.414 153.278 117.639L150.126 115.605C149.599 117 148.313 121.049 148.86 126.136L148.894 126.445L144.696 127.96Z" fill="#D87716"/>
<path d="M164.962 158.58C161.156 158.26 157.603 156.713 154.699 154.627C151.791 152.516 149.384 149.92 147.43 147.096C143.527 141.43 141.249 134.925 140.425 128.247C139.594 121.575 140.185 114.608 142.821 108.038C144.145 104.771 146.051 101.595 148.743 98.9389C151.438 96.3289 155.024 94.2455 158.89 93.7612C155.132 94.7434 151.951 96.9079 149.689 99.5926C147.368 102.251 145.806 105.337 144.704 108.484C142.575 114.814 142.113 121.461 142.956 127.871C143.293 131.095 144.048 134.259 145.079 137.329C146.087 140.407 147.469 143.37 149.165 146.175C150.893 148.961 152.975 151.586 155.56 153.805C158.084 156.084 161.303 157.763 164.962 158.58Z" fill="#D87716"/>
<path d="M162.474 94.2207C166.197 94.7319 169.611 96.3796 172.417 98.5095C175.223 100.667 177.547 103.27 179.431 106.091C183.207 111.747 185.357 118.207 186.147 124.819C186.473 128.136 186.59 131.497 186.171 134.863C185.732 138.22 184.977 141.583 183.613 144.818C182.278 148.046 180.371 151.179 177.691 153.797C175.009 156.369 171.453 158.418 167.627 158.893C171.345 157.92 174.5 155.788 176.75 153.139C179.059 150.516 180.622 147.47 181.734 144.362C183.904 138.109 184.371 131.533 183.615 125.179C182.903 118.81 180.949 112.592 177.682 106.99C176.022 104.207 174.019 101.574 171.532 99.3121C169.107 96.9921 166.017 95.221 162.474 94.2207Z" fill="#D87716"/>
<path d="M133.374 93.3088L133.19 92.2383L143.208 90.4019L143.393 91.4724L133.374 93.3088Z" fill="#D87716"/>
<path d="M129.245 97.9178L129.061 96.8472L140.034 94.8364L140.219 95.907L129.245 97.9178Z" fill="#D87716"/>
<path d="M125.914 104.307L125.73 103.236L136.703 101.225L136.888 102.296L125.914 104.307Z" fill="#D87716"/>
<path d="M123.275 111.853L123.09 110.782L134.064 108.771L134.248 109.842L123.275 111.853Z" fill="#D87716"/>
<path d="M121.803 120.469L121.619 119.398L132.592 117.388L132.777 118.458L121.803 120.469Z" fill="#D87716"/>
<path d="M122.186 128.425L122.002 127.355L131.544 125.605L131.728 126.676L122.186 128.425Z" fill="#D87716"/>
<path d="M122.039 136.156L121.855 135.085L132.351 133.162L132.536 134.233L122.039 136.156Z" fill="#D87716"/>
<path d="M123.587 142.293L123.402 141.223L134.853 139.125L135.037 140.195L123.587 142.293Z" fill="#D87716"/>
<path d="M127.787 149.549L127.603 148.479L139.052 146.38L139.237 147.451L127.787 149.549Z" fill="#D87716"/>
<path d="M130.766 155.424L130.581 154.354L141.077 152.43L141.261 153.501L130.766 155.424Z" fill="#D87716"/>
<path d="M134.06 160.277L133.875 159.207L145.326 157.109L145.511 158.179L134.06 160.277Z" fill="#D87716"/>
<path d="M138.732 164.558L138.548 163.487L149.521 161.476L149.706 162.547L138.732 164.558Z" fill="#D87716"/>
<path d="M146.215 168.002L146.031 166.931L155.572 165.183L155.757 166.254L146.215 168.002Z" fill="#D87716"/>
<path d="M132.992 134.46C132.815 133.634 132.654 132.802 132.51 131.962C130.606 120.887 131.819 109.908 135.927 101.048C140.127 91.9889 146.856 86.1914 154.876 84.7218C162.895 83.2519 171.146 86.3049 178.108 93.3173C184.918 100.178 189.72 110.067 191.622 121.129C195.585 144.191 185.552 165.383 169.256 168.37C161.236 169.839 152.985 166.786 146.023 159.774C139.729 153.434 135.153 144.517 132.992 134.46ZM188.634 119.165C186.551 109.466 182.162 100.892 176.135 94.8217C169.762 88.403 162.344 85.5845 155.248 86.8846C148.15 88.185 142.125 93.4675 138.281 101.758C134.346 110.247 133.191 120.81 135.029 131.5C136.863 142.193 141.472 151.697 147.996 158.27C154.369 164.689 161.786 167.507 168.883 166.207C183.791 163.475 192.861 143.46 189.103 121.591C188.962 120.775 188.807 119.966 188.634 119.165Z" fill="#FDC25C"/>
<path d="M140.242 132.318C140.099 131.652 139.969 130.982 139.853 130.305C138.314 121.379 139.263 112.536 142.525 105.406C145.859 98.1154 151.218 93.4565 157.613 92.2871C164.008 91.117 170.596 93.591 176.163 99.2526C181.608 104.792 185.456 112.766 186.993 121.682C190.196 140.268 182.229 157.322 169.232 159.7C162.837 160.87 156.249 158.396 150.682 152.734C145.65 147.616 141.984 140.423 140.242 132.318ZM184.606 120.094C182.927 112.277 179.411 105.362 174.592 100.461C169.496 95.279 163.574 92.9954 157.914 94.0303C152.254 95.0655 147.457 99.3106 144.405 105.983C141.28 112.814 140.377 121.322 141.862 129.937C143.344 138.555 147.038 146.219 152.255 151.526C157.35 156.708 163.273 158.992 168.932 157.957C180.821 155.782 188.022 139.674 184.985 122.049C184.871 121.392 184.745 120.74 184.606 120.094Z" fill="#FDC25C"/>
</g>
</svg>
