<svg width="143" height="76" viewBox="0 0 143 76" fill="none" xmlns="http://www.w3.org/2000/svg">
<g opacity="0.5">
<path d="M143 67.3469C95.3334 38 47.6668 96.6938 0 67.3469C0 47.7822 0 28.2176 0 8.65292C47.6666 38 95.3334 -20.6942 143 8.65292C143 28.2175 143 47.7822 143 67.3469Z" fill="#B1E092"/>
<path d="M63.7632 66.4992C89.0922 58.9759 114.421 48.7626 139.75 62.2788C139.75 58.9883 139.75 55.698 139.75 52.4075C139.75 52.5833 138.465 55.5039 130.194 52.6502C128.126 52.0561 123.541 50.6715 117.826 50.2634C112.111 49.7688 105.266 50.2508 98.6794 51.3805C85.5065 53.7598 73.3675 58.136 73.3675 57.9683C70.1661 60.8193 66.9646 63.6808 63.7632 66.4992Z" fill="#466E2E"/>
<path d="M3.90371 57.9985C4.36338 59.4963 6.16279 60.3768 7.39283 60.3875C8.62288 60.4115 9.94186 60.135 11.1898 61.0365C11.9322 61.5722 12.4752 62.4364 13.2329 62.9031C14.9333 63.9433 16.3909 62.3891 18.1379 62.4155C20.4658 62.4415 22.5991 65.1938 24.9411 65.0222C26.0532 64.9375 26.9735 64.1984 28.0578 63.9326C31.0031 63.2024 33.7686 66.0291 36.8268 65.7784C39.1048 65.5854 41.0962 63.734 43.3488 63.0265C45.8624 62.2356 48.357 62.9473 50.3539 64.0656C52.3507 65.1831 54.0449 66.7077 56.1342 67.6032C56.3711 67.7045 56.7024 67.7714 56.9245 67.528C57.1468 67.2847 56.706 66.9818 56.6356 67.2799C56.3687 67.3513 56.2931 68.882 56.0264 68.9528C38.3237 73.6366 20.6209 75.6924 2.91821 66.1005C3.2466 63.4037 3.57516 60.7032 3.90371 57.9985Z" fill="#466E2E"/>
<path d="M140.442 63.6138C94.4807 38.2985 48.519 91.9111 2.55737 66.596C2.55737 48.4371 2.55737 30.2783 2.55737 12.1195C48.5191 37.4348 94.4809 -16.1778 140.442 9.13747C140.442 27.296 140.442 45.4548 140.442 63.6138ZM3.94234 65.9499C48.9807 89.2184 94.019 38.2211 139.057 61.4894C139.057 44.254 139.057 27.0186 139.057 9.78318C94.019 -13.4851 48.9807 37.512 3.94234 14.2435C3.94234 31.4789 3.94234 48.7143 3.94234 65.9499Z" fill="#426A2B"/>
<path d="M3.46836 18.906C48.9118 42.9115 94.3552 -9.22125 139.798 15.0829C139.798 13.2153 139.798 11.3478 139.798 9.48024C94.2822 -14.8628 48.7662 37.476 3.25 13.1875C3.32279 15.0939 3.39558 16.9999 3.46836 18.906Z" fill="#466E2E"/>
<path d="M128.06 16.0099C113.653 12.1193 99.2462 14.5907 84.8396 18.5625C84.8396 17.4952 84.8396 16.4281 84.8396 15.3608C99.2462 11.389 113.653 8.91771 128.06 12.8082C128.06 13.8753 128.06 14.9426 128.06 16.0099Z" fill="#85B259"/>
<path d="M124.325 19.2316C112.675 16.9453 101.025 18.5446 89.375 21.4584C89.375 20.5098 89.375 19.561 89.375 18.6124C101.025 15.6986 112.675 14.0995 124.325 16.3857C124.325 17.3344 124.325 18.283 124.325 19.2316Z" fill="#85B259"/>
<path d="M36.2837 33.227C27.1239 33.9946 17.964 33.1608 8.8042 29.4763C8.8042 28.5277 8.8042 27.579 8.8042 26.6304C17.964 30.3149 27.1239 31.1485 36.2837 30.381C36.2837 31.3296 36.2837 32.2782 36.2837 33.227Z" fill="#85B259"/>
<path d="M14.4067 43.5687C14.4067 39.5849 17.6318 37.326 21.6101 37.877C25.5883 38.4436 28.8135 41.6676 28.8135 45.6566C28.8135 49.6242 25.5885 52.8503 21.6101 52.2836C17.6318 51.7326 14.4067 47.5415 14.4067 43.5687Z" fill="#759745"/>
<path d="M99.7798 30.923C99.7798 26.8063 103.124 22.8599 107.25 22.5426C111.376 22.213 114.72 25.701 114.72 29.8234C114.72 33.9524 111.376 37.1535 107.25 37.4829C103.124 37.8004 99.7798 35.0576 99.7798 30.923Z" fill="#759745"/>
<path d="M98.8904 36.4079C98.4161 36.4897 97.9418 36.5747 97.4675 36.663C97.4675 32.2164 97.4675 27.7698 97.4675 23.3234C97.9418 23.2352 98.4161 23.1502 98.8904 23.0684C98.8904 27.5149 98.8904 31.9613 98.8904 36.4079Z" fill="#759745"/>
<path d="M116.499 35.2367C116.025 35.2092 115.55 35.1872 115.076 35.1706C115.076 30.724 115.076 26.2774 115.076 21.8311C115.55 21.8477 116.025 21.8698 116.499 21.8972C116.499 26.3438 116.499 30.7903 116.499 35.2367Z" fill="#759745"/>
<path d="M112.792 43.6632C112.52 43.8183 112.205 44.08 112.304 44.3757C112.414 44.7027 112.88 44.6737 113.197 44.8143C113.882 45.1189 113.762 46.1382 113.406 46.7911C113.202 47.1652 112.966 47.6524 113.244 47.9789C113.414 48.1782 113.704 48.2124 113.964 48.2344C114.847 48.3061 115.902 48.3318 116.395 47.6256C116.52 47.446 116.595 47.2308 116.74 47.0683C117.34 46.3936 118.467 47.047 119.246 47.6376C120.557 48.6189 122.454 49.4275 123.566 48.5376C123.886 48.2791 124.101 47.8954 124.468 47.707C125.176 47.3426 126.179 47.8487 126.902 48.5117C127.624 49.1738 128.237 50.0033 129.047 50.5523C130.835 51.7509 133.044 50.9072 132.942 48.9595C132.841 46.9968 130.576 44.7432 128.777 44.9121C127.982 44.9798 127.277 45.4097 126.43 45.2114C125.529 45.0019 124.799 44.1645 124.011 43.5761C122.522 42.459 120.58 42.2457 119.15 43.03C118.443 43.414 117.606 44.0194 116.875 43.5558C116.635 43.4035 116.47 43.1589 116.268 42.9579C115.042 41.7325 113.899 43.0302 112.792 43.6632Z" fill="#759745"/>
<path d="M121.39 41.5027C111.608 40.1157 101.825 41.3158 92.043 43.5815C92.043 42.7514 92.043 41.9214 92.043 41.0913C101.825 38.8258 111.608 37.6255 121.39 39.0125C121.39 39.8424 121.39 40.6725 121.39 41.5027Z" fill="#85B259"/>
<path d="M37.6174 45.9544C37.6174 31.2233 48.3676 18.0974 61.6287 14.0346C74.8896 10.0066 85.64 18.7631 85.64 33.6837C85.64 48.3794 74.8898 63.6316 61.6287 67.6596C48.3676 71.7224 37.6174 60.8397 37.6174 45.9544Z" fill="#85B259"/>
<path d="M62.3878 67.4237C62.5177 67.3812 62.6477 67.3378 62.7771 67.2929C62.8487 67.2681 62.9201 67.2426 62.9913 67.217C63.1119 67.174 63.2323 67.13 63.3524 67.0849C63.4247 67.0579 63.4969 67.0307 63.569 67.0028C63.6927 66.9552 63.8158 66.906 63.9389 66.8562C64.0047 66.8297 64.0707 66.8035 64.1364 66.7764C64.2937 66.7113 64.4505 66.6443 64.6067 66.5759C64.6365 66.563 64.6664 66.5506 64.696 66.5375C64.878 66.4571 65.0591 66.3741 65.2399 66.2894C65.3079 66.2574 65.3756 66.2244 65.4434 66.1918C65.5587 66.1365 65.6739 66.0807 65.7887 66.0237C65.8665 65.985 65.9441 65.9455 66.0218 65.9061C66.1267 65.8527 66.2313 65.7988 66.3357 65.7438C66.4158 65.7018 66.4959 65.6595 66.5757 65.6166C66.6782 65.5615 66.7803 65.5054 66.8823 65.4489C66.9614 65.4052 67.0406 65.3617 67.1194 65.3171C67.2299 65.2546 67.3398 65.1904 67.4498 65.1265C67.5428 65.0723 67.636 65.018 67.7287 64.9626C67.8695 64.8784 68.01 64.7934 68.1499 64.7066C68.2357 64.6534 68.3209 64.5988 68.4064 64.5446C68.4941 64.489 68.5819 64.4333 68.6693 64.3767C68.7601 64.3179 68.8506 64.258 68.9409 64.198C69.0213 64.1446 69.1018 64.0908 69.1819 64.0368C69.2752 63.9737 69.3684 63.9101 69.4611 63.8458C69.5361 63.7939 69.6106 63.7414 69.6852 63.6888C69.7812 63.6213 69.8771 63.5538 69.9723 63.4849C70.0373 63.438 70.1019 63.3902 70.1665 63.3427C70.5301 63.0763 70.8896 62.8018 71.2445 62.519C71.2964 62.4776 71.3484 62.4368 71.4 62.3952C71.5056 62.3101 71.6105 62.2237 71.7152 62.1374C71.7692 62.0928 71.8231 62.0483 71.8768 62.0034C71.9822 61.9153 72.0873 61.8265 72.1919 61.7369C72.2406 61.6952 72.2892 61.6532 72.3377 61.611C72.4475 61.516 72.5572 61.4206 72.6662 61.324C72.6953 61.2983 72.724 61.2721 72.753 61.2461C73.1451 60.8961 73.531 60.5364 73.91 60.1677C73.9282 60.1499 73.9468 60.1324 73.965 60.1145C74.0801 60.0021 74.194 59.8885 74.308 59.7745C74.3405 59.7421 74.3729 59.7094 74.4054 59.6768C74.5168 59.5644 74.6275 59.4513 74.7376 59.3373C74.7677 59.3062 74.7974 59.2749 74.8275 59.2438C74.9421 59.1242 75.0564 59.0042 75.1698 58.8831C75.1802 58.872 75.1904 58.8608 75.2008 58.8498C75.5913 58.4312 75.9734 58.0032 76.3468 57.566C74.8188 54.8336 71.9035 53.2245 68.5061 53.2606C61.6378 56.1332 54.0081 55.8526 48.9612 52.1861C48.7527 52.0363 48.5284 51.8759 48.246 51.894C47.9881 51.9103 47.7336 52.0729 47.499 52.2344C45.9456 53.3199 42.51 55.9829 40.3298 58.0248C44.3363 66.1258 52.3699 70.4162 61.629 67.6596C61.8212 67.6038 62.0126 67.5449 62.2038 67.484C62.2652 67.4645 62.3264 67.4437 62.3878 67.4237Z" fill="#729343"/>
<path d="M68.8675 50.559C68.3019 52.7426 69.8642 54.6876 68.6351 56.7524C68.0351 57.7602 66.9479 58.4036 65.9306 58.7741C62.225 60.1256 58.8842 58.811 55.8753 57.4283C54.347 56.728 52.771 55.9603 51.8493 54.5333C50.6157 52.6224 50.768 49.8191 51.6583 47.2495C52.5487 44.6787 54.0988 42.2542 55.6282 39.8442C60.0414 43.5367 64.4545 47.0617 68.8675 50.559Z" fill="#85B259"/>
<path d="M77.6388 33.8174C78.5935 35.8311 81.2428 36.5722 81.4853 38.9883C81.7165 41.2864 79.6086 43.9222 79.4465 46.3452C79.3484 47.8125 79.9361 49.2636 79.0751 50.6753C78.5072 51.6064 77.4985 52.1648 76.5704 52.6522C74.6852 53.6405 71.4438 55.1844 69.8993 54.4999C68.5538 53.904 67.2335 52.709 67.4983 50.9668C67.763 49.2259 70.5692 46.3711 71.2379 44.6205C72.6586 40.903 73.4968 37.0622 73.248 33.5727C72.9992 30.0827 71.6003 26.9693 69.0422 25.2583C70.9782 25.7914 74.7755 25.0816 76.2434 26.3064C78.0085 27.7777 76.6543 31.7378 77.6388 33.8174Z" fill="#729343"/>
<path d="M62.4293 18.337C69.3658 16.2813 74.9685 20.9086 75.5021 25.2999C76.0358 29.6729 75.5021 30.9024 76.0356 35.5423C76.5692 40.179 72.834 50.3936 68.8322 52.6934C64.8303 54.9927 60.8285 52.9729 58.1606 51.0344C55.4927 49.1012 53.8919 46.5579 53.8919 46.5601C53.8919 46.5593 53.0914 48.099 51.7575 47.8829C50.4235 47.6647 49.8899 44.5771 49.8899 44.5784C49.8899 44.5745 49.8899 32.8496 52.0241 27.5432C54.1587 22.2953 62.4293 18.3741 62.4293 18.337Z" fill="#9EC979"/>
<path d="M54.2722 35.2745C53.8746 37.3234 52.4944 39.2369 51.4314 41.1635C50.3683 43.0911 49.5978 45.431 50.5144 46.9872C51.1615 48.0866 52.6067 48.7364 52.4259 50.1699C52.1416 52.4441 48.2707 53.4804 47.9831 55.7087C47.8675 56.6119 48.4292 57.4219 48.0911 58.3122C47.5095 59.8499 45.346 59.6135 44.2251 58.7654C40.2901 55.7832 38.5725 49.3614 41.907 44.7234C42.6548 43.6724 43.6115 42.7398 44.2391 41.6057C45.1832 39.8991 45.2679 37.9878 45.6147 36.1505C46.4517 31.7112 49.0184 27.3109 52.6096 23.9573C56.2747 20.5402 60.4799 17.8816 64.8299 17.8911C61.0949 19.539 59.5592 19.9485 57.093 21.9782C51.7574 26.3157 55.2906 30.0188 54.2722 35.2745Z" fill="#729343"/>
</g>
</svg>
