<svg width="270" height="301" viewBox="0 0 270 301" fill="none" xmlns="http://www.w3.org/2000/svg">
<g opacity="0.2">
<path d="M-73.1504 235.89C-125.922 216.83 -116.689 151.172 -84.6781 132.607C-52.667 114.003 -71.2707 108.67 -69.2033 84.9233C-67.0966 61.2173 -22.0116 41.2529 -22.0116 41.2529C-22.0116 41.2529 -59.7248 62.1228 -44.8465 87.2347C-30.0086 112.386 -9.05847 137.229 -31.1377 159.087C-53.217 180.944 0.149212 189.499 -5.36104 211.203C-10.9118 232.947 -73.1504 235.89 -73.1504 235.89Z" fill="#FC0001"/>
<path d="M122.613 268.574C239.569 258.393 228.642 222.507 211.245 189.511C193.849 156.516 218.294 117.727 209.526 103.22C200.798 88.7133 200.798 88.7133 200.798 88.7133C200.798 88.7133 209.972 108.165 201.803 123.418C193.593 138.67 151.304 174.766 146.862 207.916C142.38 241.066 120.61 269.022 120.61 269.022L122.613 268.574Z" fill="#FC0001"/>
<path d="M94.9695 242.835C87.6498 278.93 65.4406 274.46 43.3966 277.718C42.5428 277.865 41.6757 278.012 40.7953 278.158C14.7385 282.831 -27.6382 278.899 -33.3239 250.339C-71.156 60.4006 69.2826 71.1579 50.4798 3.65149C89.4016 46.8817 52.9188 79.0409 68.0511 124.787C79.2861 158.727 105.908 188.792 94.9695 242.835Z" fill="#FC0001"/>
<path d="M85.8372 158.425C64.9628 117.652 81.9451 97.6311 92.8977 83.1364C103.851 68.602 105.201 58.3066 105.201 58.3066C105.201 58.3066 118.467 76.3453 105.066 94.428C91.6659 112.471 100.675 124.114 102.213 128.12C93.2567 139.896 85.8372 158.425 85.8372 158.425Z" fill="#FC0001"/>
<path d="M92.7292 175.613C67.9872 126.419 78.6982 103.955 88.3488 96.5308C97.9987 89.146 101.227 86.8041 101.227 86.8041C101.227 86.8041 84.2341 104.834 91.1729 118.836C98.1522 132.799 119.694 128.378 119.694 128.378L92.7292 175.613Z" fill="#FB6D01"/>
<path d="M78.2464 275.007C43.8498 249.727 66.4428 203.9 92.0648 147.605C107.991 112.633 137.589 95.1874 137.589 95.1874C137.589 95.1874 128.461 145.633 150.971 164.844C172.062 182.839 203.735 227.714 179.327 263.955C156.594 297.672 78.2464 275.007 78.2464 275.007Z" fill="#FC0001"/>
<path d="M239.305 276.232C286.448 246.66 261.204 207.136 244.487 192.99C227.81 178.844 223.544 164.921 223.544 164.921C223.544 164.921 219.003 175.129 221.687 190.661C225.805 214.539 169.059 218.639 168.059 253.872C167.02 289.064 239.305 276.232 239.305 276.232Z" fill="#FC0001"/>
<path d="M-39.4181 268.33C0.802492 247.975 -14.0139 197.056 -36.8807 180.349C-59.7081 163.683 -64.5103 145.57 -64.5103 145.57C-64.5103 145.57 -128.867 181.101 -115.262 224.873C-101.618 268.686 -77.7276 272.822 -60.9309 273.469C-44.1348 274.155 -39.4181 268.33 -39.4181 268.33Z" fill="#FC0001"/>
<path d="M40.8621 281.743C-85.1974 270.442 -46.1289 147.036 -9.75742 108.901C16.4775 81.3701 16.7584 86.6713 46.5928 64.0918C58.1391 55.3411 58.3809 38.9756 58.3809 38.9756C58.3809 38.9756 69.0236 58.9669 51.8259 80.0603C34.5888 101.113 17.6947 134.08 36.2607 158.171C54.7869 182.261 51.8671 177.24 50.8911 175.752C49.9151 174.264 33.3627 151.676 38.7218 123.995C43.9499 97.0697 61.7714 79.6895 61.7714 79.6895C61.7714 79.6895 57.2749 113.835 62.9357 133.274C68.6365 152.715 79.6751 145.908 96.8811 191.805C114.087 237.701 101.389 256.83 80.3841 265.441C59.3788 274.052 40.8621 281.743 40.8621 281.743Z" fill="#FB6D01"/>
<path d="M108.933 251.485C43.7588 220.771 104.255 130.42 124.95 110.374C145.605 90.3672 113.159 133.021 134.133 161.608C155.068 190.195 193.996 214.069 188.546 245.213C183.135 276.398 136.407 275.19 105.131 273.772C73.8154 272.313 108.933 251.485 108.933 251.485Z" fill="#FB6D01"/>
<path d="M77.6602 282.287C-7.39823 286.965 -52.6092 250.611 -33.2213 183.948C-13.8732 117.284 19.6944 101.411 19.6944 101.411C19.6944 101.411 0.421043 127.89 12.2545 167.255C24.0886 206.58 48.6231 229.286 65.0854 225.547C53.2179 220.911 38.5314 215.237 30.2217 196.754C16.7322 166.804 19.5438 144.024 19.5438 144.024C19.5438 144.024 24.4986 178.827 58.1568 189.241C79.6153 195.891 99.4862 218.129 92.2234 236.86C85.0006 255.592 77.6602 282.287 77.6602 282.287Z" fill="#EFA204"/>
<path d="M54.0585 96.4623C42.7058 124.532 42.2586 154.794 61.3842 173.437C80.4705 192.04 87.7944 201.587 87.7944 201.587C87.7944 201.587 83.1426 178.697 68.0517 157.167C52.9614 135.596 54.0585 96.4623 54.0585 96.4623Z" fill="#FACF67"/>
<path d="M229.695 186.319C286.462 245.704 264.123 277.077 220.847 279.942C177.572 282.768 176.016 252.994 207.194 228.642C238.372 204.29 229.695 186.319 229.695 186.319Z" fill="#FB6D01"/>
<path d="M191.484 149.073C152.389 204.015 146.488 233.201 164.51 256.289C182.572 279.377 203.329 287.609 213.567 267.408C223.805 247.248 213.006 205.429 199.326 188.34C185.686 171.291 191.484 149.073 191.484 149.073Z" fill="#FB6D01"/>
<path d="M60.9398 235.92C-16.8593 219.397 -3.02556 123.379 -3.02556 123.379C-3.02556 123.379 -55.4941 175.654 -35.8102 224.056C-16.1662 272.458 32.3599 287.074 64.3156 277.629C96.2712 268.184 109.705 231.662 88.0972 213.5C66.5294 195.339 54.5448 198.627 54.5448 198.627C54.5448 198.627 74.274 208.835 73.0639 223.195C71.8537 237.555 60.9398 235.92 60.9398 235.92Z" fill="#FACF67"/>
<path d="M-26.2475 182.06C-15.5212 228.816 42.1503 229.668 56.6195 258.159C71.1285 286.651 91.3808 293.88 35.8471 286.13C-19.7259 278.339 -27.1264 241.549 -29.2344 216.705C-31.3829 191.901 -26.2475 182.06 -26.2475 182.06Z" fill="#FCE8B3"/>
<path d="M111.601 138.454C83.8984 195.078 93.3968 224.969 107.099 240.545C120.801 256.121 68.4209 267.255 111.107 271.869C153.793 276.442 180.511 283.807 194.203 267.64C207.855 251.473 219.113 229.814 203.039 207.273C186.965 184.692 183.076 177.705 183.076 177.705C183.076 177.705 165.412 195.286 171.518 219.671C177.624 244.096 175.648 210.333 140.74 184.527C105.833 158.721 111.601 138.454 111.601 138.454Z" fill="#EFA204"/>
<path d="M242.304 208.331C268.973 251.38 256.86 266.096 233.866 274.16C210.873 282.264 209.794 287.704 185.573 278.903C161.352 270.102 187.643 238.788 212.128 229.71C236.653 220.634 242.304 208.331 242.304 208.331Z" fill="#EFA204"/>
<path d="M123.212 160.451C113.062 174.679 98.6492 207.204 105.36 223.154C117.431 251.809 79.6131 250.056 74.9377 263.886C70.2623 277.717 78.0729 286.754 114.856 288.293C151.6 289.832 179.619 279.333 176.488 253.478C173.396 227.664 144.512 199.438 144.512 199.438C144.512 199.438 147.779 213.386 143.707 218.782C141.916 221.146 131.368 213.622 127.984 207.637C116.701 187.716 123.212 160.451 123.212 160.451Z" fill="#FACF67"/>
<path d="M188.785 196.627C212.405 246.083 212.262 288.219 182.989 286.313C153.676 284.406 174.62 247.517 179.715 237.675C184.851 227.834 188.785 196.627 188.785 196.627Z" fill="#FACF67"/>
<path d="M172.633 211.762C172.633 211.762 163.978 192.318 172.696 175.082C181.414 157.846 187.412 154.47 187.412 154.47C187.412 154.47 177.151 176.143 175.492 188.505C173.792 200.866 172.633 211.762 172.633 211.762Z" fill="#FACF67"/>
<path d="M185.573 278.903C255.598 283.92 249.807 238.193 246.909 231.698C244.011 225.203 244.011 225.203 244.011 225.203C244.011 225.203 246.755 242.13 224.927 238.821C203.1 235.511 190.121 241.294 182.924 255.565C175.767 269.837 185.573 278.903 185.573 278.903Z" fill="#FACF67"/>
<path d="M-6.63107 64.8189C1.95015 89.2404 -5.73688 106.969 -15.8724 120.202C-26.008 133.434 -29.6525 142.341 -29.6525 142.341C-29.6525 142.341 -30.4373 127.912 -19.2605 111.748C-8.08303 95.5442 -6.63107 64.8189 -6.63107 64.8189Z" fill="#FACF67"/>
<path d="M156.256 177.308C134.228 155.158 158.488 126.243 158.488 126.243C158.488 126.243 153.571 156.439 162.518 156.093C171.465 155.708 163.344 135.276 163.344 135.276C163.344 135.276 177.006 150.851 172.397 160.182C167.788 169.553 162.274 183.371 156.256 177.308Z" fill="#FC0001"/>
<path d="M164.482 125.853C171.167 111.057 157.951 108.552 161.434 97.0531C163.493 90.1137 169.589 82.7959 169.589 82.7959C169.589 82.7959 142.727 98.6884 155.776 109.834C161.649 114.899 164.482 125.853 164.482 125.853Z" fill="#FC0001"/>
<path d="M80.6009 218.328C102.237 234.539 91.0382 252.216 77.4269 262.928C63.8556 273.64 50.8438 278.904 47.4816 271.406C44.1193 263.909 45.7202 255.529 45.7202 255.529C45.7202 255.529 54.6855 256.657 68.7287 246.43C82.8112 236.243 80.6009 218.328 80.6009 218.328Z" fill="#FCE8B3"/>
<path d="M-72.0368 184.848C-106.855 220.537 -99.8871 286.594 -63.0673 285.664C-26.2868 284.694 19.759 264.545 -25.6938 244.557C-50.4823 233.637 -72.0368 184.848 -72.0368 184.848Z" fill="#FCE8B3"/>
<path d="M-87.3529 246.115C-115.09 240.249 -133.108 214.175 -133.108 214.175C-133.108 214.175 -136.932 237.935 -122.766 254.513C-108.6 271.092 -106.02 266.669 -106.02 266.669C-106.02 266.669 -146.791 267.54 -157.653 262.441C-149.806 269.009 -144.028 280.485 -111.759 284.945C-79.5289 289.364 -56.5133 279.787 -56.5133 279.787C-56.5133 279.787 -58.0888 283.746 -19.3316 286.788C19.3856 289.83 27.8685 288.481 24.0309 278.03C20.194 267.538 -8.19069 273.053 -38.6579 249.304C-69.1251 225.555 -87.3529 246.115 -87.3529 246.115Z" fill="#FCE8B3"/>
<path d="M117.129 202.021C103.254 230.571 104.854 257.399 134.989 271.226C165.084 285.052 179.284 266.902 172.603 248.96C165.882 231.018 154.128 221.406 154.128 221.406C154.128 221.406 163.589 253.806 146.696 251.565C129.843 249.324 117.129 202.021 117.129 202.021Z" fill="#FCE8B3"/>
<path d="M181.154 275.373C184.112 242.678 206.404 246.99 219.847 247.667C233.249 248.383 239.774 244.496 239.774 244.496C239.774 244.496 241.454 265.869 222.389 275.504C203.365 285.14 181.154 275.373 181.154 275.373Z" fill="#FCE8B3"/>
<path d="M192.598 273.551C160.927 298.891 71.3438 304.497 58.6649 289.932C45.946 275.367 69.2475 246.438 104.795 261.341C140.383 276.244 141.831 278.257 161.389 267.633C180.907 257.009 192.142 236.863 192.274 227.943C192.407 218.984 196.525 242.862 193.823 258.195C191.122 273.529 191.122 273.529 191.122 273.529L192.598 273.551Z" fill="#FCE8B3"/>
<path d="M-4.85797 179.867C-25.7106 153.83 4.26972 134.877 4.26972 134.877C4.26972 134.877 -12.3902 151.996 0.799861 167.086C14.0305 182.137 4.69866 205.816 4.69866 205.816C4.69866 205.816 2.00176 188.411 -4.85797 179.867Z" fill="#FCE8B3"/>
<path d="M225.571 230.387C243.094 219.733 239.805 207.298 233.968 199.764C228.091 192.27 227.692 186.807 227.692 186.807C227.692 186.807 227.981 199.676 232.838 208.709C237.655 217.701 225.571 230.387 225.571 230.387Z" fill="#FCE8B3"/>
</g>
</svg>
