<svg width="145" height="85" viewBox="0 0 145 85" fill="none" xmlns="http://www.w3.org/2000/svg">
<g opacity="0.6">
<path d="M132.539 0.289744L0 30.3091L12.3214 84.7094L144.86 54.69L132.539 0.289744Z" fill="#B1E092"/>
<path d="M70.7461 68.3488L141.174 52.3962L139.101 43.2471C139.101 43.2471 138.806 47.4734 131.141 49.2096C123.475 50.9459 78.4717 61.1397 78.4717 61.1397L70.7461 68.3488Z" fill="#466E2E"/>
<path d="M13.5112 73.17C14.1997 74.2324 15.8654 73.8455 16.8981 73.1133C17.9308 72.381 18.9869 71.3693 20.2414 71.54C20.9879 71.6415 21.6353 72.1638 22.3864 72.2215C24.0725 72.3509 25.0193 70.2595 26.5675 69.5791C28.6305 68.6725 31.1222 70.4963 33.2149 69.6603C34.2085 69.2634 34.8955 68.3367 35.8369 67.8283C38.3939 66.447 41.5698 68.572 44.409 67.9509C46.5239 67.4882 48.0361 65.5982 50.0527 64.8105C52.3028 63.9317 54.8725 64.5454 57.0536 65.5841C59.2346 66.6228 61.2132 68.0702 63.4536 68.9734C63.7077 69.0759 64.0472 69.1504 64.2147 68.9337C64.3821 68.717 63.8851 68.4186 63.8785 68.6924C63.6312 68.7485 63.8782 70.1643 63.6309 70.2204L14.4082 81.37L13.5112 73.17Z" fill="#466E2E"/>
<path d="M14.2196 82.0879L2.78271 31.5969L130.58 2.64941L142.017 53.1405L14.2196 82.0879ZM4.35748 32.59L15.2126 80.5134L140.442 52.1474L129.587 4.22399L4.35748 32.59Z" fill="#426A2B"/>
<path d="M4.94886 37.2402L131.305 8.619L130.129 3.42627L3.57031 32.0932L4.94886 37.2402Z" fill="#466E2E"/>
<path d="M120.929 13.2942L80.8706 22.3672L81.5427 25.3345L121.601 16.2615L120.929 13.2942Z" fill="#85B259"/>
<path d="M118.405 18.2325L86.0117 25.5693L86.6092 28.2071L119.002 20.8703L118.405 18.2325Z" fill="#85B259"/>
<path d="M36.4673 35.227L10.998 40.9956L11.5955 43.6334L37.0647 37.8647L36.4673 35.227Z" fill="#85B259"/>
<path d="M32.0702 55.4531C33.8607 52.123 32.6127 47.972 29.2827 46.1815C25.9526 44.391 21.8016 45.6389 20.0111 48.969C18.2206 52.299 19.4686 56.45 22.7986 58.2406C26.1286 60.0311 30.2796 58.7831 32.0702 55.4531Z" fill="#759745"/>
<path d="M112.001 38.3443C113.709 34.8153 112.232 30.57 108.703 28.8622C105.174 27.1543 100.929 28.6306 99.2212 32.1596C97.5134 35.6885 98.9898 39.9338 102.519 41.6417C106.048 43.3495 110.293 41.8733 112.001 38.3443Z" fill="#759745"/>
<path d="M96.1923 29.5753L94.8735 29.874L97.6738 42.2377L98.9926 41.939L96.1923 29.5753Z" fill="#759745"/>
<path d="M112.513 25.8859L111.194 26.1846L113.995 38.5482L115.313 38.2495L112.513 25.8859Z" fill="#759745"/>
<path d="M113.666 46.9243C113.447 47.1252 113.209 47.4314 113.364 47.6855C113.534 47.9665 113.96 47.8435 114.283 47.9048C114.981 48.0373 115.083 49.0076 114.892 49.6916C114.782 50.0828 114.666 50.585 114.991 50.8277C115.19 50.9759 115.465 50.9439 115.71 50.9051C116.541 50.7734 117.514 50.5326 117.817 49.7473C117.893 49.5481 117.917 49.3289 118.015 49.1393C118.423 48.356 119.586 48.6427 120.414 48.9488C121.808 49.4643 123.678 49.559 124.478 48.3061C124.708 47.9449 124.817 47.5071 125.103 47.1879C125.654 46.5728 126.643 46.6247 127.414 46.9207C128.185 47.2168 128.893 47.7062 129.71 47.828C131.513 48.0973 133.211 46.0902 132.715 44.3358C132.218 42.5815 129.82 41.7356 128.291 42.7292C127.617 43.1675 127.092 43.8857 126.308 44.0664C125.474 44.2587 124.653 43.7779 123.831 43.5374C122.278 43.083 120.491 43.5507 119.36 44.7078C118.8 45.2797 118.166 46.0812 117.401 45.8478C117.15 45.771 116.947 45.5881 116.721 45.4543C115.341 44.6375 114.559 46.1049 113.666 46.9243Z" fill="#759745"/>
<path d="M120.536 40.2534L93.3359 46.4141L93.8587 48.7221L121.059 42.5614L120.536 40.2534Z" fill="#85B259"/>
<path d="M68.8815 69.2998C81.1723 66.516 88.6161 53.133 85.5075 39.4082C82.3989 25.6833 69.9151 16.8138 57.6242 19.5976C45.3333 22.3815 37.8897 35.7644 40.9983 49.4892C44.1069 63.2141 56.5906 72.0836 68.8815 69.2998Z" fill="#85B259"/>
<path d="M69.5802 69.1189C69.6998 69.0874 69.819 69.0554 69.9375 69.022C70.0031 69.0034 70.0683 68.9843 70.1335 68.9652C70.2438 68.9329 70.3535 68.8998 70.4629 68.8657C70.5287 68.8452 70.5945 68.8246 70.6599 68.8036C70.7721 68.7674 70.8838 68.7299 70.9949 68.6919C71.0544 68.6716 71.1142 68.6519 71.1735 68.631C71.3154 68.5811 71.4565 68.5295 71.5969 68.4765C71.6236 68.4665 71.6506 68.4571 71.6773 68.4469C71.8405 68.3847 72.0023 68.3201 72.1634 68.254C72.224 68.2291 72.2841 68.2031 72.3444 68.1775C72.447 68.1342 72.5493 68.0908 72.651 68.0458C72.72 68.0154 72.7885 67.9843 72.857 67.9531C72.9496 67.911 73.0419 67.8684 73.1339 67.8249C73.2043 67.7916 73.2748 67.7582 73.3447 67.7241C73.4348 67.6803 73.5241 67.6357 73.6134 67.5906C73.6825 67.5557 73.7519 67.5211 73.8205 67.4855C73.9169 67.4356 74.0124 67.3842 74.1079 67.3328C74.1887 67.2892 74.2695 67.2457 74.3498 67.2011C74.4717 67.1334 74.593 67.0648 74.7134 66.9947C74.7873 66.9517 74.8602 66.9073 74.9336 66.8633C75.0089 66.8182 75.0842 66.7733 75.1588 66.7272C75.2364 66.6794 75.3135 66.6306 75.3905 66.5818C75.4591 66.5383 75.5275 66.4945 75.5955 66.4502C75.6747 66.3987 75.7537 66.3467 75.8323 66.294C75.8956 66.2515 75.9586 66.2083 76.0215 66.1652C76.1023 66.1097 76.1833 66.0543 76.2633 65.9977C76.3179 65.9591 76.3717 65.9197 76.426 65.8806C76.7307 65.6609 77.0293 65.4335 77.3219 65.1982C77.3645 65.1638 77.4075 65.1299 77.45 65.0951C77.5368 65.0242 77.6228 64.9523 77.7084 64.8799C77.7526 64.8427 77.7967 64.8054 77.8405 64.7679C77.9264 64.6942 78.0121 64.6197 78.0969 64.5447C78.1365 64.5098 78.1758 64.4744 78.2151 64.4391C78.3041 64.3593 78.3928 64.2792 78.4806 64.1979C78.504 64.1762 78.527 64.1541 78.5503 64.1322C78.8656 63.8373 79.1726 63.5328 79.4709 63.2193C79.4853 63.2041 79.4999 63.1892 79.5143 63.1741C79.6048 63.0784 79.694 62.9817 79.7829 62.8844C79.8082 62.8566 79.8336 62.829 79.8588 62.8011C79.9456 62.7051 80.0316 62.6084 80.1167 62.511C80.14 62.4843 80.1631 62.4576 80.1862 62.4308C80.2748 62.3285 80.3629 62.2256 80.4497 62.1215C80.4576 62.1119 80.4654 62.1023 80.4733 62.0929C80.7723 61.7335 81.0612 61.3645 81.3392 60.9858C79.2524 58.3462 76.0234 56.6322 72.6631 56.4122C66.4523 58.5387 58.8717 57.8928 53.2038 54.5809C52.9696 54.444 52.7178 54.298 52.4475 54.3189C52.2005 54.338 51.9877 54.4933 51.7942 54.6479C50.513 55.6735 47.7586 58.2937 46.1099 60.3929C51.6229 67.4973 60.2977 71.2355 68.8793 69.2917C69.0574 69.2513 69.2342 69.2083 69.4103 69.1635C69.4675 69.1493 69.5238 69.1338 69.5802 69.1189Z" fill="#729343"/>
<path d="M72.4547 53.9349C72.3524 55.9168 74.3094 57.8354 73.5246 59.6579C73.1414 60.5474 72.1991 61.0639 71.2696 61.3361C67.8836 62.3276 64.309 60.9183 61.0636 59.534C59.4151 58.8308 57.7116 58.0891 56.5118 56.758C54.9064 54.9765 54.4666 52.3806 54.7961 50.0052C55.1256 47.6298 56.1331 45.4096 57.1291 43.228L72.4547 53.9349Z" fill="#85B259"/>
<path d="M77.6332 39.0654C79.0019 41.001 81.7769 41.8548 82.5227 44.1051C83.2338 46.2505 81.7042 48.5644 82.0521 50.7977C82.263 52.1512 83.1492 53.5344 82.5937 54.7868C82.2275 55.6124 81.3462 56.0617 80.5293 56.4472C78.8697 57.2303 75.9794 58.4144 74.3047 57.6642C72.8455 57.0107 71.2864 55.8075 71.1829 54.2121C71.0795 52.6166 73.2619 50.1797 73.5575 48.6084C74.1855 45.27 74.2103 41.7729 73.2311 38.5201C72.2519 35.2674 70.211 32.2751 67.3159 30.498C69.3469 31.1364 72.9634 30.7675 74.6741 32.0054C76.7316 33.4945 76.2217 37.069 77.6332 39.0654Z" fill="#729343"/>
<path d="M59.3157 23.6257C65.7448 22.1694 72.2818 26.9277 73.7286 31.0194C75.1753 35.1111 74.9047 36.2121 76.4074 40.5511C77.9102 44.89 76.3526 54.0813 72.8676 55.9106C69.3826 57.7399 65.0014 55.6127 61.9686 53.7001C58.9358 51.7874 56.836 49.4035 56.836 49.4035C56.836 49.4035 56.3742 50.8079 55.0258 50.5934C53.6773 50.379 52.5106 47.5236 52.5106 47.5236C52.5106 47.5236 50.0462 36.6436 51.0162 31.7447C51.9863 26.8456 59.3157 23.6257 59.3157 23.6257Z" fill="#9EC979"/>
<path d="M54.8394 38.9534C54.8796 40.841 53.9295 42.5843 53.2967 44.3631C52.6638 46.142 52.4052 48.315 53.6247 49.7563C54.4858 50.7739 56.0345 51.3945 56.159 52.7217C56.3547 54.8092 52.801 55.7713 52.9936 57.859C53.0711 58.6979 53.7863 59.4395 53.6451 60.2702C53.4022 61.6997 51.2577 61.5395 50.0017 60.8153C45.5915 58.273 42.6161 52.5253 44.8266 47.9398C45.3223 46.9114 46.046 45.9914 46.4128 44.9104C46.9644 43.2841 46.6456 41.512 46.5947 39.7954C46.4715 35.6508 48.0278 31.4803 50.8361 28.4297C53.7023 25.3165 57.2889 23.0613 61.5973 23.3689C58.2476 24.6475 56.8196 24.9491 54.8186 26.7241C50.4888 30.5643 54.7366 34.1191 54.8394 38.9534Z" fill="#729343"/>
</g>
</svg>
