<svg width="269" height="111" viewBox="0 0 269 111" fill="none" xmlns="http://www.w3.org/2000/svg">
<g opacity="0.4">
<g opacity="0.8">
<path d="M1.43433 37.4383C1.43433 37.4383 6.76191 51.3295 2.92434 67.8082C2.92434 67.8082 56.4934 77.535 76.1114 80.6566C95.7306 83.7795 172.689 100.636 172.689 100.636C172.689 100.636 180.596 94.2373 190.989 88.4265C201.383 82.6197 242.613 58.77 242.613 58.77C242.613 58.77 241.73 53.9177 242.922 47.4737C243.673 43.4164 243.594 36.5749 244.376 31.584C244.769 29.0788 244.908 27.3346 244.908 27.3346L73.7711 2.00854L1.43433 37.4383Z" fill="url(#paint0_radial_46313_4234)"/>
<path d="M23.098 39.3552C41.5485 41.2138 125.447 57.744 140.385 59.7124C155.324 61.6815 170.457 66.1068 170.457 66.1068C176.096 61.2852 202.905 47.4135 211.722 43.0389C220.542 38.6644 244.908 27.334 244.908 27.334L73.7711 2.00854L1.43433 37.4383C1.43433 37.4383 4.6441 37.4992 23.098 39.3552Z" fill="url(#paint1_radial_46313_4234)"/>
<path d="M244.92 27.3594C229.161 34.9826 213.291 42.3536 197.783 50.4882C192.467 53.2651 187.167 56.0882 181.948 59.0471C179.56 60.4018 177.161 61.7557 174.853 63.2449C172.661 64.6143 171.48 66.5452 168.942 65.8338C157.078 62.5054 145.071 60.6086 132.928 58.671C123.786 57.2119 114.671 55.5253 105.559 53.8741C91.696 51.3636 77.8444 48.7975 63.9721 46.3325C54.1498 44.5843 44.3241 42.8462 34.4864 41.1783C23.5274 39.3197 12.3573 38.8177 1.43628 37.4088C26.1955 38.6015 50.6001 43.2725 74.9345 47.716C92.7533 50.9681 110.549 54.3426 128.369 57.578C142.496 60.1434 156.646 62.0362 170.499 65.9603C173.993 62.2376 180.881 59.1542 185.672 56.4804C191.292 53.3441 196.957 50.2794 202.691 47.3579C207.299 45.0067 211.923 42.709 216.607 40.5083C225.814 36.1887 235.356 30.5338 244.92 27.3594Z" fill="url(#paint2_linear_46313_4234)"/>
<path d="M217.812 41.5276C213.251 43.6888 208.721 45.8874 204.228 48.1885C192.931 53.9859 180.562 59.5839 170.5 67.428C146.487 60.735 121.342 58.1134 96.8786 53.4705C87.4343 51.6956 77.984 49.946 68.5357 48.1945C46.4446 44.0977 24.4356 40.5351 2.02197 38.8953C2.02932 38.9067 2.03533 38.9201 2.04268 38.9335C8.43151 39.9133 15.2391 40.2533 21.7401 40.9193C29.1141 41.6742 36.4305 43.0402 43.7397 44.2577C57.2059 46.5018 70.6421 48.9923 84.0836 51.3944C97.3755 53.7664 110.652 56.2253 123.929 58.677C131.978 60.1641 140.084 61.3321 148.128 62.8406C154.643 64.0655 161.122 65.5299 167.53 67.2285C170.783 68.0899 170.177 68.1702 172.844 66.4448C174.981 64.9476 177.259 63.6244 179.51 62.3119C200.623 49.9085 222.819 39.5633 244.811 28.8566C235.699 31.9507 226.627 37.3526 217.812 41.5276Z" fill="url(#paint3_linear_46313_4234)"/>
<path d="M218.987 42.5586C212.699 45.5738 206.456 48.6526 200.282 51.9C190.385 57.1024 179.385 62.0605 170.601 69.0734C165.023 67.5896 159.398 66.3266 153.757 65.1018C130.031 59.9509 105.762 56.7042 81.9021 52.2152C55.5694 47.2604 29.3142 42.477 2.58276 40.3848C2.58877 40.4075 2.59612 40.4303 2.60213 40.4551C9.11385 41.4516 16.0169 41.8345 22.6181 42.5399C31.3265 43.4682 40.0175 45.1301 48.6356 46.6748C68.7525 50.2769 88.9001 53.7124 108.986 57.4879C120.069 59.5708 131.183 61.505 142.283 63.4982C147.405 64.4171 152.5 65.3682 157.583 66.4866C160.984 67.2342 164.357 68.0708 167.735 68.9154C170.622 69.6363 170.542 69.7788 172.953 68.0996C187.628 57.8627 204.459 50.1103 220.509 42.2528C228.579 38.2999 236.638 34.323 244.702 30.3534C236.012 33.3471 227.395 38.5322 218.987 42.5586Z" fill="url(#paint4_linear_46313_4234)"/>
<path d="M218.974 44.1547C212.71 47.192 206.483 50.2828 200.327 53.5409C190.465 58.7641 179.478 63.7282 170.707 70.7163C158.15 67.4314 145.439 65.2308 132.663 63.0087C89.5535 55.5126 46.6002 45.4699 2.93433 41.8557C2.93833 41.8845 2.94568 41.9166 2.95303 41.9467C10.8753 43.1796 19.1408 43.5617 27.1472 44.6989C37.381 46.1519 47.5473 48.0406 57.7276 49.8136C75.366 52.887 92.989 56.0541 110.585 59.3504C121.421 61.3817 132.28 63.3046 143.127 65.281C148.256 66.2167 153.358 67.2079 158.451 68.3263C161.683 69.0357 164.902 69.8121 168.108 70.6353C171.414 71.486 171.165 70.9245 174.143 69.0357C189.196 59.4876 205.228 51.3958 221.189 43.4908C228.878 39.6845 237.474 36.3963 244.567 31.7969C236.033 35.911 227.498 40.0212 218.974 44.1547Z" fill="url(#paint5_linear_46313_4234)"/>
<path d="M221.705 44.3999C213.897 48.2309 206.115 52.0941 198.451 56.2136C189.257 61.157 179.038 65.8394 170.816 72.3603C163.03 70.3497 155.178 68.5868 147.259 67.1866C99.5053 58.7642 51.6338 47.5476 3.26147 43.331C3.26882 43.3671 3.27684 43.4053 3.28418 43.4414C11.2478 44.7004 19.5668 45.1381 27.6053 46.302C35.9449 47.5101 44.2452 48.9972 52.5435 50.4583C65.3779 52.7178 78.2123 54.9754 91.0347 57.3059C106.619 60.1396 122.189 63.0444 137.765 65.9237C143.124 66.9149 148.521 67.7897 153.844 68.9636C156.898 69.6369 159.967 70.2607 163.002 71.0103C164.894 71.4782 168.821 73.2284 170.804 72.9714C171.823 72.8402 173.397 71.2365 174.253 70.6984C176.512 69.2755 178.801 67.9102 181.107 66.5655C186.26 63.5644 191.475 60.6751 196.714 57.8239C204.792 53.4206 212.947 49.2 221.172 45.0805C228.828 41.2441 237.397 37.9231 244.458 33.2976C236.872 36.9955 229.283 40.6853 221.705 44.3999Z" fill="url(#paint6_linear_46313_4234)"/>
<path d="M220.986 46.332C212.479 50.5506 204.021 54.8361 195.686 59.3953C187.443 63.905 178.321 68.1349 170.921 74.0047C157.355 70.5524 143.614 68.1751 129.846 65.7114C87.8865 58.208 46.0532 48.7355 3.56079 44.804C3.57014 44.8495 3.57749 44.8991 3.58751 44.9446C13.6984 46.6051 24.2153 47.1512 34.3863 48.876C42.4721 50.2474 50.5493 51.6663 58.6292 53.0698C76.1287 56.1131 93.6001 59.3009 111.06 62.555C120.521 64.3166 129.981 66.0795 139.439 67.8485C144.764 68.8471 150.104 69.7888 155.397 70.9487C158.841 71.7056 162.273 72.4967 165.709 73.3093C167.105 73.6459 169.844 74.8346 171.18 74.5535C172.021 74.3761 173.66 72.7939 174.361 72.3548C176.622 70.9433 178.905 69.5759 181.21 68.2313C186.352 65.2316 191.554 62.3328 196.773 59.4703C204.826 55.0536 212.958 50.8143 221.149 46.664C228.779 42.7988 237.32 39.4416 244.348 34.7914C236.561 38.6345 228.766 42.4709 220.986 46.332Z" fill="url(#paint7_linear_46313_4234)"/>
<path d="M218.934 48.9342C212.092 52.369 205.284 55.848 198.559 59.5097C189.418 64.4913 179.235 69.165 171.029 75.6491C156.456 71.9057 141.623 69.4521 126.834 66.7629C85.9603 59.3297 45.2023 50.3216 3.8125 46.2831C3.81851 46.3286 3.82586 46.3748 3.82986 46.4203C12.6724 47.9042 21.895 48.5313 30.8178 49.8746C38.9243 51.09 46.9828 52.6019 55.0587 54.0041C73.7804 57.2529 92.478 60.6308 111.152 64.1399C120.614 65.9182 130.074 67.6965 139.531 69.4882C144.859 70.4982 150.197 71.4566 155.491 72.6172C158.938 73.3708 162.374 74.1599 165.809 74.9684C167.196 75.2957 169.979 76.5493 171.287 76.1992C171.885 76.0393 172.853 75.0735 173.382 74.7194C188.107 64.6593 204.587 56.7301 220.44 48.6062C228.391 44.5323 236.326 40.4328 244.267 36.3414C235.684 39.4523 227.207 44.7799 218.934 48.9342Z" fill="url(#paint8_linear_46313_4234)"/>
<path d="M216.873 51.5707C208.362 55.8903 199.947 60.3699 191.622 65.0389C184.768 68.8887 177.339 72.4493 171.136 77.2936C156.549 73.5945 141.719 71.0873 126.928 68.3713C86.0852 60.8752 45.3445 51.9809 3.99414 47.751C3.99948 47.7985 4.00549 47.846 4.0095 47.8956C13.2488 49.4952 22.8968 50.21 32.2216 51.6276C40.4077 52.8698 48.5523 54.4252 56.7117 55.8408C76.8152 59.3271 96.8813 62.9982 116.929 66.8005C126.495 68.6129 136.058 70.4407 145.622 72.2766C150.61 73.2317 155.575 74.2778 160.538 75.3641C163.307 75.9725 169.831 79.0084 172.15 77.2829C175.337 74.909 178.943 72.9995 182.371 71.0117C195.109 63.622 208.041 56.6091 221.111 49.8379C228.677 45.9138 237.18 42.4957 244.13 37.7845C235.042 42.3739 225.951 46.9619 216.873 51.5707Z" fill="url(#paint9_linear_46313_4234)"/>
<path d="M218.907 52.124C212.593 55.3668 206.291 58.6195 200.07 62.0396C190.428 67.3351 180.112 72.3775 171.244 78.9393C153.641 74.5266 135.693 71.5898 117.857 68.2841C80.0637 61.2806 42.3605 53.3013 4.10767 49.2106C4.10967 49.2675 4.11101 49.3264 4.11101 49.3853C11.2686 50.6998 18.8455 51.0706 26.0618 52.2519C38.0554 54.2129 50.0276 56.2402 62.0005 58.3137C81.9464 61.7719 101.844 65.4885 121.729 69.2941C130.818 71.0309 139.906 72.7979 148.994 74.5588C155.133 75.7494 161.24 77.1382 167.321 78.5872C169.135 79.0189 170.707 80.0691 172.254 78.9313C173.381 78.1 174.607 77.3986 175.79 76.653C180.245 73.9537 184.741 71.3174 189.279 68.7613C199.807 62.8307 210.388 57.0293 221.089 51.4206C228.628 47.4698 237.103 44.0195 244.021 39.2816C235.646 43.5571 227.272 47.8272 218.907 52.124Z" fill="url(#paint10_linear_46313_4234)"/>
<path d="M218.896 53.7162C212.606 56.9837 206.322 60.2539 200.121 63.6847C190.494 69.0102 180.259 74.0775 171.353 80.5823C153.726 76.2212 135.792 73.2121 117.953 69.8776C80.0931 62.7979 42.3799 55.3419 4.13506 50.6783C4.13506 50.7506 4.13306 50.8208 4.13306 50.8911C11.2392 52.3749 18.951 52.6105 26.1326 53.7958C37.8664 55.7281 49.5862 57.7159 61.3026 59.7432C80.998 63.1479 100.648 66.8076 120.275 70.5945C129.579 72.3895 138.875 74.214 148.174 76.0325C153.74 77.1241 159.291 78.3128 164.808 79.6252C166.505 80.0282 169.997 81.5595 171.606 81.1298C173.002 80.1259 174.44 79.2277 175.897 78.3168C180.35 75.6255 184.837 72.9892 189.362 70.4231C199.859 64.4771 210.412 58.6549 221.069 53.0041C228.578 49.0271 237.024 45.5428 243.91 40.7794C235.57 45.0883 227.228 49.3906 218.896 53.7162Z" fill="url(#paint11_linear_46313_4234)"/>
<path d="M219.526 54.9713C213.986 57.8814 208.436 60.7667 202.958 63.7892C192.521 69.5472 180.957 74.9618 171.455 82.2276C157.537 78.8229 143.448 76.2669 129.376 73.6071C87.7201 65.7463 46.1787 57.4149 4.10967 52.1214C4.10767 52.1328 4.10767 52.1442 4.10767 52.1556C4.11501 52.2105 4.11501 52.268 4.12303 52.3269C10.7737 53.7344 18.0334 53.9801 24.7488 55.0965C35.6965 56.9169 46.6402 58.7582 57.5785 60.6469C79.5648 64.4472 101.496 68.5158 123.402 72.7839C132.23 74.5033 141.051 76.2589 149.873 78.003C156.659 79.3456 163.423 80.881 170.142 82.5161C172.953 83.2008 176.354 79.7733 178.88 78.2594C182.382 76.1631 185.903 74.1051 189.448 72.0872C199.916 66.1258 210.436 60.2808 221.05 54.5898C228.53 50.5801 236.949 47.0636 243.803 42.2761C235.708 46.5054 227.612 50.726 219.526 54.9713Z" fill="url(#paint12_linear_46313_4234)"/>
<path d="M219.103 56.7783C213.254 59.8865 207.398 62.9773 201.613 66.2067C191.597 71.7933 180.604 77.0312 171.432 83.9664C171.579 82.7449 133.208 75.9355 129.47 75.2247C87.8199 67.2856 46.2551 59.0459 4.19946 53.5791C4.20147 53.646 4.20481 53.7123 4.2028 53.7792C10.7245 55.1867 17.8567 55.4719 24.4372 56.5749C35.1171 58.3632 45.7936 60.1663 56.4662 62.0075C77.8453 65.694 99.175 69.606 120.461 73.7924C131.05 75.8753 141.626 77.9923 152.186 80.1962C158.046 81.4211 163.884 82.6766 169.713 84.048C172.763 84.7689 174.423 82.6559 177.073 81.0717C180.344 79.1167 183.62 77.1777 186.912 75.2662C197.841 68.9267 208.861 62.7718 219.964 56.7536C227.771 52.5236 236.499 48.7669 243.693 43.7739C235.494 48.1029 227.291 52.4306 219.103 56.7783Z" fill="url(#paint13_linear_46313_4234)"/>
<path d="M219.103 58.3932C213.266 61.5068 207.428 64.611 201.662 67.8503C195.795 71.1466 189.963 74.5018 184.153 77.8931C180.987 79.7417 173.234 83.0574 171.803 85.5471C156.648 82.1311 141.424 79.1146 126.167 76.1891C85.6092 68.4059 45.1116 60.5089 4.16931 55.0193C4.16597 55.0842 4.16397 55.1465 4.15796 55.2134C10.9662 56.7407 18.427 57.0888 25.3147 58.2507C33.814 59.685 42.3133 61.1059 50.8046 62.5743C72.0281 66.2414 93.2422 69.9653 114.367 74.1618C123.31 75.9381 132.274 77.6408 141.195 79.5161C145.838 80.492 150.478 81.4678 155.119 82.4416C158.14 83.0748 161.17 83.6912 164.178 84.3799C166.072 84.8156 169.932 86.5598 171.798 86.1602C173.14 85.8711 175.131 83.9616 176.35 83.2347C198.45 70.0135 221.099 57.8156 243.611 45.3232C235.282 48.6811 227.143 54.1057 219.103 58.3932Z" fill="url(#paint14_linear_46313_4234)"/>
<path d="M215.835 61.7413C206.402 66.8293 197.065 72.0792 187.814 77.4885C185.314 78.9489 182.803 80.3912 180.319 81.8743C178.015 83.2497 172.822 85.6559 171.909 87.1905C157.87 84.0442 143.78 81.199 129.66 78.4542C87.9151 70.3424 46.2007 62.266 4.07021 56.4492C4.06287 56.5268 4.05686 56.6072 4.05151 56.6848C11.4842 58.4062 19.4806 58.7884 26.9754 60.0607C36.4899 61.6771 46.003 63.2981 55.5121 64.9379C78.2938 68.8693 101.015 73.0537 123.683 77.5982C132.342 79.335 140.997 81.0886 149.638 82.9144C154.019 83.8427 158.407 84.7249 162.778 85.6973C165.071 86.2074 169.648 88.2822 171.902 87.8029C173.251 87.5158 175.244 85.6251 176.46 84.8969C178.089 83.9231 179.714 82.9399 181.348 81.9814C201.888 69.9281 222.738 58.4718 243.502 46.8201C234.116 50.6538 224.873 56.8682 215.835 61.7413Z" fill="url(#paint15_linear_46313_4234)"/>
<path d="M226.539 57.5033C221.787 60.1128 217.019 62.6977 212.258 65.2959C206.434 68.4723 200.663 71.7512 194.92 75.0783C190.545 77.6135 186.166 80.1488 181.812 82.7229C179.436 84.1284 177.069 85.5453 174.708 86.9817C173.949 87.4455 171.825 88.7165 172.014 88.8343C157.967 85.7033 143.877 82.8387 129.752 80.0719C87.9486 71.8757 46.1467 63.8743 3.96545 57.8767C3.96212 57.9336 3.95611 57.9892 3.9541 58.044C10.8345 59.7026 18.4488 60.1363 25.4474 61.333C33.9487 62.788 42.4514 64.241 50.9487 65.7055C72.1909 69.3652 93.4258 73.0684 114.552 77.3405C123.5 79.1496 132.46 80.8937 141.386 82.7878C146.028 83.7751 150.669 84.7603 155.314 85.7435C158.337 86.3846 161.365 87.0084 164.381 87.6911C166.258 88.1168 170.156 89.8576 172 89.4446C172.744 89.2773 173.603 88.3778 174.253 87.9709C196.727 73.8461 220.319 61.4066 243.391 48.3165C237.69 50.6745 232.038 54.4847 226.539 57.5033Z" fill="url(#paint16_linear_46313_4234)"/>
<path d="M225.615 59.5512C219.522 62.9351 213.356 66.2046 207.309 69.6682C201.444 72.9933 195.61 76.3745 189.781 79.7679C186.928 81.4284 184.09 83.1137 181.245 84.7896C180.312 85.3377 172.304 90.593 172.121 90.4766C156.1 86.9273 140.024 83.6973 123.925 80.5154C84.0443 72.6298 44.0951 65.1833 3.8634 59.3022C3.86006 59.3517 3.85606 59.4032 3.85205 59.4541C10.6336 61.1374 18.1765 61.5938 25.0776 62.8019C36.0313 64.7154 46.981 66.6684 57.9474 68.5157C80.0004 72.2282 101.96 76.3444 123.871 80.8106C132.532 82.5776 141.186 84.3619 149.831 86.2051C154.214 87.1408 158.602 88.0443 162.979 89.0108C165.252 89.5128 169.874 91.5809 172.105 91.0896C172.847 90.9223 173.716 90.0342 174.367 89.6286C176.736 88.1508 179.152 86.7372 181.558 85.3163C202.004 73.2476 222.688 61.6226 243.284 49.8123C237.289 52.3295 231.387 56.3506 225.615 59.5512Z" fill="url(#paint17_linear_46313_4234)"/>
<path d="M208.129 70.8556C202.123 74.2777 196.15 77.756 190.185 81.2444C187.234 82.9732 184.292 84.7174 181.347 86.4562C180.399 87.0157 172.443 92.2556 172.225 92.1224C156.198 88.5886 140.118 85.3324 124.021 82.1212C84.0802 74.1592 44.0569 66.785 3.77905 60.7325C3.77905 60.7707 3.78106 60.8068 3.77905 60.843C5.84009 61.2954 8.13689 61.5357 10.2093 61.8797C52.5288 68.9401 94.7421 76.3713 136.762 85.056C146.045 86.9729 155.332 88.9266 164.581 91C166.547 91.4431 170.463 93.1418 172.353 92.6418C173.15 92.431 173.981 91.5883 174.703 91.1526C176.671 89.9673 178.641 88.7867 180.611 87.6074C183.878 85.6504 187.158 83.7141 190.44 81.7892C198.586 77.0131 206.721 72.2236 214.926 67.5506C224.222 62.2592 234.594 57.5172 243.145 51.2614C231.481 57.8017 219.748 64.2363 208.129 70.8556Z" fill="url(#paint18_linear_46313_4234)"/>
<path d="M225.255 62.8368C219.564 66.0628 213.834 69.2292 208.159 72.4894C196.059 79.4413 183.836 86.319 172.068 93.8305C172.089 93.7602 132.263 85.3666 127.875 84.4858C86.6545 76.204 45.3468 68.5961 3.79741 62.1769C3.79541 62.211 3.79741 62.2452 3.79541 62.2813C5.63472 62.6882 7.68441 62.9185 9.52772 63.2324C51.8285 70.4755 94.0632 77.7714 136.081 86.5231C144.884 88.357 153.662 90.316 162.448 92.2295C166.458 93.1023 170.786 95.3391 174.365 93.0876C177.935 90.8448 181.602 88.7452 185.229 86.5921C204.431 75.1973 223.799 64.0911 243.065 52.8081C237.014 55.409 231.074 59.5365 225.255 62.8368Z" fill="url(#paint19_linear_46313_4234)"/>
<path d="M225.871 64.0133C219.726 67.5304 213.578 71.0489 207.432 74.564C195.589 81.3433 183.72 88.1982 172.177 95.4734C172.192 95.4125 132.356 86.9881 127.969 86.098C86.723 77.7459 45.3632 70.2123 3.80112 63.6157C3.80312 63.6478 3.79911 63.6806 3.80112 63.7128C5.41068 64.0722 7.20992 64.289 8.81747 64.5728C51.0975 71.9946 93.3663 79.1668 135.386 87.9854C144.189 89.832 152.971 91.7836 161.759 93.6992C165.281 94.4655 170.713 97.0771 173.946 95.0746C177.478 92.8873 181.067 90.7891 184.639 88.6647C204.029 77.1268 223.537 65.7923 242.955 54.3038C237.155 56.649 231.371 60.8656 225.871 64.0133Z" fill="url(#paint20_linear_46313_4234)"/>
<path d="M172.427 97.0297C153.089 92.8968 133.736 88.8395 114.358 84.8927C77.6414 77.414 40.731 71.0664 3.74783 65.0448C3.74582 65.0769 3.74382 65.1117 3.74048 65.1438C7.01437 65.9945 10.687 66.382 14.0524 66.9737C59.4126 74.945 104.657 82.8025 149.663 92.6799C153.728 93.5701 157.794 94.4549 161.862 95.3411C164.452 95.9059 170.832 98.6808 173.255 97.2258C180.889 92.6304 188.54 88.0618 196.197 83.5006C204.696 78.4394 213.203 73.3949 221.717 68.3565C228.672 64.2403 236.463 60.5485 242.817 55.7496C219.262 69.345 195.655 82.8708 172.427 97.0297Z" fill="url(#paint21_linear_46313_4234)"/>
<path d="M211.659 75.4147C209.699 76.5632 172.818 98.9317 172.645 98.6981C153.263 94.5518 133.869 90.4731 114.449 86.4908C77.6539 78.9472 40.6486 72.6498 3.6053 66.4582C3.59929 66.487 3.59795 66.5151 3.59595 66.5439C10.9485 68.6475 19.2675 69.4105 26.8518 70.7531C38.6136 72.8299 50.3741 74.9261 62.1506 76.9273C89.0377 81.4979 115.708 86.8884 142.362 92.6898C148.636 94.0579 154.902 95.442 161.173 96.81C164.224 97.476 167.274 98.1412 170.324 98.8052C170.944 98.9404 172.258 99.53 172.852 99.176C181.861 93.7815 190.876 88.3876 199.887 82.9911C207.155 78.6414 214.424 74.2889 221.693 69.9392C228.621 65.7929 236.381 62.0703 242.71 57.2467C232.353 63.2891 221.999 69.3415 211.659 75.4147Z" fill="url(#paint22_linear_46313_4234)"/>
<path d="M226.617 68.1696C221.83 70.9961 217.055 73.8359 212.272 76.6704C199.006 84.5392 185.77 92.4557 172.535 100.377C172.339 99.8828 167.214 99.1526 166.064 98.907C162.158 98.0663 158.25 97.2277 154.344 96.3904C149.384 95.3236 144.419 94.2962 139.456 93.2555C94.2325 83.7756 48.8702 75.639 3.33093 67.8477C3.32693 67.8631 3.32359 67.8778 3.31958 67.8932C11.7902 70.4171 21.4983 71.3073 30.2447 72.9089C41.8436 75.0299 53.4685 77.0077 65.0921 78.9767C87.4717 82.771 109.692 87.1803 131.872 92.0246C143.052 94.4689 154.238 96.9111 165.421 99.3554C166.831 99.6633 171.646 101.61 172.98 100.808C177.579 98.0543 182.178 95.3022 186.777 92.5494C205.438 81.3728 224.037 70.0899 242.627 58.7915C237.189 61.2331 231.835 65.0942 226.617 68.1696Z" fill="url(#paint23_linear_46313_4234)"/>
<path opacity="0.4" d="M190.978 88.5731C201.371 82.7643 242.602 58.9167 242.602 58.9167C242.602 58.9167 241.719 54.0643 242.911 47.6203C243.662 43.559 243.583 36.7215 244.365 31.7306C244.757 29.2234 244.894 27.4792 244.894 27.4792C244.894 27.4792 220.53 38.8117 211.71 43.1862C202.894 47.5587 176.085 61.4305 170.446 66.2508C170.446 66.2508 170.389 66.2354 170.281 66.2053C170.718 77.679 171.426 89.1748 172.188 100.675C172.511 100.743 172.678 100.779 172.678 100.779C172.678 100.779 180.585 94.3839 190.978 88.5731Z" fill="url(#paint24_linear_46313_4234)"/>
<path d="M140.386 59.7131C125.448 57.7447 41.5492 41.2138 23.0987 39.3559C4.64417 37.4993 1.43506 37.4384 1.43506 37.4384C1.43506 37.4384 6.76264 51.3296 2.92507 67.8082C2.92507 67.8082 56.4941 77.5351 76.1121 80.6567C94.8191 83.633 165.651 99.0951 172.202 100.527C171.438 89.0275 170.73 77.5338 170.293 66.06C168.633 65.5828 154.427 61.5637 140.386 59.7131Z" fill="url(#paint25_linear_46313_4234)"/>
<path d="M1.58081 35.5952L75.5993 1.0824C75.5993 1.0824 143.491 14.3853 165.24 16.4092C186.989 18.4312 245.114 25.9841 245.114 25.9841C245.114 25.9841 223.334 35.3743 209.87 43.0873C196.405 50.7982 173.107 60.9494 169.833 65.3721C169.833 65.3721 167.337 63.7116 158.382 62.4125C149.427 61.1167 91.0017 50.0285 83.5463 48.2629C76.0909 46.498 1.58081 35.5952 1.58081 35.5952Z" fill="url(#paint26_linear_46313_4234)"/>
<path d="M1.58081 35.5952L75.5993 1.0824C75.5993 1.0824 143.491 14.3853 165.24 16.4092C186.989 18.4312 245.114 25.9841 245.114 25.9841C245.114 25.9841 223.334 35.3743 209.87 43.0873C196.405 50.7982 173.107 60.9494 169.833 65.3721C169.833 65.3721 167.337 63.7116 158.382 62.4125C149.427 61.1167 91.0017 50.0285 83.5463 48.2629C76.0909 46.498 1.58081 35.5952 1.58081 35.5952Z" fill="url(#paint27_linear_46313_4234)"/>
<path d="M73.0537 0C73.0537 0 109.961 6.15684 123.398 9.86004C136.837 13.5632 164.01 17.1888 171.894 17.2303C179.778 17.2725 244.428 23.5853 244.428 23.5853C244.428 23.5853 235.348 27.5475 215.869 37.4169C196.39 47.285 179.455 58.2346 168.261 59.3932C157.07 60.5517 140.86 58.6777 122.346 56.3271C103.835 53.9746 46.7317 40.9434 40.9259 40.4809C35.1202 40.0204 6.50401 32.4735 0.000976562 33.4205C0.000976562 33.4205 19.9449 25.0517 32.4246 18.7255C44.9024 12.3993 73.0537 0 73.0537 0Z" fill="url(#paint28_radial_46313_4234)"/>
<g opacity="0.6">
<path d="M150.946 52.5751C142.704 51.9192 133.365 50.764 124.501 49.6403C113.449 48.2368 88.5035 43.0096 68.4567 38.8098C49.4732 34.8348 42.0459 33.3108 39.3624 33.098C37.6032 32.9595 31.8649 31.7193 26.3176 30.5206L21.1416 29.4002L25.2036 27.4887C28.1629 26.0965 30.8197 24.8028 33.1051 23.6449C43.757 18.245 66.1533 8.25716 72.7618 5.32632L73.1792 5.14026L73.6307 5.21656C82.2816 6.69235 111.397 11.7482 122.869 14.9093C135.733 18.4565 158.811 21.6879 169.846 22.5653C172.032 22.74 173.834 22.8317 175.196 22.8391C175.959 22.8431 178.337 22.9361 185.694 23.5218C193.438 24.1382 204.906 25.1515 219.776 26.5383L225.041 27.0289L217.894 30.633C212.372 33.4307 207.124 36.2685 202.049 39.0112C189.609 45.739 177.888 52.0725 170.734 52.8141C165.837 53.3221 159.365 53.2444 150.946 52.5751ZM30.5231 28.3159C34.505 29.1659 38.4073 29.9724 39.6035 30.0674C42.464 30.2957 49.9568 31.8304 69.0778 35.8327C89.0691 40.0232 113.953 45.2343 124.881 46.6231C133.711 47.7435 143.009 48.892 151.188 49.5426C159.419 50.1971 165.711 50.2788 170.424 49.7895C176.977 49.1122 188.441 42.9132 200.579 36.3494C205.002 33.9621 209.529 31.5145 214.256 29.0776C201.925 27.9398 192.253 27.0918 185.456 26.5516C177.924 25.9526 175.763 25.8824 175.182 25.8763C173.746 25.869 171.868 25.7733 169.607 25.5932C158.455 24.7071 135.109 21.4349 122.067 17.8401C110.921 14.7681 82.7057 9.84941 73.5746 8.28795C66.5005 11.4283 44.8483 21.0962 34.4756 26.3555C33.2561 26.9746 31.937 27.6272 30.5231 28.3159Z" fill="#91AA70"/>
</g>
<path opacity="0.6" d="M132.765 53.6098C129.793 52.7022 123.593 50.363 127.147 46.3593C130.324 42.7779 135.114 40.6261 139.337 38.5553C144.714 35.917 149.972 32.9915 155.105 29.8987C161.073 26.3039 167.018 22.3437 171.814 17.2309C163.833 17.166 136.791 13.5545 123.397 9.86068C121.458 9.32457 119.026 8.74028 116.287 8.12988C107.72 11.8197 99.1254 15.4453 90.4892 18.9678C84.4858 21.4194 78.4556 23.7499 72.6404 26.6272C67.6642 29.0882 62.7326 31.7212 57.5513 33.7331C52.4762 35.7035 47.1826 37.2462 41.7068 37.4082C35.3734 37.5929 29.1415 36.1017 22.9504 34.9639C19.7219 34.3702 16.5028 33.899 13.2422 33.5624C11.0309 33.3362 8.96054 33.0183 7.09853 31.7345C6.66174 31.432 6.34117 31.1221 6.11342 30.8082C2.42545 32.4025 -0.000244141 33.4218 -0.000244141 33.4218C6.50212 32.4748 35.1183 40.0217 40.9247 40.4822C46.7305 40.9447 103.834 53.9752 122.345 56.3284C122.738 56.3759 123.123 56.4255 123.513 56.475C130.575 56.8779 139.22 57.0017 144.7 55.7749C140.676 55.4637 136.694 54.8058 132.765 53.6098Z" fill="url(#paint29_radial_46313_4234)"/>
<path d="M109.104 87.0399L108.15 53.0029C108.15 53.0029 174.81 17.3168 175.557 17.0846C176.307 16.8503 163.057 14.479 150.821 12.1887C138.586 9.89635 121.337 8.2345 121.337 8.2345C121.337 8.2345 53.4548 40.8927 52.0923 41.5165C50.7272 42.1403 52.121 42.9809 52.2686 46.652C52.4149 50.3244 55.0416 68.8317 55.1879 72.5028C55.3361 76.1739 55.6681 77.5185 55.6681 77.5185C55.6681 77.5185 76.0848 81.6306 82.8837 82.4639C89.6819 83.2985 109.104 87.0399 109.104 87.0399Z" fill="url(#paint30_linear_46313_4234)"/>
<path d="M106.781 86.8536L105.826 52.8166C105.826 52.8166 172.486 17.1319 173.234 16.8983C173.984 16.666 160.733 14.2947 148.497 12.0044C136.265 9.71275 119.013 8.04822 119.013 8.04822C119.013 8.04822 51.1313 40.7084 49.7689 41.3322C48.4064 41.956 49.7996 42.7966 49.9459 46.4677C50.0935 50.1401 52.7189 68.6474 52.8671 72.3185C53.0134 75.9896 53.3453 77.3342 53.3453 77.3342C53.3453 77.3342 73.7621 81.4464 80.561 82.2796C87.3612 83.1142 106.781 86.8536 106.781 86.8536Z" fill="url(#paint31_linear_46313_4234)"/>
<path d="M105.826 52.8159C105.826 52.8159 107.05 52.162 109.154 51.0356C107.036 51.6935 106.333 52.8119 104.264 52.253C98.6406 50.7311 90.904 49.6849 84.9901 48.4755C73.665 46.1604 62.3447 44.2362 50.7825 41.9419C50.5261 41.891 50.46 41.5483 50.5949 41.3429C50.7258 41.1414 50.8627 40.9433 50.9956 40.7472C50.295 41.0818 49.8642 41.2853 49.7694 41.3308C48.4069 41.9546 49.8001 42.7952 49.9464 46.4663C50.094 50.1387 52.7194 68.646 52.8676 72.3171C53.0139 75.9882 53.3458 77.3328 53.3458 77.3328C53.3458 77.3328 73.7625 81.445 80.5614 82.2782C87.3617 83.1128 106.783 86.8529 106.783 86.8529L105.826 52.8159Z" fill="url(#paint32_linear_46313_4234)"/>
<path opacity="0.4" d="M105.937 56.7132C105.783 58.6535 105.553 60.5516 105.261 62.3621C103.991 70.2537 100.876 79.6921 91.4853 80.1004C85.0871 80.3761 79.0248 77.877 72.9339 76.3095C68.5667 75.1837 63.5784 74.5579 60.2023 71.2443C57.243 68.3415 56.3173 64.0929 55.4992 60.1728C54.1267 53.5843 52.443 47.6061 49.2132 41.8462C48.9988 42.5121 49.8356 43.6667 49.9458 46.4663C50.0934 50.1387 52.7188 68.6461 52.8671 72.3171C53.0134 75.9882 53.3453 77.3328 53.3453 77.3328C53.3453 77.3328 73.762 81.445 80.5609 82.2782C87.3612 83.1129 106.782 86.8529 106.782 86.8529L105.937 56.7132Z" fill="url(#paint33_linear_46313_4234)"/>
<path d="M158.878 52.5007C158.878 52.5007 156.17 53.4538 145.613 55.8352C140.133 57.0713 131.465 56.9462 124.384 56.5426C142.407 58.8229 158.179 60.5979 169.135 59.4641C172.289 59.1368 175.903 58.0298 179.896 56.3907C165.953 59.8422 158.878 52.5007 158.878 52.5007Z" fill="url(#paint34_linear_46313_4234)"/>
<path d="M242.278 63.7211C255.361 62.0974 266.942 68.6773 268.146 78.4175C269.349 88.1577 259.72 97.3692 246.636 98.9929C233.553 100.617 221.972 94.0368 220.768 84.2966C219.565 74.5577 229.195 65.3455 242.278 63.7211Z" fill="#FBDE00"/>
<path d="M268.463 80.0664C268.463 89.4359 259.091 97.6641 246.663 99.2069C233.483 100.843 221.771 94.1657 220.555 84.3238C220.486 83.7696 220.451 83.2061 220.451 82.6485C220.451 73.2784 229.823 65.0501 242.25 63.5074C248.624 62.7163 254.846 63.822 259.772 66.621C264.718 69.4313 267.768 73.6117 268.358 78.3912C268.427 78.9453 268.463 79.5089 268.463 80.0664ZM220.882 82.6485C220.882 83.188 220.915 83.7341 220.982 84.2702C222.17 93.8773 233.666 100.386 246.611 98.7792C258.823 97.2632 268.033 89.2183 268.033 80.0664C268.033 79.527 267.999 78.9808 267.933 78.444C267.359 73.8025 264.386 69.7365 259.561 66.9951C254.714 64.2423 248.586 63.1547 242.304 63.9344C230.092 65.451 220.882 73.4959 220.882 82.6485Z" fill="#FCA500"/>
<path d="M242.424 65.595C253.287 64.247 262.903 69.7098 263.902 77.7969C264.901 85.8839 256.906 93.532 246.043 94.8806C235.18 96.2286 225.564 90.7658 224.565 82.6787C223.566 74.5916 231.562 66.9429 242.424 65.595Z" fill="#FDBA19"/>
<path d="M242.424 65.595C253.287 64.247 262.903 69.7098 263.902 77.7969C264.901 85.8839 256.906 93.532 246.043 94.8806C235.18 96.2286 225.564 90.7658 224.565 82.6787C223.566 74.5916 231.562 66.9429 242.424 65.595Z" fill="#FDBA19"/>
<path d="M246.474 93.8033C235.611 95.1519 225.995 89.6884 224.996 81.6014C224.779 79.8478 224.986 78.1143 225.553 76.4612C224.672 78.4309 224.301 80.5385 224.565 82.6783C225.565 90.7653 235.181 96.2281 246.043 94.8802C254.55 93.824 261.297 88.9047 263.345 82.9373C260.895 88.4121 254.463 92.812 246.474 93.8033Z" fill="#FDBA19"/>
<path d="M246.636 98.9931C234.595 100.488 223.833 95.0302 221.256 86.5582C221.176 87.4825 221.189 88.4176 221.306 89.3586C222.509 99.0988 234.091 105.678 247.174 104.054C260.257 102.431 269.887 93.2191 268.683 83.4788C268.588 82.7031 268.419 81.9502 268.196 81.2173C267.455 89.8659 258.457 97.5266 246.636 98.9931Z" fill="#FBB121"/>
<path d="M269 85.1278C269 94.4973 259.629 102.726 247.2 104.268C234.021 105.904 222.309 99.2272 221.092 89.3852C220.977 88.4522 220.96 87.4931 221.041 86.54C221.05 86.4369 221.13 86.3553 221.233 86.3446C221.336 86.3339 221.431 86.3975 221.461 86.4958C224.035 94.9591 234.847 100.24 246.61 98.7794C258.244 97.3351 267.232 89.942 267.982 81.1991C267.99 81.0967 268.07 81.0143 268.173 81.0036C268.275 80.9929 268.371 81.0565 268.402 81.1549C268.638 81.9313 268.804 82.7043 268.896 83.4532C268.965 84.0067 269 84.571 269 85.1278ZM221.421 87.728C221.421 88.2641 221.454 88.8036 221.519 89.3323C222.706 98.9394 234.204 105.448 247.147 103.841C259.361 102.325 268.57 94.2804 268.57 85.1285C268.57 84.589 268.536 84.0429 268.47 83.5061C268.422 83.1266 268.356 82.7398 268.271 82.3496C266.875 90.8021 258.004 97.7995 246.663 99.2071C235.191 100.631 224.598 95.7187 221.42 87.6818C221.421 87.6966 221.421 87.7119 221.421 87.728Z" fill="#D38622"/>
<path d="M246.636 98.9931C234.595 100.488 223.833 95.0302 221.256 86.5582C221.176 87.4825 221.189 88.4176 221.306 89.3586C222.509 99.0988 234.091 105.678 247.174 104.054C260.257 102.431 269.887 93.2191 268.683 83.4788C268.588 82.7031 268.419 81.9502 268.196 81.2173C267.455 89.8659 258.457 97.5266 246.636 98.9931Z" fill="#FBB121"/>
<path d="M269 85.1278C269 94.4973 259.629 102.726 247.2 104.268C234.021 105.904 222.309 99.2272 221.092 89.3852C220.977 88.4522 220.96 87.4931 221.041 86.54C221.05 86.4369 221.13 86.3553 221.233 86.3446C221.336 86.3339 221.431 86.3975 221.461 86.4958C224.035 94.9591 234.847 100.24 246.61 98.7794C258.244 97.3351 267.232 89.942 267.982 81.1991C267.99 81.0967 268.07 81.0143 268.173 81.0036C268.275 80.9929 268.371 81.0565 268.402 81.1549C268.638 81.9313 268.804 82.7043 268.896 83.4532C268.965 84.0067 269 84.571 269 85.1278ZM221.421 87.728C221.421 88.2641 221.454 88.8036 221.519 89.3323C222.706 98.9394 234.204 105.448 247.147 103.841C259.361 102.325 268.57 94.2804 268.57 85.1285C268.57 84.589 268.536 84.0429 268.47 83.5061C268.422 83.1266 268.356 82.7398 268.271 82.3496C266.875 90.8021 258.004 97.7995 246.663 99.2071C235.191 100.631 224.598 95.7187 221.42 87.6818C221.421 87.6966 221.421 87.7119 221.421 87.728Z" fill="#D38622"/>
<path d="M231.332 96.9025V101.544C231.332 101.662 231.237 101.759 231.119 101.759C231.001 101.759 230.905 101.662 230.905 101.544V96.9025C230.905 96.7847 231.001 96.6876 231.119 96.6876C231.237 96.6876 231.332 96.784 231.332 96.9025Z" fill="#E59D3F"/>
<path d="M234.644 98.0551V102.968C234.644 103.087 234.549 103.183 234.431 103.183C234.312 103.183 234.216 103.087 234.216 102.968V98.0551C234.216 97.9366 234.312 97.8402 234.431 97.8402C234.549 97.8402 234.644 97.9366 234.644 98.0551Z" fill="#E59D3F"/>
<path d="M238.068 98.8313V103.867C238.068 103.986 237.972 104.081 237.854 104.081C237.736 104.081 237.64 103.985 237.64 103.867V98.8313C237.64 98.7128 237.736 98.6165 237.854 98.6165C237.972 98.6165 238.068 98.7128 238.068 98.8313Z" fill="#E59D3F"/>
<path d="M240.844 99.1645V104.228C240.844 104.346 240.748 104.443 240.63 104.443C240.512 104.443 240.417 104.347 240.417 104.228V99.1645C240.417 99.0461 240.512 98.9497 240.63 98.9497C240.747 98.9497 240.844 99.0461 240.844 99.1645Z" fill="#E59D3F"/>
<path d="M243.676 99.2201V104.284C243.676 104.402 243.58 104.499 243.462 104.499C243.344 104.499 243.247 104.402 243.247 104.284V99.2201C243.247 99.1016 243.343 99.0052 243.462 99.0052C243.58 99.0052 243.676 99.1016 243.676 99.2201Z" fill="#E59D3F"/>
<path d="M246.785 99.0388V104.133C246.785 104.252 246.689 104.348 246.57 104.348C246.452 104.348 246.356 104.252 246.356 104.133V99.0388C246.356 98.9204 246.452 98.824 246.57 98.824C246.689 98.824 246.785 98.9204 246.785 99.0388Z" fill="#E59D3F"/>
<path d="M250.213 98.4459V103.58C250.213 103.699 250.116 103.795 249.999 103.795C249.881 103.795 249.785 103.699 249.785 103.58V98.4459C249.785 98.3281 249.881 98.2311 249.999 98.2311C250.116 98.2317 250.213 98.3281 250.213 98.4459Z" fill="#E59D3F"/>
<path d="M253.523 97.5385V102.673C253.523 102.79 253.427 102.887 253.31 102.887C253.191 102.887 253.095 102.79 253.095 102.673V97.5385C253.095 97.42 253.191 97.3236 253.31 97.3236C253.427 97.3236 253.523 97.42 253.523 97.5385Z" fill="#E59D3F"/>
<path d="M256.991 96.0377V101.29C256.991 101.408 256.895 101.505 256.778 101.505C256.66 101.505 256.564 101.409 256.564 101.29V96.0377C256.564 95.9193 256.66 95.8229 256.778 95.8229C256.895 95.8229 256.991 95.9193 256.991 96.0377Z" fill="#E59D3F"/>
<path d="M260.538 93.7292V99.196C260.538 99.3144 260.442 99.4108 260.323 99.4108C260.206 99.4108 260.11 99.3144 260.11 99.196V93.7292C260.11 93.6114 260.206 93.515 260.323 93.515C260.442 93.515 260.538 93.6114 260.538 93.7292Z" fill="#E59D3F"/>
<path d="M263.633 91.0589V96.6676C263.633 96.7861 263.538 96.8824 263.42 96.8824C263.302 96.8824 263.206 96.7861 263.206 96.6676V91.0589C263.206 90.9411 263.302 90.8447 263.42 90.8447C263.538 90.8441 263.633 90.9404 263.633 91.0589Z" fill="#E59D3F"/>
<path d="M266.317 87.5349V93.4488C266.317 93.5673 266.221 93.6636 266.102 93.6636C265.985 93.6636 265.889 93.5673 265.889 93.4488V87.5349C265.889 87.4164 265.985 87.3201 266.102 87.3201C266.221 87.3201 266.317 87.4164 266.317 87.5349Z" fill="#E59D3F"/>
<path d="M268.246 83.963V89.5262C268.246 89.6446 268.149 89.741 268.032 89.741C267.913 89.741 267.818 89.6446 267.818 89.5262V83.963C267.818 83.8452 267.914 83.7482 268.032 83.7482C268.149 83.7482 268.246 83.8452 268.246 83.963Z" fill="#E59D3F"/>
<path d="M228.535 95.4233V100.037C228.535 100.155 228.439 100.252 228.321 100.252C228.203 100.252 228.107 100.155 228.107 100.037V95.4233C228.107 95.3049 228.203 95.2085 228.321 95.2085C228.439 95.2085 228.535 95.3049 228.535 95.4233Z" fill="#E59D3F"/>
<path d="M225.988 93.7053V97.9754C225.988 98.0939 225.893 98.1903 225.775 98.1903C225.656 98.1903 225.561 98.0939 225.561 97.9754V93.7053C225.561 93.5869 225.657 93.4905 225.775 93.4905C225.893 93.4911 225.988 93.5875 225.988 93.7053Z" fill="#E59D3F"/>
<path d="M223.49 91.006V95.08C223.49 95.1984 223.395 95.2948 223.277 95.2948C223.158 95.2948 223.063 95.1984 223.063 95.08V91.006C223.063 90.8875 223.158 90.7911 223.277 90.7911C223.395 90.7918 223.49 90.8875 223.49 91.006Z" fill="#E59D3F"/>
<path d="M251.124 71.9219C245.265 72.0805 242.967 75.8038 242.16 79.2179L236.431 80.7987C236.696 78.7266 237.978 77.9522 237.978 77.9522L236.294 76.2295C236.294 76.2295 233.415 76.4389 233.19 81.6929L231.135 82.2598L231.458 85.4905L233.504 84.9135C234.429 88.351 237.099 89.6488 238.657 89.4755C240.592 89.2599 243.6 89.4754 244.909 81.8094C244.916 81.7672 244.926 81.7297 244.933 81.6882L254.421 79.011C254.72 79.4467 254.922 79.9253 254.992 80.4293C255.528 84.3065 252.52 84.4143 252.52 84.4143L254.455 86.9991C254.455 86.9991 255.959 87.4301 258.001 83.2296C258.621 81.6394 258.637 79.7426 258.144 77.9602L261.225 77.0908L260.796 74.0757L256.857 75.1626C255.588 73.306 253.625 71.9694 251.124 71.9219ZM241.774 82.5837C241.774 86.0708 237.976 87.4053 236.778 83.9906L241.774 82.5804C241.774 82.5817 241.774 82.5824 241.774 82.5837ZM246.837 77.9281C247.967 76.9295 249.401 76.6444 250.755 76.8472L246.837 77.9281Z" fill="#D38622"/>
<path d="M250.671 71.4695C244.813 71.6281 242.514 75.3514 241.709 78.7661L235.98 80.347C236.245 78.2749 237.526 77.5005 237.526 77.5005L235.842 75.7777C235.842 75.7777 232.964 75.9872 232.738 81.2418L230.684 81.8087L231.007 85.0394L233.053 84.4618C233.978 87.8993 236.649 89.1971 238.207 89.0237C240.142 88.8082 243.151 89.0237 244.458 81.357C244.466 81.3148 244.476 81.2773 244.483 81.2358L253.971 78.5586C254.269 78.9944 254.472 79.4729 254.541 79.9769C255.079 83.8541 252.07 83.9619 252.07 83.9619L254.004 86.5467C254.004 86.5467 255.509 86.9777 257.55 82.7772C258.17 81.187 258.187 79.2902 257.693 77.5079L260.775 76.6384L260.345 73.6226L256.406 74.7095C255.135 72.8536 253.174 71.517 250.671 71.4695ZM241.323 82.1313C241.323 85.6184 237.524 86.9529 236.326 83.5382L241.323 82.128C241.323 82.128 241.323 82.13 241.323 82.1313ZM246.384 77.4751C247.515 76.4771 248.949 76.1914 250.302 76.3941L246.384 77.4751Z" fill="#FCF4B1"/>
<path opacity="0.5" d="M242.424 65.5951C236.27 66.3588 231.038 69.1464 227.839 72.8891C231.007 72.5176 234.207 72.4467 237.354 72.8309C241.877 73.383 246.548 74.8662 249.604 78.4536C253.125 82.5872 253.701 87.9482 252.782 93.1158C260.01 90.1161 264.68 84.0897 263.902 77.797C262.903 69.71 253.287 64.2465 242.424 65.5951Z" fill="#FDBA19"/>
<path d="M242.424 65.5951C238.584 66.0717 235.104 67.3387 232.251 69.1317C234.963 67.5675 238.183 66.4632 241.708 66.0255C252.571 64.6775 262.186 70.1403 263.186 78.2281C263.831 83.4559 260.716 88.497 255.5 91.7746C261.145 88.5191 264.577 83.2598 263.902 77.797C262.903 69.71 253.287 64.2465 242.424 65.5951Z" fill="white"/>
<g opacity="0.5">
<path d="M246.636 98.9929C234.595 100.487 223.833 95.03 221.256 86.5581C221.177 87.4824 221.189 88.4174 221.306 89.3584C221.77 93.1064 223.773 96.3826 226.804 98.9072C226.66 97.3364 227.378 96.3445 230.362 97.7467C237.239 100.977 249.001 102.58 261.14 94.6779C266.897 90.4139 262.834 100.19 249.785 103.58C249.768 103.596 249.754 103.612 249.737 103.629C261.49 101.2 269.807 92.571 268.683 83.4793C268.588 82.7036 268.42 81.9507 268.196 81.2178C267.455 89.8657 258.457 97.5265 246.636 98.9929Z" fill="#FBB121"/>
</g>
<g opacity="0.5">
<path d="M221.703 77.4061L256.343 96.147C258.092 95.2923 259.698 94.2883 261.123 93.1599L224.167 73.1654C223.124 74.4986 222.295 75.9229 221.703 77.4061Z" fill="white"/>
<path d="M220.768 84.2974C220.819 84.7171 220.898 85.1293 220.988 85.5369L245.986 99.0614C246.202 99.0393 246.42 99.0205 246.636 98.9931C247.596 98.874 248.533 98.7093 249.452 98.5119L220.677 82.9441C220.687 83.3939 220.712 83.845 220.768 84.2974Z" fill="white"/>
<path d="M241.438 63.8416L268.123 78.279C266.827 68.6157 255.297 62.1055 242.277 63.7212C241.995 63.756 241.717 63.7995 241.438 63.8416Z" fill="white"/>
<path d="M229.619 68.2401L265.913 87.8765C266.374 87.1316 266.772 86.3653 267.103 85.5815L232.247 66.7235C231.326 67.1873 230.451 67.696 229.619 68.2401Z" fill="white"/>
</g>
<path d="M96.8755 70.2062C109.958 68.5825 121.54 75.1624 122.743 84.9026C123.946 94.6428 114.318 103.854 101.233 105.478C88.1505 107.102 76.569 100.522 75.3655 90.7817C74.162 81.0421 83.7926 71.8299 96.8755 70.2062Z" fill="#FBDE00"/>
<path d="M123.06 86.5513C123.06 95.9207 113.689 104.149 101.26 105.692C88.0805 107.328 76.368 100.651 75.1519 90.8086C75.0831 90.2545 75.0483 89.6909 75.0483 89.1334C75.0483 79.7633 84.4199 71.535 96.8476 69.9923C103.222 69.2012 109.443 70.3068 114.369 73.1052C119.315 75.9155 122.365 80.0959 122.955 84.8754C123.025 85.4302 123.06 85.9937 123.06 86.5513ZM75.4791 89.1334C75.4791 89.6729 75.5125 90.219 75.5793 90.7551C76.7668 100.362 88.2635 106.87 101.208 105.264C113.42 103.748 122.631 95.7032 122.631 86.5513C122.631 86.0118 122.597 85.4657 122.53 84.9289C121.956 80.2874 118.983 76.2214 114.158 73.48C109.311 70.7272 103.183 69.6396 96.901 70.4193C84.689 71.9359 75.4791 79.9808 75.4791 89.1334Z" fill="#FCA500"/>
<path d="M97.0217 72.0798C107.885 70.7311 117.501 76.1946 118.5 84.2816C119.499 92.3687 111.504 100.017 100.641 101.365C89.778 102.713 80.162 97.2506 79.1622 89.1635C78.1631 81.0771 86.1588 73.4284 97.0217 72.0798Z" fill="#FDBA19"/>
<path d="M97.0217 72.0798C107.885 70.7311 117.501 76.1946 118.5 84.2816C119.499 92.3687 111.504 100.017 100.641 101.365C89.778 102.713 80.162 97.2506 79.1622 89.1635C78.1631 81.0771 86.1588 73.4284 97.0217 72.0798Z" fill="#FDBA19"/>
<path d="M101.07 100.288C90.2076 101.637 80.5916 96.1736 79.5925 88.0865C79.3754 86.3329 79.5831 84.5994 80.1501 82.9463C79.2686 84.916 78.8979 87.0236 79.1624 89.1634C80.1615 97.2504 89.7781 102.713 100.641 101.365C109.148 100.309 115.894 95.3898 117.942 89.4224C115.492 94.8972 109.059 99.2971 101.07 100.288Z" fill="#FDBA19"/>
<path d="M101.234 105.478C89.1927 106.972 78.4307 101.515 75.8534 93.0431C75.7746 93.9674 75.7866 94.9024 75.9035 95.8434C77.107 105.584 88.6885 112.163 101.772 110.539C114.855 108.915 124.485 99.7039 123.281 89.9637C123.185 89.188 123.017 88.435 122.794 87.7021C122.053 96.3501 113.054 104.011 101.234 105.478Z" fill="#FBB121"/>
<path d="M123.598 91.6129C123.598 100.982 114.226 109.211 101.798 110.753C88.6182 112.389 76.9065 105.712 75.6896 95.8703C75.5747 94.9373 75.5574 93.9782 75.6388 93.0251C75.6475 92.9221 75.7283 92.8404 75.8305 92.8297C75.9334 92.819 76.0282 92.8826 76.0589 92.9809C78.6329 101.444 89.445 106.725 101.208 105.265C112.842 103.82 121.83 96.4271 122.579 87.6842C122.587 87.5817 122.668 87.4994 122.77 87.4887C122.873 87.478 122.969 87.5416 122.999 87.64C123.236 88.4164 123.402 89.1901 123.494 89.9383C123.562 90.4918 123.598 91.0554 123.598 91.6129ZM76.0182 94.2125C76.0182 94.7479 76.0509 95.288 76.1164 95.8167C77.3038 105.424 88.8005 111.932 101.745 110.326C113.958 108.81 123.168 100.765 123.168 91.6129C123.168 91.0735 123.134 90.5273 123.068 89.9905C123.02 89.6111 122.953 89.2242 122.868 88.834C121.473 97.2865 112.601 104.284 101.26 105.692C89.789 107.116 79.1959 102.203 76.0175 94.1663C76.0182 94.1817 76.0182 94.1971 76.0182 94.2125Z" fill="#D38622"/>
<path d="M101.234 105.478C89.1927 106.972 78.4307 101.515 75.8534 93.0431C75.7746 93.9674 75.7866 94.9024 75.9035 95.8434C77.107 105.584 88.6885 112.163 101.772 110.539C114.855 108.915 124.485 99.7039 123.281 89.9637C123.185 89.188 123.017 88.435 122.794 87.7021C122.053 96.3501 113.054 104.011 101.234 105.478Z" fill="#FBB121"/>
<path d="M123.598 91.6129C123.598 100.982 114.226 109.211 101.798 110.753C88.6182 112.389 76.9065 105.712 75.6896 95.8703C75.5747 94.9373 75.5574 93.9782 75.6388 93.0251C75.6475 92.9221 75.7283 92.8404 75.8305 92.8297C75.9334 92.819 76.0282 92.8826 76.0589 92.9809C78.6329 101.444 89.445 106.725 101.208 105.265C112.842 103.82 121.83 96.4271 122.579 87.6842C122.587 87.5817 122.668 87.4994 122.77 87.4887C122.873 87.478 122.969 87.5416 122.999 87.64C123.236 88.4164 123.402 89.1901 123.494 89.9383C123.562 90.4918 123.598 91.0554 123.598 91.6129ZM76.0182 94.2125C76.0182 94.7479 76.0509 95.288 76.1164 95.8167C77.3038 105.424 88.8005 111.932 101.745 110.326C113.958 108.81 123.168 100.765 123.168 91.6129C123.168 91.0735 123.134 90.5273 123.068 89.9905C123.02 89.6111 122.953 89.2242 122.868 88.834C121.473 97.2865 112.601 104.284 101.26 105.692C89.789 107.116 79.1959 102.203 76.0175 94.1663C76.0182 94.1817 76.0182 94.1971 76.0182 94.2125Z" fill="#D38622"/>
<path d="M85.9294 103.387V108.028C85.9294 108.147 85.8339 108.243 85.7157 108.243C85.5975 108.243 85.502 108.147 85.502 108.028V103.387C85.502 103.269 85.5975 103.172 85.7157 103.172C85.8339 103.173 85.9294 103.269 85.9294 103.387Z" fill="#E59D3F"/>
<path d="M89.2421 104.54V109.453C89.2421 109.572 89.1459 109.668 89.0283 109.668C88.9101 109.668 88.814 109.572 88.814 109.453V104.54C88.814 104.421 88.9101 104.325 89.0283 104.325C89.1459 104.325 89.2421 104.421 89.2421 104.54Z" fill="#E59D3F"/>
<path d="M92.6657 105.315V110.351C92.6657 110.469 92.5695 110.565 92.4513 110.565C92.3337 110.565 92.2375 110.469 92.2375 110.351V105.315C92.2375 105.197 92.3337 105.101 92.4513 105.101C92.5688 105.101 92.6657 105.197 92.6657 105.315Z" fill="#E59D3F"/>
<path d="M95.4411 105.649V110.713C95.4411 110.83 95.3449 110.927 95.2274 110.927C95.1085 110.927 95.0137 110.831 95.0137 110.713V105.649C95.0137 105.531 95.1092 105.435 95.2274 105.435C95.3449 105.435 95.4411 105.531 95.4411 105.649Z" fill="#E59D3F"/>
<path d="M98.273 105.705V110.769C98.273 110.887 98.1768 110.984 98.0593 110.984C97.9404 110.984 97.8442 110.887 97.8442 110.769V105.705C97.8442 105.587 97.9404 105.49 98.0593 105.49C98.1768 105.49 98.273 105.587 98.273 105.705Z" fill="#E59D3F"/>
<path d="M101.382 105.523V110.618C101.382 110.736 101.286 110.832 101.167 110.832C101.049 110.832 100.953 110.736 100.953 110.618V105.523C100.953 105.404 101.049 105.308 101.167 105.308C101.286 105.308 101.382 105.404 101.382 105.523Z" fill="#E59D3F"/>
<path d="M104.81 104.931V110.065C104.81 110.183 104.714 110.28 104.597 110.28C104.479 110.28 104.383 110.183 104.383 110.065V104.931C104.383 104.813 104.479 104.716 104.597 104.716C104.714 104.716 104.81 104.813 104.81 104.931Z" fill="#E59D3F"/>
<path d="M108.12 104.023V109.157C108.12 109.275 108.024 109.371 107.907 109.371C107.788 109.371 107.692 109.275 107.692 109.157V104.023C107.692 103.904 107.788 103.808 107.907 103.808C108.024 103.808 108.12 103.904 108.12 104.023Z" fill="#E59D3F"/>
<path d="M111.588 102.522V107.775C111.588 107.892 111.492 107.989 111.375 107.989C111.257 107.989 111.161 107.893 111.161 107.775V102.522C111.161 102.404 111.257 102.307 111.375 102.307C111.492 102.307 111.588 102.404 111.588 102.522Z" fill="#E59D3F"/>
<path d="M115.135 100.214V105.682C115.135 105.8 115.039 105.896 114.92 105.896C114.802 105.896 114.706 105.8 114.706 105.682V100.214C114.706 100.096 114.802 99.9999 114.92 99.9999C115.039 99.9992 115.135 100.096 115.135 100.214Z" fill="#E59D3F"/>
<path d="M118.231 97.543V103.152C118.231 103.27 118.135 103.367 118.017 103.367C117.899 103.367 117.803 103.27 117.803 103.152V97.543C117.803 97.4252 117.899 97.3289 118.017 97.3289C118.135 97.3289 118.231 97.4252 118.231 97.543Z" fill="#E59D3F"/>
<path d="M120.914 94.0192V99.9337C120.914 100.052 120.818 100.149 120.699 100.149C120.582 100.149 120.486 100.052 120.486 99.9337V94.0192C120.486 93.9007 120.582 93.8043 120.699 93.8043C120.818 93.8043 120.914 93.9007 120.914 94.0192Z" fill="#E59D3F"/>
<path d="M122.842 90.4479V96.011C122.842 96.1295 122.746 96.2259 122.629 96.2259C122.51 96.2259 122.415 96.1295 122.415 96.011V90.4479C122.415 90.3301 122.511 90.233 122.629 90.233C122.746 90.233 122.842 90.3294 122.842 90.4479Z" fill="#E59D3F"/>
<path d="M83.1325 101.908V106.522C83.1325 106.64 83.0363 106.736 82.9188 106.736C82.8006 106.736 82.7051 106.64 82.7051 106.522V101.908C82.7051 101.79 82.8006 101.693 82.9188 101.693C83.0363 101.693 83.1325 101.79 83.1325 101.908Z" fill="#E59D3F"/>
<path d="M80.5849 100.19V104.46C80.5849 104.579 80.4887 104.675 80.3712 104.675C80.253 104.675 80.1575 104.579 80.1575 104.46V100.19C80.1575 100.072 80.2536 99.9753 80.3712 99.9753C80.4894 99.9753 80.5849 100.072 80.5849 100.19Z" fill="#E59D3F"/>
<path d="M78.0878 97.4908V101.565C78.0878 101.683 77.9923 101.78 77.8741 101.78C77.7559 101.78 77.6604 101.683 77.6604 101.565V97.4908C77.6604 97.3724 77.7559 97.276 77.8741 97.276C77.9917 97.276 78.0878 97.3724 78.0878 97.4908Z" fill="#E59D3F"/>
<path d="M105.721 78.4073C99.8623 78.566 97.5635 82.2893 96.7573 85.7033L91.0277 87.2842C91.2929 85.2121 92.5745 84.4377 92.5745 84.4377L90.8908 82.7149C90.8908 82.7149 88.0116 82.9244 87.7865 88.1784L85.7322 88.7453L86.0548 91.9759L88.1004 91.399C89.0254 94.8365 91.6962 96.1343 93.2544 95.9609C95.1892 95.7454 98.1973 95.9609 99.5056 88.2948C99.513 88.2527 99.523 88.2152 99.5303 88.1737L109.018 85.4965C109.316 85.9322 109.519 86.4108 109.588 86.9154C110.125 90.7926 107.117 90.9004 107.117 90.9004L109.051 93.4852C109.051 93.4852 110.556 93.9162 112.598 89.7157C113.218 88.1255 113.234 86.2294 112.741 84.4464L115.822 83.577L115.393 80.5618L111.454 81.6487C110.185 79.7908 108.223 78.4542 105.721 78.4073ZM96.3713 89.0692C96.3713 92.5562 92.5725 93.8908 91.375 90.4761L96.3713 89.0659C96.3713 89.0659 96.3713 89.0679 96.3713 89.0692ZM101.434 84.4129C102.564 83.415 103.998 83.1292 105.351 83.332L101.434 84.4129Z" fill="#D38622"/>
<path d="M105.268 77.9547C99.4099 78.1133 97.1111 81.8366 96.3063 85.2514L90.576 86.8322C90.8412 84.7601 92.1222 83.985 92.1222 83.985L90.4385 82.2623C90.4385 82.2623 87.5599 82.4718 87.3349 87.7264L85.2805 88.2933L85.6031 91.524L87.6494 90.9464C88.5744 94.3839 91.2452 95.6816 92.8034 95.5083C94.7375 95.2928 97.7469 95.5083 99.0546 87.8415C99.062 87.7994 99.072 87.7619 99.0793 87.7204L108.566 85.0432C108.865 85.4789 109.067 85.9575 109.137 86.4614C109.675 90.3387 106.666 90.4464 106.666 90.4464L108.599 93.0312C108.599 93.0312 110.104 93.4622 112.146 89.2624C112.765 87.6722 112.782 85.7754 112.288 83.9931L115.37 83.1237L114.941 80.1085L111.001 81.1954C109.733 79.3381 107.771 78.0016 105.268 77.9547ZM95.9197 88.6166C95.9197 92.1036 92.1208 93.4382 90.9233 90.0234L95.9197 88.6132C95.9197 88.6132 95.9197 88.6152 95.9197 88.6166ZM100.981 83.9603C102.112 82.9617 103.546 82.6766 104.899 82.8794L100.981 83.9603Z" fill="#FCF4B1"/>
<path opacity="0.5" d="M97.0218 72.0796C90.8674 72.8432 85.6354 75.6308 82.4363 79.3735C85.6046 79.0021 88.8051 78.9311 91.9521 79.3153C96.4742 79.8675 101.146 81.3506 104.202 84.938C107.722 89.0716 108.298 94.4326 107.38 99.6003C114.607 96.6005 119.277 90.5742 118.5 84.2815C117.501 76.195 107.885 70.7316 97.0218 72.0796Z" fill="#FDBA19"/>
<path d="M97.0218 72.0796C93.1816 72.5561 89.702 73.8231 86.8489 75.6161C89.5604 74.052 92.7802 72.9476 96.3059 72.5099C107.169 71.1613 116.784 76.6247 117.784 84.7125C118.43 89.9403 115.314 94.9815 110.098 98.259C115.743 95.0036 119.175 89.7442 118.5 84.2815C117.501 76.195 107.885 70.7316 97.0218 72.0796Z" fill="white"/>
<g opacity="0.5">
<path d="M101.233 105.478C89.1925 106.973 78.4305 101.515 75.8532 93.0432C75.7744 93.9675 75.7864 94.9025 75.9033 95.8436C76.3668 99.5916 78.3704 102.868 81.4012 105.392C81.2576 103.822 81.9748 102.83 84.9589 104.232C91.8366 107.463 103.598 109.065 115.738 101.162C121.495 96.8984 117.431 106.674 104.382 110.064C104.365 110.081 104.351 110.097 104.334 110.114C116.088 107.684 124.404 99.0555 123.28 89.9638C123.185 89.1881 123.017 88.4351 122.794 87.7023C122.053 96.3502 113.054 104.011 101.233 105.478Z" fill="#FBB121"/>
</g>
<g opacity="0.5">
<path d="M76.3015 83.8909L110.941 102.632C112.69 101.777 114.297 100.773 115.721 99.6448L78.7646 79.6503C77.7214 80.9828 76.8926 82.4078 76.3015 83.8909Z" fill="white"/>
<path d="M75.3657 90.7813C75.4172 91.2009 75.496 91.6132 75.5855 92.0208L100.584 105.545C100.8 105.523 101.017 105.504 101.234 105.477C102.193 105.358 103.13 105.193 104.049 104.996L75.2749 89.428C75.2849 89.8784 75.3103 90.3289 75.3657 90.7813Z" fill="white"/>
<path d="M96.0361 70.3265L122.721 84.7638C121.424 75.1006 109.894 68.5903 96.875 70.206C96.5931 70.2408 96.3153 70.2837 96.0361 70.3265Z" fill="white"/>
<path d="M84.217 74.725L120.511 94.3614C120.971 93.6165 121.369 92.8501 121.7 92.0664L86.8451 73.2084C85.9241 73.6715 85.0485 74.1809 84.217 74.725Z" fill="white"/>
</g>
<path d="M210.793 69.9156C223.876 68.2919 235.458 74.8717 236.661 84.6119C237.864 94.3522 228.235 103.564 215.152 105.187C202.069 106.811 190.487 100.231 189.284 90.491C188.08 80.7515 197.71 71.5393 210.793 69.9156Z" fill="#FBDE00"/>
<path d="M236.979 86.2607C236.979 95.6302 227.607 103.858 215.179 105.401C201.999 107.037 190.287 100.36 189.07 90.5181C189.002 89.9639 188.967 89.4004 188.967 88.8429C188.967 79.4728 198.338 71.2445 210.766 69.7017C217.139 68.9106 223.361 70.0163 228.288 72.8153C233.234 75.6257 236.283 79.8061 236.874 84.5855C236.943 85.1397 236.979 85.7039 236.979 86.2607ZM189.397 88.8429C189.397 89.3823 189.43 89.9285 189.497 90.4646C190.685 100.072 202.181 106.58 215.126 104.974C227.338 103.458 236.548 95.4127 236.548 86.2607C236.548 85.7213 236.514 85.1751 236.448 84.6384C235.874 79.9968 232.901 75.9309 228.076 73.1894C223.229 70.4366 217.101 69.349 210.819 70.1287C198.607 71.6454 189.397 79.6903 189.397 88.8429Z" fill="#FCA500"/>
<path d="M210.94 71.7888C221.803 70.4409 231.419 75.9036 232.418 83.9907C233.417 92.0778 225.422 99.7258 214.559 101.074C203.696 102.422 194.08 96.9596 193.081 88.8725C192.082 80.7861 200.077 73.1374 210.94 71.7888Z" fill="#FDBA19"/>
<path d="M210.94 71.7888C221.803 70.4409 231.419 75.9036 232.418 83.9907C233.417 92.0778 225.422 99.7258 214.559 101.074C203.696 102.422 194.08 96.9596 193.081 88.8725C192.082 80.7861 200.077 73.1374 210.94 71.7888Z" fill="#FDBA19"/>
<path d="M214.989 99.9977C204.126 101.346 194.51 95.8829 193.511 87.7958C193.294 86.0423 193.502 84.3088 194.069 82.6556C193.187 84.6254 192.817 86.733 193.081 88.8727C194.08 96.9598 203.697 102.423 214.559 101.075C223.066 100.018 229.812 95.0992 231.86 89.1317C229.41 94.6066 222.978 99.0065 214.989 99.9977Z" fill="#FDBA19"/>
<path d="M215.152 105.188C203.111 106.682 192.348 101.225 189.772 92.7528C189.692 93.6771 189.706 94.6121 189.821 95.5532C191.025 105.293 202.606 111.873 215.69 110.249C228.773 108.625 238.403 99.4136 237.199 89.6734C237.104 88.8977 236.935 88.1447 236.712 87.4119C235.971 96.0598 226.973 103.721 215.152 105.188Z" fill="#FBB121"/>
<path d="M237.516 91.3223C237.516 100.692 228.144 108.921 215.716 110.463C202.536 112.098 190.824 105.422 189.608 95.5796C189.493 94.6467 189.475 93.6876 189.557 92.7345C189.565 92.6314 189.646 92.5498 189.749 92.539C189.851 92.5283 189.946 92.5919 189.977 92.6903C192.551 101.154 203.363 106.434 215.126 104.974C226.76 103.53 235.748 96.1365 236.497 87.3935C236.506 87.2911 236.586 87.2088 236.688 87.1981C236.791 87.1874 236.887 87.2509 236.917 87.3493C237.154 88.1257 237.32 88.8988 237.412 89.6477C237.48 90.2012 237.516 90.7647 237.516 91.3223ZM189.936 93.9218C189.936 94.4579 189.969 94.9974 190.034 95.5261C191.222 105.133 202.719 111.641 215.663 110.035C227.876 108.519 237.086 100.474 237.086 91.3223C237.086 90.7828 237.052 90.2367 236.985 89.6999C236.938 89.3204 236.871 88.9336 236.786 88.5434C235.391 96.9952 226.519 103.993 215.178 105.401C203.707 106.825 193.114 101.913 189.936 93.8756C189.936 93.891 189.936 93.9064 189.936 93.9218Z" fill="#D38622"/>
<path d="M215.152 105.188C203.111 106.682 192.348 101.225 189.772 92.7528C189.692 93.6771 189.706 94.6121 189.821 95.5532C191.025 105.293 202.606 111.873 215.69 110.249C228.773 108.625 238.403 99.4136 237.199 89.6734C237.104 88.8977 236.935 88.1447 236.712 87.4119C235.971 96.0598 226.973 103.721 215.152 105.188Z" fill="#FBB121"/>
<path d="M237.516 91.3223C237.516 100.692 228.144 108.921 215.716 110.463C202.536 112.098 190.824 105.422 189.608 95.5796C189.493 94.6467 189.475 93.6876 189.557 92.7345C189.565 92.6314 189.646 92.5498 189.749 92.539C189.851 92.5283 189.946 92.5919 189.977 92.6903C192.551 101.154 203.363 106.434 215.126 104.974C226.76 103.53 235.748 96.1365 236.497 87.3935C236.506 87.2911 236.586 87.2088 236.688 87.1981C236.791 87.1874 236.887 87.2509 236.917 87.3493C237.154 88.1257 237.32 88.8988 237.412 89.6477C237.48 90.2012 237.516 90.7647 237.516 91.3223ZM189.936 93.9218C189.936 94.4579 189.969 94.9974 190.034 95.5261C191.222 105.133 202.719 111.641 215.663 110.035C227.876 108.519 237.086 100.474 237.086 91.3223C237.086 90.7828 237.052 90.2367 236.985 89.6999C236.938 89.3204 236.871 88.9336 236.786 88.5434C235.391 96.9952 226.519 103.993 215.178 105.401C203.707 106.825 193.114 101.913 189.936 93.8756C189.936 93.891 189.936 93.9064 189.936 93.9218Z" fill="#D38622"/>
<path d="M199.848 103.096V107.737C199.848 107.856 199.752 107.952 199.634 107.952C199.516 107.952 199.42 107.856 199.42 107.737V103.096C199.42 102.978 199.516 102.881 199.634 102.881C199.752 102.882 199.848 102.978 199.848 103.096Z" fill="#E59D3F"/>
<path d="M203.16 104.249V109.162C203.16 109.281 203.065 109.377 202.947 109.377C202.828 109.377 202.732 109.281 202.732 109.162V104.249C202.732 104.131 202.828 104.034 202.947 104.034C203.064 104.034 203.16 104.131 203.16 104.249Z" fill="#E59D3F"/>
<path d="M206.584 105.025V110.06C206.584 110.179 206.487 110.275 206.369 110.275C206.252 110.275 206.156 110.178 206.156 110.06V105.025C206.156 104.906 206.252 104.81 206.369 104.81C206.487 104.81 206.584 104.906 206.584 105.025Z" fill="#E59D3F"/>
<path d="M209.359 105.359V110.423C209.359 110.54 209.263 110.637 209.145 110.637C209.027 110.637 208.932 110.541 208.932 110.423V105.359C208.932 105.24 209.027 105.144 209.145 105.144C209.263 105.144 209.359 105.24 209.359 105.359Z" fill="#E59D3F"/>
<path d="M212.191 105.414V110.478C212.191 110.597 212.095 110.693 211.977 110.693C211.859 110.693 211.762 110.597 211.762 110.478V105.414C211.762 105.296 211.859 105.199 211.977 105.199C212.095 105.199 212.191 105.296 212.191 105.414Z" fill="#E59D3F"/>
<path d="M215.301 105.232V110.327C215.301 110.445 215.204 110.542 215.086 110.542C214.968 110.542 214.872 110.445 214.872 110.327V105.232C214.872 105.114 214.968 105.017 215.086 105.017C215.204 105.017 215.301 105.114 215.301 105.232Z" fill="#E59D3F"/>
<path d="M218.728 104.64V109.774C218.728 109.893 218.632 109.989 218.514 109.989C218.397 109.989 218.301 109.893 218.301 109.774V104.64C218.301 104.522 218.397 104.425 218.514 104.425C218.632 104.425 218.728 104.522 218.728 104.64Z" fill="#E59D3F"/>
<path d="M222.039 103.732V108.866C222.039 108.984 221.942 109.08 221.825 109.08C221.707 109.08 221.61 108.984 221.61 108.866V103.732C221.61 103.613 221.706 103.517 221.825 103.517C221.942 103.518 222.039 103.613 222.039 103.732Z" fill="#E59D3F"/>
<path d="M225.506 102.231V107.484C225.506 107.602 225.41 107.699 225.293 107.699C225.175 107.699 225.079 107.602 225.079 107.484V102.231C225.079 102.113 225.175 102.016 225.293 102.016C225.41 102.016 225.506 102.113 225.506 102.231Z" fill="#E59D3F"/>
<path d="M229.054 99.9233V105.39C229.054 105.509 228.957 105.605 228.838 105.605C228.721 105.605 228.625 105.509 228.625 105.39V99.9233C228.625 99.8055 228.721 99.7091 228.838 99.7091C228.957 99.7084 229.054 99.8048 229.054 99.9233Z" fill="#E59D3F"/>
<path d="M232.149 97.2523V102.861C232.149 102.979 232.053 103.076 231.935 103.076C231.818 103.076 231.721 102.979 231.721 102.861V97.2523C231.721 97.1345 231.818 97.0381 231.935 97.0381C232.053 97.0381 232.149 97.1345 232.149 97.2523Z" fill="#E59D3F"/>
<path d="M234.833 93.7284V99.6423C234.833 99.7607 234.737 99.8571 234.618 99.8571C234.5 99.8571 234.404 99.7607 234.404 99.6423V93.7284C234.404 93.6099 234.5 93.5135 234.618 93.5135C234.736 93.5135 234.833 93.6099 234.833 93.7284Z" fill="#E59D3F"/>
<path d="M236.761 90.1571V95.7203C236.761 95.8387 236.665 95.9351 236.548 95.9351C236.429 95.9351 236.334 95.8387 236.334 95.7203V90.1571C236.334 90.0393 236.429 89.9423 236.548 89.9423C236.665 89.9423 236.761 90.0386 236.761 90.1571Z" fill="#E59D3F"/>
<path d="M197.05 101.617V106.231C197.05 106.349 196.954 106.445 196.837 106.445C196.719 106.445 196.623 106.349 196.623 106.231V101.617C196.623 101.498 196.719 101.402 196.837 101.402C196.954 101.403 197.05 101.499 197.05 101.617Z" fill="#E59D3F"/>
<path d="M194.504 99.8994V104.17C194.504 104.288 194.408 104.384 194.29 104.384C194.172 104.384 194.076 104.288 194.076 104.17V99.8994C194.076 99.7809 194.172 99.6846 194.29 99.6846C194.407 99.6846 194.504 99.7809 194.504 99.8994Z" fill="#E59D3F"/>
<path d="M192.006 97.2001V101.274C192.006 101.393 191.911 101.489 191.792 101.489C191.674 101.489 191.579 101.393 191.579 101.274V97.2001C191.579 97.0816 191.674 96.9852 191.792 96.9852C191.911 96.9852 192.006 97.0816 192.006 97.2001Z" fill="#E59D3F"/>
<path d="M219.639 78.1163C213.78 78.275 211.481 81.9982 210.675 85.4123L204.946 86.9932C205.211 84.921 206.492 84.1467 206.492 84.1467L204.809 82.4239C204.809 82.4239 201.93 82.6334 201.705 87.8874L199.65 88.4542L199.973 91.6849L202.018 91.108C202.943 94.5455 205.614 95.8433 207.172 95.6699C209.107 95.4544 212.115 95.6699 213.424 88.0038C213.431 87.9617 213.441 87.9242 213.448 87.8827L222.936 85.2055C223.235 85.6412 223.437 86.1198 223.506 86.6237C224.043 90.501 221.035 90.6087 221.035 90.6087L222.969 93.1935C222.969 93.1935 224.473 93.6245 226.516 89.4241C227.136 87.8338 227.152 85.937 226.659 84.1547L229.74 83.2853L229.311 80.2701L225.372 81.3571C224.103 79.4998 222.141 78.1639 219.639 78.1163ZM210.29 88.7782C210.29 92.2652 206.491 93.5998 205.294 90.185L210.29 88.7748C210.29 88.7748 210.29 88.7769 210.29 88.7782ZM215.352 84.1219C216.482 83.1233 217.916 82.8382 219.269 83.041L215.352 84.1219Z" fill="#D38622"/>
<path d="M219.187 77.6641C213.329 77.8227 211.03 81.546 210.225 84.9607L204.495 86.5416C204.76 84.4694 206.041 83.6951 206.041 83.6951L204.357 81.9723C204.357 81.9723 201.479 82.1818 201.254 87.4364L199.199 88.0033L199.522 91.234L201.568 90.6564C202.493 94.0939 205.164 95.3917 206.722 95.2183C208.657 95.0028 211.666 95.2183 212.973 87.5515C212.981 87.5094 212.991 87.4719 212.998 87.4304L222.486 84.7532C222.784 85.1889 222.987 85.6675 223.056 86.1715C223.594 90.0487 220.585 90.1564 220.585 90.1564L222.518 92.7412C222.518 92.7412 224.024 93.1723 226.065 88.9718C226.685 87.3815 226.701 85.4848 226.208 83.7024L229.289 82.833L228.859 79.8179L224.92 80.9048C223.651 79.0475 221.69 77.7109 219.187 77.6641ZM209.838 88.3259C209.838 91.8129 206.039 93.1475 204.841 89.7328L209.838 88.3226C209.838 88.3226 209.838 88.3246 209.838 88.3259ZM214.899 83.6696C216.03 82.6717 217.464 82.3859 218.817 82.5887L214.899 83.6696Z" fill="#FCF4B1"/>
<path opacity="0.5" d="M210.94 71.7888C204.785 72.5525 199.553 75.3401 196.354 79.0828C199.522 78.7113 202.723 78.6404 205.87 79.0245C210.392 79.5767 215.064 81.0599 218.12 84.6473C221.64 88.7808 222.216 94.1419 221.298 99.3095C228.525 96.3097 233.195 90.2834 232.418 83.9907C231.419 75.9043 221.803 70.4408 210.94 71.7888Z" fill="#FDBA19"/>
<path d="M210.94 71.7888C207.1 72.2653 203.62 73.5323 200.767 75.3253C203.478 73.7612 206.698 72.6569 210.224 72.2192C221.087 70.8712 230.702 76.334 231.702 84.4217C232.348 89.6496 229.232 94.6907 224.016 97.9682C229.661 94.7128 233.093 89.4535 232.418 83.9907C231.419 75.9043 221.803 70.4408 210.94 71.7888Z" fill="white"/>
<g opacity="0.5">
<path d="M215.152 105.187C203.111 106.682 192.348 101.224 189.772 92.7525C189.692 93.6768 189.706 94.6118 189.821 95.5529C190.285 99.3009 192.288 102.577 195.319 105.102C195.175 103.531 195.893 102.539 198.877 103.941C205.755 107.172 217.516 108.774 229.656 100.872C235.413 96.6083 231.349 106.384 218.3 109.774C218.283 109.791 218.269 109.807 218.252 109.824C230.005 107.394 238.322 98.7655 237.198 89.6738C237.103 88.8981 236.935 88.1451 236.712 87.4122C235.971 96.0595 226.973 103.72 215.152 105.187Z" fill="#FBB121"/>
</g>
<g opacity="0.5">
<path d="M190.219 83.6008L224.859 102.342C226.609 101.487 228.214 100.483 229.639 99.3546L192.683 79.3601C191.639 80.6927 190.811 82.1176 190.219 83.6008Z" fill="white"/>
<path d="M189.284 90.491C189.335 90.9106 189.414 91.3229 189.504 91.7305L214.502 105.255C214.718 105.233 214.936 105.214 215.153 105.187C216.112 105.068 217.049 104.903 217.968 104.705L189.194 89.1377C189.203 89.5881 189.228 90.0386 189.284 90.491Z" fill="white"/>
<path d="M209.955 70.0362L236.639 84.4735C235.343 74.8103 223.813 68.3001 210.793 69.9157C210.511 69.9505 210.233 69.994 209.955 70.0362Z" fill="white"/>
<path d="M198.135 74.4347L234.429 94.0711C234.889 93.3262 235.288 92.5599 235.618 91.7761L200.763 72.9181C199.842 73.3812 198.966 73.8906 198.135 74.4347Z" fill="white"/>
</g>
</g>
</g>
<defs>
<radialGradient id="paint0_radial_46313_4234" cx="0" cy="0" r="1" gradientUnits="userSpaceOnUse" gradientTransform="translate(121.778 51.2068) rotate(4.54633) scale(91.3572 91.5497)">
<stop stop-color="#B2E6B5"/>
<stop offset="1" stop-color="#92A961"/>
</radialGradient>
<radialGradient id="paint1_radial_46313_4234" cx="0" cy="0" r="1" gradientUnits="userSpaceOnUse" gradientTransform="translate(123.033 34.1313) rotate(4.54633) scale(87.8015 87.9865)">
<stop stop-color="#B5D894"/>
<stop offset="0.8345" stop-color="#B5D894"/>
<stop offset="1" stop-color="#92A961"/>
</radialGradient>
<linearGradient id="paint2_linear_46313_4234" x1="1.99569" y1="30.3411" x2="243.172" y2="49.4367" gradientUnits="userSpaceOnUse">
<stop offset="0.1974" stop-color="#92A961"/>
<stop offset="0.6742" stop-color="#749649"/>
<stop offset="0.8023" stop-color="white"/>
<stop offset="1" stop-color="#92A961"/>
</linearGradient>
<linearGradient id="paint3_linear_46313_4234" x1="2.0495" y1="32.0085" x2="243.051" y2="51.0902" gradientUnits="userSpaceOnUse">
<stop offset="0.1974" stop-color="#92A961"/>
<stop offset="0.6742" stop-color="#749649"/>
<stop offset="0.8023" stop-color="white"/>
<stop offset="1" stop-color="#92A961"/>
</linearGradient>
<linearGradient id="paint4_linear_46313_4234" x1="2.11062" y1="33.5645" x2="242.938" y2="52.6325" gradientUnits="userSpaceOnUse">
<stop offset="0.1974" stop-color="#92A961"/>
<stop offset="0.6742" stop-color="#749649"/>
<stop offset="0.8023" stop-color="white"/>
<stop offset="1" stop-color="#92A961"/>
</linearGradient>
<linearGradient id="paint5_linear_46313_4234" x1="2.17926" y1="35.0947" x2="242.798" y2="54.1462" gradientUnits="userSpaceOnUse">
<stop offset="0.1974" stop-color="#92A961"/>
<stop offset="0.6742" stop-color="#749649"/>
<stop offset="0.8023" stop-color="white"/>
<stop offset="1" stop-color="#92A961"/>
</linearGradient>
<linearGradient id="paint6_linear_46313_4234" x1="2.22496" y1="36.8374" x2="242.67" y2="55.8751" gradientUnits="userSpaceOnUse">
<stop offset="0.1974" stop-color="#92A961"/>
<stop offset="0.6742" stop-color="#749649"/>
<stop offset="0.8023" stop-color="white"/>
<stop offset="1" stop-color="#92A961"/>
</linearGradient>
<linearGradient id="paint7_linear_46313_4234" x1="2.28828" y1="38.3805" x2="242.558" y2="57.4043" gradientUnits="userSpaceOnUse">
<stop offset="0.1974" stop-color="#92A961"/>
<stop offset="0.6742" stop-color="#749649"/>
<stop offset="0.8023" stop-color="white"/>
<stop offset="1" stop-color="#92A961"/>
</linearGradient>
<linearGradient id="paint8_linear_46313_4234" x1="2.34588" y1="39.9916" x2="242.473" y2="59.0042" gradientUnits="userSpaceOnUse">
<stop offset="0.1974" stop-color="#92A961"/>
<stop offset="0.6742" stop-color="#749649"/>
<stop offset="0.8023" stop-color="white"/>
<stop offset="1" stop-color="#92A961"/>
</linearGradient>
<linearGradient id="paint9_linear_46313_4234" x1="2.40982" y1="41.5288" x2="242.329" y2="60.5249" gradientUnits="userSpaceOnUse">
<stop offset="0.1974" stop-color="#92A961"/>
<stop offset="0.6742" stop-color="#749649"/>
<stop offset="0.8023" stop-color="white"/>
<stop offset="1" stop-color="#92A961"/>
</linearGradient>
<linearGradient id="paint10_linear_46313_4234" x1="2.47272" y1="43.0754" x2="242.218" y2="62.0577" gradientUnits="userSpaceOnUse">
<stop offset="0.1974" stop-color="#92A961"/>
<stop offset="0.6742" stop-color="#749649"/>
<stop offset="0.8023" stop-color="white"/>
<stop offset="1" stop-color="#92A961"/>
</linearGradient>
<linearGradient id="paint11_linear_46313_4234" x1="2.53114" y1="44.707" x2="242.099" y2="63.6753" gradientUnits="userSpaceOnUse">
<stop offset="0.1974" stop-color="#92A961"/>
<stop offset="0.6742" stop-color="#749649"/>
<stop offset="0.8023" stop-color="white"/>
<stop offset="1" stop-color="#92A961"/>
</linearGradient>
<linearGradient id="paint12_linear_46313_4234" x1="2.60074" y1="46.1661" x2="241.995" y2="65.1205" gradientUnits="userSpaceOnUse">
<stop offset="0.1974" stop-color="#92A961"/>
<stop offset="0.6742" stop-color="#749649"/>
<stop offset="0.8023" stop-color="white"/>
<stop offset="1" stop-color="#92A961"/>
</linearGradient>
<linearGradient id="paint13_linear_46313_4234" x1="2.6625" y1="47.7193" x2="241.881" y2="66.6598" gradientUnits="userSpaceOnUse">
<stop offset="0.1974" stop-color="#92A961"/>
<stop offset="0.6742" stop-color="#749649"/>
<stop offset="0.8023" stop-color="white"/>
<stop offset="1" stop-color="#92A961"/>
</linearGradient>
<linearGradient id="paint14_linear_46313_4234" x1="2.70777" y1="49.502" x2="241.781" y2="68.4311" gradientUnits="userSpaceOnUse">
<stop offset="0.1974" stop-color="#92A961"/>
<stop offset="0.6742" stop-color="#749649"/>
<stop offset="0.8023" stop-color="white"/>
<stop offset="1" stop-color="#92A961"/>
</linearGradient>
<linearGradient id="paint15_linear_46313_4234" x1="2.76423" y1="51.0902" x2="241.666" y2="70.0057" gradientUnits="userSpaceOnUse">
<stop offset="0.1974" stop-color="#92A961"/>
<stop offset="0.6742" stop-color="#749649"/>
<stop offset="0.8023" stop-color="white"/>
<stop offset="1" stop-color="#92A961"/>
</linearGradient>
<linearGradient id="paint16_linear_46313_4234" x1="2.82887" y1="52.6544" x2="241.552" y2="71.5558" gradientUnits="userSpaceOnUse">
<stop offset="0.1974" stop-color="#92A961"/>
<stop offset="0.6742" stop-color="#749649"/>
<stop offset="0.8023" stop-color="white"/>
<stop offset="1" stop-color="#92A961"/>
</linearGradient>
<linearGradient id="paint17_linear_46313_4234" x1="2.88726" y1="54.2429" x2="241.437" y2="73.1306" gradientUnits="userSpaceOnUse">
<stop offset="0.1974" stop-color="#92A961"/>
<stop offset="0.6742" stop-color="#749649"/>
<stop offset="0.8023" stop-color="white"/>
<stop offset="1" stop-color="#92A961"/>
</linearGradient>
<linearGradient id="paint18_linear_46313_4234" x1="2.95593" y1="55.7527" x2="241.295" y2="74.6237" gradientUnits="userSpaceOnUse">
<stop offset="0.1974" stop-color="#92A961"/>
<stop offset="0.6742" stop-color="#749649"/>
<stop offset="0.8023" stop-color="white"/>
<stop offset="1" stop-color="#92A961"/>
</linearGradient>
<linearGradient id="paint19_linear_46313_4234" x1="3.02441" y1="57.2359" x2="241.221" y2="76.0956" gradientUnits="userSpaceOnUse">
<stop offset="0.1974" stop-color="#92A961"/>
<stop offset="0.6742" stop-color="#749649"/>
<stop offset="0.8023" stop-color="white"/>
<stop offset="1" stop-color="#92A961"/>
</linearGradient>
<linearGradient id="paint20_linear_46313_4234" x1="3.08023" y1="58.8624" x2="241.102" y2="77.7082" gradientUnits="userSpaceOnUse">
<stop offset="0.1974" stop-color="#92A961"/>
<stop offset="0.6742" stop-color="#749649"/>
<stop offset="0.8023" stop-color="white"/>
<stop offset="1" stop-color="#92A961"/>
</linearGradient>
<linearGradient id="paint21_linear_46313_4234" x1="3.13697" y1="60.4916" x2="240.951" y2="79.3211" gradientUnits="userSpaceOnUse">
<stop offset="0.1974" stop-color="#92A961"/>
<stop offset="0.6742" stop-color="#749649"/>
<stop offset="0.8023" stop-color="white"/>
<stop offset="1" stop-color="#92A961"/>
</linearGradient>
<linearGradient id="paint22_linear_46313_4234" x1="3.20233" y1="62.0217" x2="240.842" y2="80.8373" gradientUnits="userSpaceOnUse">
<stop offset="0.1974" stop-color="#92A961"/>
<stop offset="0.6742" stop-color="#749649"/>
<stop offset="0.8023" stop-color="white"/>
<stop offset="1" stop-color="#92A961"/>
</linearGradient>
<linearGradient id="paint23_linear_46313_4234" x1="3.25624" y1="63.6764" x2="240.753" y2="82.4807" gradientUnits="userSpaceOnUse">
<stop offset="0.1974" stop-color="#92A961"/>
<stop offset="0.6742" stop-color="#749649"/>
<stop offset="0.8023" stop-color="white"/>
<stop offset="1" stop-color="#92A961"/>
</linearGradient>
<linearGradient id="paint24_linear_46313_4234" x1="170.685" y1="61.099" x2="241.982" y2="66.7442" gradientUnits="userSpaceOnUse">
<stop offset="0.0404" stop-color="white"/>
<stop offset="0.4493" stop-color="#F7FFD7"/>
<stop offset="0.6363" stop-color="#B4D996"/>
<stop offset="1" stop-color="#82A65E"/>
</linearGradient>
<linearGradient id="paint25_linear_46313_4234" x1="87.1978" y1="51.404" x2="86.3901" y2="88.6207" gradientUnits="userSpaceOnUse">
<stop offset="0.0996" stop-color="#B4D996"/>
<stop offset="0.8244" stop-color="#627E0F"/>
</linearGradient>
<linearGradient id="paint26_linear_46313_4234" x1="2.52485" y1="23.67" x2="243.784" y2="42.7722" gradientUnits="userSpaceOnUse">
<stop offset="0.0384" stop-color="#749649"/>
<stop offset="1" stop-color="#92A961"/>
</linearGradient>
<linearGradient id="paint27_linear_46313_4234" x1="2.52485" y1="23.67" x2="243.784" y2="42.7722" gradientUnits="userSpaceOnUse">
<stop offset="0.0384" stop-color="#749649"/>
<stop offset="1" stop-color="#92A961"/>
</linearGradient>
<radialGradient id="paint28_radial_46313_4234" cx="0" cy="0" r="1" gradientUnits="userSpaceOnUse" gradientTransform="translate(55.6454 -15.0472) rotate(4.54633) scale(225.238 225.713)">
<stop offset="0.5153" stop-color="#B2E6B5"/>
<stop offset="0.8345" stop-color="#B5D894"/>
<stop offset="1" stop-color="#92A961"/>
</radialGradient>
<radialGradient id="paint29_radial_46313_4234" cx="0" cy="0" r="1" gradientUnits="userSpaceOnUse" gradientTransform="translate(122.553 -75.3997) rotate(4.54633) scale(151.94 152.261)">
<stop offset="0.5153" stop-color="#B2E6B5"/>
<stop offset="0.8345" stop-color="#B5D894"/>
<stop offset="1" stop-color="#92A961"/>
</radialGradient>
<linearGradient id="paint30_linear_46313_4234" x1="118.234" y1="7.72723" x2="99.045" y2="96.9082" gradientUnits="userSpaceOnUse">
<stop offset="0.0384" stop-color="#749649"/>
<stop offset="1" stop-color="#92A961"/>
</linearGradient>
<linearGradient id="paint31_linear_46313_4234" x1="115.911" y1="7.54192" x2="96.7222" y2="96.7238" gradientUnits="userSpaceOnUse">
<stop offset="0.2973" stop-color="#E7FFE7"/>
<stop offset="1" stop-color="#909E81"/>
</linearGradient>
<linearGradient id="paint32_linear_46313_4234" x1="92.523" y1="-3.46149" x2="73.3337" y2="85.7225" gradientUnits="userSpaceOnUse">
<stop offset="0.2973" stop-color="#E7FFE7"/>
<stop offset="1" stop-color="#909E81"/>
</linearGradient>
<linearGradient id="paint33_linear_46313_4234" x1="91.302" y1="2.24236" x2="72.112" y2="91.4298" gradientUnits="userSpaceOnUse">
<stop offset="0.2973" stop-color="#E7FFE7"/>
<stop offset="1" stop-color="#909E81"/>
</linearGradient>
<linearGradient id="paint34_linear_46313_4234" x1="151.051" y1="70.2205" x2="152.686" y2="49.6629" gradientUnits="userSpaceOnUse">
<stop offset="0.5471" stop-color="#749649"/>
<stop offset="0.9055" stop-color="white"/>
</linearGradient>
</defs>
</svg>
