<svg width="234" height="244" viewBox="0 0 234 244" fill="none" xmlns="http://www.w3.org/2000/svg">
<g opacity="0.2">
<path d="M106.033 194.427C62.062 179.276 68.9107 124.745 95.2139 108.967C121.517 93.1553 106.033 88.9632 107.456 69.2567C108.911 49.5832 146.034 32.4845 146.034 32.4845C146.034 32.4845 115.032 50.2434 127.671 70.8741C140.277 91.5379 157.945 111.872 139.913 130.258C121.881 148.644 166.216 155.081 161.915 173.137C157.581 191.226 106.033 194.427 106.033 194.427Z" fill="#FC0001"/>
<path d="M245.457 198.124C239.832 228.13 221.37 224.697 203.14 227.668C202.434 227.8 201.717 227.932 200.989 228.064C179.45 232.256 144.28 229.516 139.218 205.915C105.537 48.9561 222.065 56.1521 205.654 0.432617C238.442 35.7854 208.599 62.8859 221.701 100.615C231.428 128.607 253.86 153.199 245.457 198.124Z" fill="#FC0001"/>
<path d="M236.854 128.277C219.054 94.7398 232.884 77.9382 241.784 65.7908C250.684 53.6104 251.677 45.061 251.677 45.061C251.677 45.061 262.893 59.8491 252.007 75.0003C241.122 90.1185 248.732 99.6582 250.055 102.959C242.776 112.829 236.854 128.277 236.854 128.277Z" fill="#FC0001"/>
<path d="M242.777 142.438C221.668 101.969 230.27 83.2195 238.178 76.9478C246.085 70.7091 248.732 68.7285 248.732 68.7285C248.732 68.7285 234.869 83.8797 240.791 95.3999C246.747 106.887 264.547 102.959 264.547 102.959L242.777 142.438Z" fill="#FB6D01"/>
<path d="M231.991 224.994C203.173 204.462 221.337 166.205 241.883 119.233C254.654 90.0526 278.972 75.2314 278.972 75.2314C278.972 75.2314 272.024 117.153 290.916 132.799C308.617 147.455 335.417 184.261 315.631 214.596C297.203 242.819 231.991 224.994 231.991 224.994Z" fill="#FC0001"/>
<path d="M134.387 220.901C167.473 203.538 154.57 161.517 135.413 147.951C116.289 134.417 112.088 119.464 112.088 119.464C112.088 119.464 59.1834 149.7 70.9951 185.812C82.8398 221.957 102.691 225.093 116.62 225.423C130.549 225.786 134.387 220.901 134.387 220.901Z" fill="#FC0001"/>
<path d="M67.6207 212.946C5.81643 182.94 30.9616 131.974 47.4383 115.536C63.9151 99.0971 56.5038 78.1362 56.5038 78.1362C56.5038 78.1362 76.256 95.7961 70.9292 117.978C65.5693 140.193 67.1905 157.457 91.9387 177.989C116.654 198.554 118.308 231.035 82.8732 231.86C47.4383 232.652 67.6207 212.946 67.6207 212.946Z" fill="#FC0001"/>
<path d="M90.284 228.955C6.24616 236.382 -8.60936 189.905 5.41901 155.807C19.4143 121.675 17.363 118.407 17.363 118.407C17.363 118.407 21.4656 131.149 19.0173 153.331C16.5358 175.546 28.4798 194.857 56.9005 191.556C85.3212 188.288 99.3495 214.596 99.7466 217.039C100.177 219.514 90.284 228.955 90.284 228.955Z" fill="#FC0001"/>
<path d="M118.308 56.7462C98.0924 81.0079 139.714 94.1456 110.864 112.235C82.0458 130.324 58.5549 171.024 72.5502 196.903C86.5786 222.815 111.294 227.338 124.065 223.641C136.836 219.911 156.356 111.376 129.822 83.4506C114.569 67.4412 118.308 56.7462 118.308 56.7462Z" fill="#FB6D01"/>
<path d="M201.088 231.035C96.4712 223.211 127.34 120.454 157.018 88.402C178.425 65.2626 178.722 69.6528 203.173 50.5735C212.635 43.1794 212.635 29.6127 212.635 29.6127C212.635 29.6127 221.701 46.0512 207.706 63.7441C193.677 81.404 180.079 108.934 195.762 128.673C211.411 148.413 208.93 144.287 208.103 143.065C207.275 141.844 193.28 123.326 197.383 100.318C201.386 77.9381 215.944 63.315 215.944 63.315C215.944 63.315 212.635 91.6699 217.565 107.712C222.528 123.755 231.594 117.978 246.416 155.807C261.238 193.635 250.949 209.645 233.645 217.039C216.341 224.433 201.088 231.035 201.088 231.035Z" fill="#FB6D01"/>
<path d="M257.136 205.122C202.743 180.465 251.776 104.841 268.683 87.9729C285.556 71.1383 259.187 106.887 276.921 130.324C294.622 153.76 327.178 173.071 323.043 198.95C318.94 224.862 280.197 224.433 254.257 223.641C228.285 222.815 257.136 205.122 257.136 205.122Z" fill="#FB6D01"/>
<path d="M231.594 231.035C161.154 235.953 123.238 206.377 138.49 150.888C153.71 95.4 181.336 81.8333 181.336 81.8333C181.336 81.8333 165.687 104.015 175.976 136.496C186.266 168.944 206.879 187.463 220.477 184.162C210.584 180.465 198.342 175.942 191.229 160.725C179.682 136.067 181.733 117.153 181.733 117.153C181.733 117.153 186.266 145.937 214.29 154.156C232.156 159.405 248.897 177.593 243.107 193.206C237.351 208.819 231.594 231.035 231.594 231.035Z" fill="#EFA204"/>
<path d="M209.757 77.3109C200.692 100.714 200.692 125.801 216.771 141.019C232.818 156.203 239.005 164.026 239.005 164.026C239.005 164.026 234.869 145.112 222.098 127.452C209.327 109.759 209.757 77.3109 209.757 77.3109Z" fill="#FACF67"/>
<path d="M124.064 218.293C57.3304 236.382 10.3486 221.561 5.41884 190.334C0.455978 159.108 12.0029 150.063 12.0029 150.063C12.0029 150.063 5.81588 176.768 25.9982 192.381C46.1805 207.994 54.0219 206.377 54.0219 206.377C54.0219 206.377 30.7626 191.622 31.3581 155.411C31.7882 129.895 53.691 125.24 59.7788 113.885C65.9658 102.365 64.3115 97.0175 64.3115 97.0175C64.3115 97.0175 70.4986 115.106 62.6572 128.277C50.7133 148.347 86.9753 168.548 86.9753 168.548L124.064 218.293Z" fill="#FB6D01"/>
<path d="M128.598 103.619C127.34 124.58 100.574 115.106 82.0459 154.156C63.4848 193.206 76.2559 218.689 98.0925 221.99C119.929 225.258 158.242 222.815 152.486 198.157C146.729 173.467 127.34 149.634 129.822 129.895C132.303 110.188 128.598 103.619 128.598 103.619Z" fill="#EFA204"/>
<path d="M217.168 192.81C152.485 180.068 162.775 100.318 162.775 100.318C162.775 100.318 119.929 144.287 136.836 184.162C153.709 224.037 194.107 235.557 220.477 227.338C246.846 219.118 257.533 188.684 239.402 173.896C221.304 159.108 211.411 161.979 211.411 161.979C211.411 161.979 227.888 170.199 227.061 182.115C226.233 194.031 217.168 192.81 217.168 192.81Z" fill="#FACF67"/>
<path d="M144.247 149.238C153.71 187.859 201.519 187.859 213.86 211.295C226.234 234.732 243.108 240.475 196.986 234.732C150.831 228.955 144.247 198.554 142.196 177.989C140.112 157.457 144.247 149.238 144.247 149.238Z" fill="#FCE8B3"/>
<path d="M257.963 111.409C235.696 158.679 243.935 183.336 255.481 196.078C267.028 208.819 223.752 218.689 259.187 221.99C294.622 225.258 316.856 231.035 328.005 217.468C339.122 203.901 348.188 185.812 334.59 167.327C320.991 148.809 317.683 143.065 317.683 143.065C317.683 143.065 303.257 157.853 308.617 177.989C313.977 198.157 311.926 170.199 282.678 149.238C253.43 128.277 257.963 111.409 257.963 111.409Z" fill="#EFA204"/>
<path d="M47.8349 131.545C23.9469 164.422 53.1948 201.029 53.1948 201.029C53.1948 201.029 15.7086 191.985 9.95166 182.115C11.1758 191.985 12.003 205.552 30.531 218.293C56.0071 235.788 98.5223 234.732 112.121 220.736C125.719 206.773 79.1671 169.374 60.606 159.108C42.0779 148.809 47.8349 131.545 47.8349 131.545Z" fill="#EFA204"/>
<path d="M267.855 129.498C259.617 141.415 248.07 168.548 253.827 181.686C264.183 205.287 232.818 204.297 229.112 215.817C225.406 227.338 231.991 234.732 262.496 235.557C292.968 236.382 316.061 227.338 313.15 205.948C310.271 184.591 285.986 161.55 285.986 161.55C285.986 161.55 288.865 173.071 285.556 177.593C284.101 179.573 275.267 173.467 272.388 168.548C262.793 152.176 267.855 129.498 267.855 129.498Z" fill="#FACF67"/>
<path d="M159.07 51.8279C166.481 71.9635 160.327 86.7516 152.089 97.8426C143.85 108.934 140.939 116.361 140.939 116.361C140.939 116.361 140.111 104.411 149.177 90.8777C158.243 77.3109 159.07 51.8279 159.07 51.8279Z" fill="#FACF67"/>
<path d="M114.569 129.498C76.2555 161.979 82.0455 190.73 82.0455 190.73C82.0455 190.73 76.6856 171.024 61.4331 166.073C46.1806 161.154 46.1806 161.154 46.1806 161.154C46.1806 161.154 31.3581 197.332 58.9517 213.342C86.5783 229.384 79.5641 234.303 109.242 230.209C138.887 226.083 152.485 222.815 147.125 204.726C141.765 186.637 128.597 173.896 119.532 157.028C110.466 140.193 114.569 129.498 114.569 129.498Z" fill="#FACF67"/>
<path d="M89.0271 220.736C70.9292 237.174 37.9426 228.163 26.4288 221.165C14.8819 214.167 8.69482 198.157 8.69482 198.157C8.69482 198.157 15.312 209.249 36.3214 210.074C57.3309 210.899 71.3262 203.901 83.2702 209.249C95.2141 214.596 89.0271 220.736 89.0271 220.736Z" fill="#FACF67"/>
<path d="M86.1485 126.198C103.055 111.409 83.27 89.2273 83.27 89.2273C83.27 89.2273 86.9756 99.097 87.4057 109.363C87.8028 119.629 86.1485 126.198 86.1485 126.198Z" fill="#FACF67"/>
<path d="M73.377 102.794C87.8024 89.6234 82.8726 67.4412 76.6856 59.6181C70.4986 51.8279 64.3115 47.3057 64.3115 47.3057C64.3115 47.3057 74.6343 57.5715 75.4614 73.1848C76.2555 88.7982 70.1015 90.0525 70.9287 94.1456C71.7227 98.2718 73.377 102.794 73.377 102.794Z" fill="#FC0001"/>
<path d="M233.248 177.989C251.379 191.16 242.313 205.948 231.163 214.992C220.046 224.037 209.327 228.559 206.448 222.386C203.57 216.213 204.794 209.249 204.794 209.249C204.794 209.249 212.238 210.074 223.752 201.425C235.299 192.81 233.248 177.989 233.248 177.989Z" fill="#FCE8B3"/>
<path d="M106.331 152.11C77.9101 182.115 84.4942 236.778 114.999 235.557C145.471 234.303 183.388 217.039 145.471 201.029C124.793 192.282 106.331 152.11 106.331 152.11Z" fill="#FCE8B3"/>
<path d="M94.3868 203.076C71.326 198.554 56.0735 177.164 56.0735 177.164C56.0735 177.164 53.195 196.903 65.139 210.47C77.083 224.037 79.1674 220.34 79.1674 220.34C79.1674 220.34 45.3868 221.561 36.3213 217.468C42.9054 222.815 47.8351 232.256 74.6346 235.557C101.401 238.825 120.359 230.606 120.359 230.606C120.359 230.606 119.102 233.906 151.261 235.953C183.388 238 190.402 236.778 187.093 228.163C183.785 219.514 160.327 224.433 134.785 205.122C109.242 185.812 94.3868 203.076 94.3868 203.076Z" fill="#FCE8B3"/>
<path d="M326.748 222.386C300.809 243.776 226.631 249.52 215.944 237.603C205.224 225.687 224.182 201.425 253.827 213.342C283.505 225.258 284.729 226.908 300.809 217.864C316.855 208.819 325.921 191.985 325.921 184.591C325.921 177.164 329.627 196.903 327.575 209.645C325.524 222.386 325.524 222.386 325.524 222.386H326.748Z" fill="#FCE8B3"/>
<path d="M161.948 147.158C144.346 125.834 168.962 109.759 168.962 109.759C168.962 109.759 155.364 124.151 166.481 136.496C177.631 148.809 170.186 168.548 170.186 168.548C170.186 168.548 167.738 154.156 161.948 147.158Z" fill="#FCE8B3"/>
<path d="M58.5548 169.374C37.1153 157.853 39.1997 144.287 46.6109 136.067C54.0221 127.848 57.3307 124.151 57.3307 124.151C57.3307 124.151 47.8351 135.671 48.6622 148.809C49.4893 161.979 58.5548 169.374 58.5548 169.374Z" fill="#FCE8B3"/>
</g>
</svg>
