<svg width="203" height="315" viewBox="0 0 203 315" fill="none" xmlns="http://www.w3.org/2000/svg">
<g opacity="0.3">
<path d="M91.4494 87.7431C34.7716 94.711 -8.19464 111.954 -39.95 160.17C-94.8772 243.233 -2.69724 319.422 54.9755 269.819C114.869 218.268 51.439 188.812 110.683 130.769C156.661 85.8739 141.605 42.3437 141.605 42.3437C141.605 42.3437 126.481 83.4597 91.4494 87.7431Z" fill="#FC0001"/>
<path d="M133.835 75.0447C95.8448 131.65 30.3881 82.812 -23.1743 146.757C-69.9378 202.774 -47.0996 245.612 -12.8344 262.975C21.4309 280.338 62.4169 279.513 71.4123 200.444C76.6696 154.708 100.475 133.085 100.475 133.085C100.475 133.085 54.5006 139.24 50.4462 170.275C46.2979 201.233 4.8469 168.11 47.1288 142.308C89.5048 116.582 95.4516 129.446 115.661 110.685C131.924 95.5978 133.835 75.0447 133.835 75.0447Z" fill="#FB6D01"/>
<path d="M-17.8053 271.928C-63.3493 226.359 -56.6567 182.895 -30.9644 153.404C5.80599 111.329 70.9335 117.233 70.9335 117.233C70.9335 117.233 24.797 124.354 16.7114 161.659C8.7965 198.947 30.0444 229.347 30.0444 229.347C30.0444 229.347 33.0576 206.872 49.8156 186.386C56.8109 177.834 65.7538 169.778 65.7538 169.778C65.7538 169.778 55.095 189.136 59.7617 213.345C66.4711 248.478 50.7893 267.649 32.2534 277.27C13.6406 286.984 -17.8053 271.928 -17.8053 271.928Z" fill="#EFA204"/>
<path d="M38.6286 139.276C37.4612 139.68 36.3251 140.11 35.2203 140.566C-21.9086 162.85 -43.6369 195.741 -38.4483 227.748C-33.1914 260.439 -22.8084 297.794 12.5722 280.62C31.6548 271.29 20.3517 255.77 12.2834 214.818C4.30909 173.944 38.6286 139.276 38.6286 139.276Z" fill="#FACF67"/>
<path d="M106.365 182.451C61.9461 190.348 58.0528 210.064 51.751 233.3C45.3552 256.459 37.3346 263.388 37.3346 263.388C37.3346 263.388 62.1241 259.353 70.1168 230.599C83.045 183.922 106.365 182.451 106.365 182.451Z" fill="#FCE8B3"/>
<path d="M8.53343 135.99C-29.0419 159.682 -10.4141 211.31 2.62376 232.955C15.6617 254.6 -1.83136 271.191 -1.83136 271.191C-1.83136 271.191 17.3026 262.373 22.5801 246.142C27.9515 229.988 24.4491 229.476 24.4491 229.476C24.4491 229.476 40.459 244.611 29.1343 267.66C20.0984 285.993 2.15117 288.566 -10.4919 284.655C-22.9642 280.726 -51.9842 264.046 -50.1444 213.475C-48.2106 162.981 8.53343 135.99 8.53343 135.99Z" fill="#FCE8B3"/>
<path d="M70.1256 69.5156C69.4368 99.6958 40.5143 117.604 31.4339 119.117C22.2767 120.723 42.5543 102.646 52.9069 95.7424C63.2595 88.8391 70.1256 69.5156 70.1256 69.5156Z" fill="#FCE8B3"/>
</g>
</svg>
