<svg width="269" height="111" viewBox="0 0 269 111" fill="none" xmlns="http://www.w3.org/2000/svg">
<g opacity="0.2">
<path d="M1.43457 37.4383C1.43457 37.4383 6.76216 51.3295 2.92458 67.8082C2.92458 67.8082 56.4936 77.535 76.1116 80.6566C95.7309 83.7795 172.689 100.636 172.689 100.636C172.689 100.636 180.596 94.2373 190.99 88.4265C201.383 82.6197 242.613 58.77 242.613 58.77C242.613 58.77 241.73 53.9177 242.922 47.4737C243.674 43.4164 243.594 36.5749 244.376 31.584C244.769 29.0788 244.908 27.3346 244.908 27.3346L73.7714 2.00854L1.43457 37.4383Z" fill="url(#paint0_radial_46313_7425)"/>
<path d="M23.0982 39.3552C41.5487 41.2138 125.448 57.744 140.385 59.7124C155.324 61.6815 170.457 66.1068 170.457 66.1068C176.096 61.2852 202.906 47.4135 211.722 43.0389C220.542 38.6644 244.909 27.334 244.909 27.334L73.7714 2.00854L1.43457 37.4383C1.43457 37.4383 4.64435 37.4992 23.0982 39.3552Z" fill="url(#paint1_radial_46313_7425)"/>
<path d="M244.92 27.3594C229.161 34.9826 213.292 42.3536 197.783 50.4882C192.467 53.2651 187.167 56.0882 181.948 59.0471C179.56 60.4018 177.161 61.7557 174.853 63.2449C172.661 64.6143 171.48 66.5452 168.943 65.8338C157.078 62.5054 145.072 60.6086 132.928 58.671C123.786 57.2119 114.672 55.5253 105.559 53.8741C91.6963 51.3636 77.8447 48.7975 63.9724 46.3325C54.15 44.5843 44.3244 42.8462 34.4867 41.1783C23.5276 39.3197 12.3575 38.8177 1.43652 37.4088C26.1957 38.6015 50.6003 43.2725 74.9348 47.716C92.7535 50.9681 110.549 54.3426 128.37 57.578C142.496 60.1434 156.646 62.0362 170.499 65.9603C173.994 62.2376 180.881 59.1542 185.672 56.4804C191.292 53.3441 196.958 50.2794 202.691 47.3579C207.3 45.0067 211.923 42.709 216.607 40.5083C225.814 36.1887 235.356 30.5338 244.92 27.3594Z" fill="url(#paint2_linear_46313_7425)"/>
<path d="M217.812 41.5278C213.251 43.6889 208.721 45.8876 204.228 48.1886C192.931 53.986 180.562 59.584 170.5 67.4281C146.487 60.7352 121.342 58.1135 96.8786 53.4707C87.4343 51.6957 77.984 49.9461 68.5357 48.1946C46.4446 44.0979 24.4356 40.5352 2.02197 38.8954C2.02932 38.9068 2.03533 38.9202 2.04268 38.9336C8.43151 39.9134 15.2391 40.2534 21.7401 40.9194C29.1141 41.6743 36.4305 43.0404 43.7397 44.2578C57.2059 46.502 70.6421 48.9924 84.0836 51.3945C97.3755 53.7665 110.652 56.2255 123.929 58.6771C131.978 60.1643 140.084 61.3322 148.128 62.8408C154.643 64.0656 161.122 65.53 167.53 67.2287C170.783 68.09 170.177 68.1704 172.844 66.4449C174.981 64.9477 177.259 63.6245 179.51 62.312C200.623 49.9087 222.819 39.5634 244.811 28.8567C235.699 31.9508 226.627 37.3527 217.812 41.5278Z" fill="url(#paint3_linear_46313_7425)"/>
<path d="M218.987 42.5585C212.699 45.5737 206.456 48.6524 200.282 51.8999C190.386 57.1023 179.385 62.0604 170.601 69.0733C165.023 67.5895 159.398 66.3265 153.757 65.1017C130.032 59.9508 105.762 56.7041 81.9024 52.2151C55.5697 47.2603 29.3144 42.4769 2.58301 40.3847C2.58902 40.4074 2.59637 40.4302 2.60238 40.4549C9.11409 41.4515 16.0172 41.8343 22.6184 42.5398C31.3267 43.4681 40.0177 45.1299 48.6359 46.6747C68.7527 50.2768 88.9003 53.7123 108.986 57.4878C120.069 59.5706 131.184 61.5049 142.283 63.4981C147.406 64.417 152.5 65.3681 157.583 66.4865C160.985 67.2341 164.357 68.0707 167.736 68.9153C170.623 69.6362 170.543 69.7787 172.953 68.0995C187.628 57.8626 204.46 50.1102 220.509 42.2527C228.58 38.2998 236.638 34.3229 244.703 30.3533C236.012 33.347 227.395 38.532 218.987 42.5585Z" fill="url(#paint4_linear_46313_7425)"/>
<path d="M218.974 44.1547C212.711 47.192 206.483 50.2828 200.328 53.5409C190.465 58.7641 179.478 63.7282 170.707 70.7163C158.15 67.4314 145.439 65.2308 132.663 63.0087C89.5538 55.5126 46.6005 45.4699 2.93457 41.8557C2.93858 41.8845 2.94592 41.9166 2.95327 41.9467C10.8755 43.1796 19.1411 43.5617 27.1475 44.6989C37.3812 46.1519 47.5475 48.0406 57.7278 49.8136C75.3662 52.887 92.9893 56.0541 110.586 59.3504C121.421 61.3817 132.28 63.3046 143.127 65.281C148.257 66.2167 153.359 67.2079 158.451 68.3263C161.684 69.0357 164.903 69.8121 168.108 70.6353C171.414 71.486 171.165 70.9245 174.143 69.0357C189.196 59.4876 205.229 51.3958 221.189 43.4908C228.878 39.6845 237.474 36.3963 244.567 31.7969C236.033 35.911 227.498 40.0212 218.974 44.1547Z" fill="url(#paint5_linear_46313_7425)"/>
<path d="M221.705 44.3999C213.897 48.2309 206.115 52.0941 198.451 56.2136C189.257 61.157 179.039 65.8394 170.816 72.3603C163.031 70.3497 155.178 68.5868 147.259 67.1866C99.5056 58.7642 51.6341 47.5476 3.26172 43.331C3.26907 43.3671 3.27708 43.4053 3.28443 43.4414C11.2481 44.7004 19.5671 45.1381 27.6055 46.302C35.9452 47.5101 44.2455 48.9972 52.5437 50.4583C65.3781 52.7178 78.2126 54.9754 91.035 57.3059C106.619 60.1396 122.189 63.0444 137.766 65.9237C143.124 66.9149 148.522 67.7897 153.844 68.9636C156.898 69.6369 159.967 70.2607 163.002 71.0103C164.894 71.4782 168.821 73.2284 170.804 72.9714C171.824 72.8402 173.397 71.2365 174.253 70.6984C176.512 69.2755 178.801 67.9102 181.107 66.5655C186.26 63.5644 191.476 60.6751 196.714 57.8239C204.792 53.4206 212.948 49.2 221.172 45.0805C228.828 41.2441 237.398 37.9231 244.458 33.2976C236.872 36.9955 229.284 40.6853 221.705 44.3999Z" fill="url(#paint6_linear_46313_7425)"/>
<path d="M220.986 46.3319C212.48 50.5505 204.022 54.8359 195.686 59.3952C187.443 63.9049 178.321 68.1348 170.921 74.0045C157.356 70.5523 143.614 68.175 129.846 65.7113C87.8867 58.2079 46.0535 48.7353 3.56104 44.8039C3.57039 44.8494 3.57773 44.8989 3.58775 44.9445C13.6986 46.605 24.2155 47.1511 34.3865 48.8759C42.4724 50.2473 50.5496 51.6662 58.6294 53.0697C76.1289 56.113 93.6004 59.3008 111.06 62.5549C120.521 64.3165 129.981 66.0794 139.439 67.8484C144.764 68.847 150.104 69.7887 155.397 70.9485C158.842 71.7055 162.273 72.4966 165.709 73.3091C167.105 73.6458 169.844 74.8345 171.181 74.5534C172.021 74.376 173.66 72.7938 174.362 72.3547C176.622 70.9432 178.905 69.5758 181.21 68.2312C186.352 65.2314 191.554 62.3327 196.773 59.4701C204.826 55.0535 212.958 50.8142 221.149 46.6639C228.779 42.7987 237.32 39.4415 244.348 34.7913C236.561 38.6343 228.766 42.4707 220.986 46.3319Z" fill="url(#paint7_linear_46313_7425)"/>
<path d="M218.935 48.9341C212.092 52.3689 205.284 55.8479 198.559 59.5096C189.419 64.4911 179.236 69.1648 171.029 75.6489C156.456 71.9056 141.624 69.452 126.834 66.7627C85.9608 59.3296 45.2028 50.3215 3.81299 46.283C3.819 46.3285 3.82635 46.3747 3.83035 46.4202C12.6729 47.904 21.8955 48.5312 30.8182 49.8744C38.9248 51.0899 46.9833 52.6018 55.0592 54.004C73.7809 57.2527 92.4785 60.6307 111.153 64.1398C120.614 65.9181 130.074 67.6964 139.532 69.4881C144.859 70.4981 150.197 71.4565 155.492 72.617C158.939 73.3707 162.374 74.1598 165.81 74.9683C167.197 75.2956 169.98 76.5492 171.288 76.1991C171.885 76.0392 172.853 75.0734 173.383 74.7193C188.107 64.6591 204.588 56.73 220.44 48.6061C228.391 44.5321 236.326 40.4327 244.268 36.3413C235.684 39.4522 227.208 44.7798 218.935 48.9341Z" fill="url(#paint8_linear_46313_7425)"/>
<path d="M216.874 51.5708C208.363 55.8904 199.947 60.37 191.622 65.039C184.769 68.8888 177.34 72.4494 171.137 77.2938C156.549 73.5946 141.72 71.0874 126.928 68.3714C86.0857 60.8753 45.345 51.9811 3.99463 47.7511C3.99997 47.7986 4.00598 47.8462 4.00999 47.8957C13.2493 49.4953 22.8973 50.2101 32.2221 51.6277C40.4081 52.8699 48.5528 54.4253 56.7121 55.8409C76.8156 59.3272 96.8817 62.9983 116.93 66.8006C126.496 68.613 136.058 70.4409 145.622 72.2767C150.61 73.2318 155.575 74.2779 160.538 75.3642C163.307 75.9726 169.831 79.0085 172.15 77.2831C175.338 74.9091 178.943 72.9996 182.372 71.0118C195.109 63.6221 208.042 56.6092 221.112 49.838C228.678 45.9139 237.181 42.4958 244.131 37.7847C235.043 42.374 225.951 46.962 216.874 51.5708Z" fill="url(#paint9_linear_46313_7425)"/>
<path d="M218.908 52.1242C212.593 55.3669 206.292 58.6196 200.07 62.0397C190.428 67.3352 180.113 72.3777 171.245 78.9394C153.641 74.5268 135.693 71.5899 117.857 68.2843C80.0639 61.2808 42.3607 53.3014 4.10791 49.2107C4.10991 49.2676 4.11125 49.3265 4.11125 49.3854C11.2688 50.6999 18.8458 51.0707 26.0621 52.252C38.0557 54.213 50.0279 56.2403 62.0007 58.3138C81.9466 61.772 101.844 65.4886 121.729 69.2942C130.819 71.031 139.906 72.798 148.994 74.5589C155.134 75.7496 161.24 77.1383 167.321 78.5874C169.136 79.0191 170.707 80.0692 172.254 78.9314C173.381 78.1001 174.607 77.3987 175.79 76.6531C180.245 73.9538 184.741 71.3175 189.279 68.7615C199.807 62.8308 210.388 57.0294 221.09 51.4207C228.629 47.4699 237.103 44.0197 244.021 39.2817C235.646 43.5572 227.272 47.8273 218.908 52.1242Z" fill="url(#paint10_linear_46313_7425)"/>
<path d="M218.896 53.7161C212.606 56.9836 206.322 60.2538 200.121 63.6846C190.495 69.0101 180.259 74.0773 171.354 80.5822C153.726 76.2211 135.792 73.2119 117.953 69.8775C80.0933 62.7977 42.3801 55.3418 4.1353 50.6782C4.1353 50.7504 4.1333 50.8207 4.1333 50.891C11.2394 52.3748 18.9513 52.6104 26.1329 53.7957C37.8667 55.728 49.5864 57.7158 61.3028 59.7431C80.9983 63.1478 100.648 66.8075 120.276 70.5943C129.58 72.3894 138.876 74.2139 148.174 76.0324C153.74 77.124 159.291 78.3126 164.808 79.6251C166.505 80.028 169.998 81.5594 171.607 81.1297C173.002 80.1258 174.44 79.2276 175.898 78.3167C180.35 75.6254 184.837 72.9891 189.362 70.423C199.859 64.477 210.412 58.6548 221.07 53.004C228.578 49.027 237.024 45.5427 243.91 40.7793C235.57 45.0882 227.229 49.3904 218.896 53.7161Z" fill="url(#paint11_linear_46313_7425)"/>
<path d="M219.526 54.9713C213.986 57.8814 208.436 60.7667 202.958 63.7892C192.521 69.5472 180.957 74.9618 171.455 82.2276C157.537 78.8229 143.448 76.2669 129.376 73.6071C87.7203 65.7463 46.1789 57.4149 4.10991 52.1214C4.10791 52.1328 4.10791 52.1442 4.10791 52.1556C4.11526 52.2105 4.11526 52.268 4.12327 52.3269C10.7739 53.7344 18.0336 53.9801 24.7491 55.0965C35.6967 56.9169 46.6404 58.7582 57.5788 60.6469C79.565 64.4472 101.496 68.5158 123.402 72.7839C132.23 74.5033 141.051 76.2589 149.874 78.003C156.659 79.3456 163.423 80.881 170.142 82.5161C172.953 83.2008 176.354 79.7733 178.88 78.2594C182.382 76.1631 185.903 74.1051 189.449 72.0872C199.916 66.1258 210.436 60.2808 221.05 54.5898C228.53 50.5801 236.95 47.0636 243.803 42.2761C235.709 46.5054 227.612 50.726 219.526 54.9713Z" fill="url(#paint12_linear_46313_7425)"/>
<path d="M219.103 56.7783C213.254 59.8865 207.398 62.9773 201.613 66.2067C191.598 71.7933 180.604 77.0312 171.433 83.9664C171.579 82.7449 133.208 75.9355 129.47 75.2247C87.8202 67.2856 46.2554 59.0459 4.19971 53.5791C4.20171 53.646 4.20505 53.7123 4.20305 53.7792C10.7248 55.1867 17.8569 55.4719 24.4375 56.5749C35.1173 58.3632 45.7939 60.1663 56.4664 62.0075C77.8456 65.694 99.1753 69.606 120.462 73.7924C131.051 75.8753 141.626 77.9923 152.187 80.1962C158.046 81.4211 163.884 82.6766 169.713 84.048C172.763 84.7689 174.423 82.6559 177.073 81.0717C180.344 79.1167 183.62 77.1777 186.912 75.2662C197.841 68.9267 208.861 62.7718 219.965 56.7536C227.771 52.5236 236.5 48.7669 243.693 43.7739C235.495 48.1029 227.291 52.4306 219.103 56.7783Z" fill="url(#paint13_linear_46313_7425)"/>
<path d="M219.103 58.3932C213.266 61.5068 207.429 64.611 201.662 67.8503C195.796 71.1466 189.963 74.5018 184.153 77.8931C180.988 79.7417 173.234 83.0574 171.803 85.5471C156.648 82.1311 141.424 79.1146 126.168 76.1891C85.6094 68.4059 45.1119 60.5089 4.16956 55.0193C4.16622 55.0842 4.16421 55.1465 4.1582 55.2134C10.9665 56.7407 18.4272 57.0888 25.3149 58.2507C33.8142 59.685 42.3135 61.1059 50.8048 62.5743C72.0283 66.2414 93.2425 69.9653 114.367 74.1618C123.311 75.9381 132.275 77.6408 141.195 79.5161C145.838 80.492 150.478 81.4678 155.119 82.4416C158.141 83.0748 161.17 83.6912 164.178 84.3799C166.072 84.8156 169.932 86.5598 171.798 86.1602C173.14 85.8711 175.131 83.9616 176.35 83.2347C198.45 70.0135 221.099 57.8156 243.612 45.3232C235.282 48.6811 227.143 54.1057 219.103 58.3932Z" fill="url(#paint14_linear_46313_7425)"/>
<path d="M215.835 61.7413C206.402 66.8293 197.066 72.0792 187.814 77.4885C185.315 78.9489 182.803 80.3912 180.319 81.8743C178.015 83.2497 172.822 85.6559 171.909 87.1905C157.87 84.0442 143.78 81.199 129.66 78.4542C87.9153 70.3424 46.2009 62.266 4.07046 56.4492C4.06311 56.5268 4.0571 56.6072 4.05176 56.6848C11.4845 58.4062 19.4809 58.7884 26.9757 60.0607C36.4901 61.6771 46.0032 63.2981 55.5123 64.9379C78.294 68.8693 101.015 73.0537 123.683 77.5982C132.342 79.335 140.997 81.0886 149.638 82.9144C154.019 83.8427 158.407 84.7249 162.778 85.6973C165.071 86.2074 169.648 88.2822 171.902 87.8029C173.252 87.5158 175.244 85.6251 176.461 84.8969C178.089 83.9231 179.714 82.9399 181.348 81.9814C201.888 69.9281 222.738 58.4718 243.502 46.8201C234.116 50.6538 224.873 56.8682 215.835 61.7413Z" fill="url(#paint15_linear_46313_7425)"/>
<path d="M226.54 57.5031C221.787 60.1127 217.019 62.6975 212.259 65.2957C206.434 68.4722 200.664 71.7511 194.92 75.0781C190.546 77.6134 186.166 80.1487 181.813 82.7228C179.436 84.1283 177.069 85.5452 174.708 86.9815C173.949 87.4454 171.825 88.7163 172.015 88.8341C157.968 85.7032 143.877 82.8386 129.752 80.0717C87.949 71.8756 46.1472 63.8741 3.96594 57.8766C3.9626 57.9335 3.95659 57.989 3.95459 58.0439C10.835 59.7024 18.4493 60.1361 25.4479 61.3328C33.9492 62.7879 42.4519 64.2409 50.9491 65.7053C72.1914 69.365 93.4262 73.0682 114.553 77.3403C123.5 79.1495 132.46 80.8936 141.387 82.7877C146.029 83.7749 150.67 84.7601 155.314 85.7433C158.338 86.3845 161.365 87.0083 164.381 87.691C166.259 88.1166 170.157 89.8575 172 89.4445C172.744 89.2772 173.604 88.3777 174.253 87.9707C196.727 73.846 220.319 61.4065 243.391 48.3164C237.69 50.6743 232.038 54.4846 226.54 57.5031Z" fill="url(#paint16_linear_46313_7425)"/>
<path d="M225.615 59.5512C219.522 62.9351 213.356 66.2046 207.309 69.6682C201.444 72.9933 195.61 76.3745 189.781 79.7679C186.928 81.4284 184.09 83.1137 181.245 84.7896C180.312 85.3377 172.304 90.593 172.121 90.4766C156.1 86.9273 140.024 83.6973 123.925 80.5154C84.0443 72.6298 44.0951 65.1833 3.8634 59.3022C3.86006 59.3517 3.85606 59.4032 3.85205 59.4541C10.6336 61.1374 18.1765 61.5938 25.0776 62.8019C36.0313 64.7154 46.981 66.6684 57.9474 68.5157C80.0004 72.2282 101.96 76.3444 123.871 80.8106C132.532 82.5776 141.186 84.3619 149.831 86.2051C154.214 87.1408 158.602 88.0443 162.979 89.0108C165.252 89.5128 169.874 91.5809 172.105 91.0896C172.847 90.9223 173.716 90.0342 174.367 89.6286C176.736 88.1508 179.152 86.7372 181.558 85.3163C202.004 73.2476 222.688 61.6226 243.284 49.8123C237.289 52.3295 231.387 56.3506 225.615 59.5512Z" fill="url(#paint17_linear_46313_7425)"/>
<path d="M208.129 70.8555C202.123 74.2776 196.151 77.7559 190.185 81.2443C187.234 82.9731 184.292 84.7172 181.347 86.4561C180.4 87.0156 172.443 92.2555 172.225 92.1223C156.198 88.5884 140.119 85.3323 124.022 82.121C84.0804 74.1591 44.0571 66.7848 3.7793 60.7324C3.7793 60.7706 3.7813 60.8067 3.7793 60.8429C5.84034 61.2953 8.13714 61.5356 10.2095 61.8796C52.529 68.94 94.7423 76.3711 136.762 85.0559C146.045 86.9728 155.332 88.9264 164.581 90.9999C166.548 91.443 170.463 93.1416 172.353 92.6417C173.151 92.4309 173.982 91.5882 174.703 91.1525C176.671 89.9672 178.641 88.7865 180.611 87.6073C183.878 85.6502 187.158 83.714 190.44 81.7891C198.586 77.013 206.721 72.2235 214.926 67.5505C224.222 62.2591 234.595 57.5171 243.145 51.2612C231.482 57.8016 219.749 64.2362 208.129 70.8555Z" fill="url(#paint18_linear_46313_7425)"/>
<path d="M225.255 62.8368C219.564 66.0628 213.834 69.2292 208.159 72.4894C196.059 79.4413 183.836 86.319 172.068 93.8305C172.089 93.7602 132.263 85.3666 127.875 84.4858C86.6545 76.204 45.3468 68.5961 3.79741 62.1769C3.79541 62.211 3.79741 62.2452 3.79541 62.2813C5.63472 62.6882 7.68441 62.9185 9.52772 63.2324C51.8285 70.4755 94.0632 77.7714 136.081 86.5231C144.884 88.357 153.662 90.316 162.448 92.2295C166.458 93.1023 170.786 95.3391 174.365 93.0876C177.935 90.8448 181.602 88.7452 185.229 86.5921C204.431 75.1973 223.799 64.0911 243.065 52.8081C237.014 55.409 231.074 59.5365 225.255 62.8368Z" fill="url(#paint19_linear_46313_7425)"/>
<path d="M225.872 64.0134C219.726 67.5305 213.578 71.049 207.432 74.5642C195.589 81.3434 183.72 88.1983 172.177 95.4736C172.192 95.4127 132.357 86.9883 127.969 86.0981C86.7232 77.746 45.3635 70.2124 3.80136 63.6158C3.80336 63.648 3.79936 63.6808 3.80136 63.7129C5.41092 64.0723 7.21016 64.2892 8.81772 64.5729C51.0978 71.9947 93.3665 79.1669 135.386 87.9855C144.189 89.8321 152.971 91.7838 161.759 93.6993C165.281 94.4656 170.714 97.0772 173.946 95.0747C177.479 92.8874 181.068 90.7892 184.639 88.6648C204.03 77.1269 223.537 65.7924 242.956 54.304C237.155 56.6492 231.371 60.8657 225.872 64.0134Z" fill="url(#paint20_linear_46313_7425)"/>
<path d="M172.428 97.0296C153.089 92.8967 133.737 88.8394 114.358 84.8926C77.6417 77.4139 40.7313 71.0663 3.74807 65.0447C3.74607 65.0768 3.74406 65.1116 3.74072 65.1437C7.01461 65.9944 10.6872 66.3819 14.0526 66.9736C59.4129 74.9449 104.658 82.8024 149.663 92.6798C153.729 93.57 157.795 94.4548 161.862 95.3409C164.453 95.9058 170.832 98.6807 173.256 97.2257C180.889 92.6303 188.54 88.0617 196.197 83.5005C204.696 78.4393 213.203 73.3948 221.718 68.3563C228.672 64.2402 236.463 60.5484 242.818 55.7495C219.262 69.3449 195.655 82.8706 172.428 97.0296Z" fill="url(#paint21_linear_46313_7425)"/>
<path d="M211.659 75.4148C209.699 76.5633 172.819 98.9318 172.646 98.6982C153.263 94.5519 133.869 90.4733 114.449 86.491C77.6541 78.9473 40.6489 72.65 3.60554 66.4583C3.59953 66.4871 3.5982 66.5152 3.59619 66.544C10.9488 68.6476 19.2677 69.4106 26.852 70.7532C38.6139 72.83 50.3744 74.9262 62.1509 76.9274C89.0379 81.498 115.709 86.8885 142.363 92.69C148.636 94.058 154.902 95.4421 161.174 96.8101C164.224 97.4761 167.274 98.1414 170.324 98.8053C170.945 98.9405 172.258 99.5302 172.852 99.1761C181.862 93.7816 190.876 88.3877 199.887 82.9912C207.155 78.6415 214.424 74.2891 221.693 69.9393C228.621 65.793 236.382 62.0704 242.71 57.2468C232.353 63.2892 221.999 69.3416 211.659 75.4148Z" fill="url(#paint22_linear_46313_7425)"/>
<path d="M226.617 68.1696C221.83 70.9961 217.055 73.8359 212.272 76.6704C199.007 84.5392 185.77 92.4557 172.535 100.377C172.339 99.8828 167.215 99.1526 166.065 98.907C162.158 98.0663 158.251 97.2277 154.344 96.3904C149.385 95.3236 144.42 94.2962 139.456 93.2555C94.2327 83.7756 48.8704 75.639 3.33118 67.8477C3.32717 67.8631 3.32383 67.8778 3.31982 67.8932C11.7904 70.4171 21.4985 71.3073 30.2449 72.9089C41.8438 75.0299 53.4687 77.0077 65.0923 78.9767C87.4719 82.771 109.692 87.1803 131.872 92.0246C143.053 94.4689 154.238 96.9111 165.421 99.3554C166.831 99.6633 171.646 101.61 172.98 100.808C177.579 98.0543 182.178 95.3022 186.777 92.5494C205.438 81.3728 224.037 70.0899 242.628 58.7915C237.189 61.2331 231.835 65.0942 226.617 68.1696Z" fill="url(#paint23_linear_46313_7425)"/>
<path opacity="0.4" d="M190.978 88.5731C201.371 82.7643 242.602 58.9167 242.602 58.9167C242.602 58.9167 241.719 54.0643 242.911 47.6203C243.662 43.559 243.583 36.7215 244.365 31.7306C244.757 29.2234 244.894 27.4792 244.894 27.4792C244.894 27.4792 220.53 38.8117 211.71 43.1862C202.894 47.5587 176.085 61.4305 170.446 66.2508C170.446 66.2508 170.389 66.2354 170.281 66.2053C170.718 77.679 171.426 89.1748 172.188 100.675C172.511 100.743 172.678 100.779 172.678 100.779C172.678 100.779 180.585 94.3839 190.978 88.5731Z" fill="url(#paint24_linear_46313_7425)"/>
<path d="M140.386 59.713C125.448 57.7446 41.5492 41.2137 23.0987 39.3558C4.64417 37.4991 1.43506 37.4382 1.43506 37.4382C1.43506 37.4382 6.76264 51.3294 2.92507 67.8081C2.92507 67.8081 56.4941 77.535 76.1121 80.6566C94.8191 83.6329 165.651 99.0949 172.202 100.527C171.438 89.0274 170.73 77.5336 170.293 66.0599C168.633 65.5827 154.427 61.5636 140.386 59.713Z" fill="url(#paint25_linear_46313_7425)"/>
<path d="M1.58057 35.5951L75.5991 1.08228C75.5991 1.08228 143.491 14.3852 165.24 16.4091C186.989 18.431 245.113 25.984 245.113 25.984C245.113 25.984 223.334 35.3742 209.869 43.0872C196.405 50.7981 173.107 60.9493 169.833 65.372C169.833 65.372 167.337 63.7115 158.382 62.4124C149.427 61.1166 91.0015 50.0284 83.546 48.2628C76.0906 46.4979 1.58057 35.5951 1.58057 35.5951Z" fill="url(#paint26_linear_46313_7425)"/>
<path d="M1.58057 35.5951L75.5991 1.08228C75.5991 1.08228 143.491 14.3852 165.24 16.4091C186.989 18.431 245.113 25.984 245.113 25.984C245.113 25.984 223.334 35.3742 209.869 43.0872C196.405 50.7981 173.107 60.9493 169.833 65.372C169.833 65.372 167.337 63.7115 158.382 62.4124C149.427 61.1166 91.0015 50.0284 83.546 48.2628C76.0906 46.4979 1.58057 35.5951 1.58057 35.5951Z" fill="url(#paint27_linear_46313_7425)"/>
<path d="M73.0537 0C73.0537 0 109.961 6.15684 123.398 9.86004C136.837 13.5632 164.01 17.1888 171.894 17.2303C179.778 17.2725 244.428 23.5853 244.428 23.5853C244.428 23.5853 235.348 27.5475 215.869 37.4169C196.39 47.285 179.455 58.2346 168.261 59.3932C157.07 60.5517 140.86 58.6777 122.346 56.3271C103.835 53.9746 46.7317 40.9434 40.9259 40.4809C35.1202 40.0204 6.50401 32.4735 0.000976562 33.4205C0.000976562 33.4205 19.9449 25.0517 32.4246 18.7255C44.9024 12.3993 73.0537 0 73.0537 0Z" fill="url(#paint28_radial_46313_7425)"/>
<g opacity="0.6">
<path d="M150.946 52.5753C142.704 51.9193 133.365 50.7641 124.501 49.6404C113.449 48.2369 88.5035 43.0097 68.4567 38.8099C49.4732 34.8349 42.0459 33.311 39.3624 33.0981C37.6032 32.9596 31.8649 31.7194 26.3176 30.5207L21.1416 29.4003L25.2036 27.4888C28.1629 26.0966 30.8197 24.8029 33.1051 23.645C43.757 18.2452 66.1533 8.25728 72.7618 5.32644L73.1792 5.14038L73.6307 5.21668C82.2816 6.69248 111.397 11.7483 122.869 14.9094C135.733 18.4567 158.811 21.688 169.846 22.5655C172.032 22.7401 173.834 22.8318 175.196 22.8392C175.959 22.8432 178.337 22.9362 185.694 23.5219C193.438 24.1383 204.906 25.1516 219.776 26.5384L225.041 27.029L217.894 30.6331C212.372 33.4308 207.124 36.2686 202.049 39.0113C189.609 45.7391 177.888 52.0726 170.734 52.8142C165.837 53.3222 159.365 53.2445 150.946 52.5753ZM30.5231 28.316C34.505 29.166 38.4073 29.9725 39.6035 30.0676C42.464 30.2958 49.9568 31.8305 69.0778 35.8329C89.0691 40.0233 113.953 45.2344 124.881 46.6232C133.711 47.7436 143.009 48.8921 151.188 49.5427C159.419 50.1973 165.711 50.2789 170.424 49.7897C176.977 49.1123 188.441 42.9133 200.579 36.3496C205.002 33.9622 209.529 31.5146 214.256 29.0777C201.925 27.9399 192.253 27.0919 185.456 26.5518C177.924 25.9527 175.763 25.8825 175.182 25.8765C173.746 25.8691 171.868 25.7734 169.607 25.5933C158.455 24.7072 135.109 21.435 122.067 17.8402C110.921 14.7682 82.7057 9.84954 73.5746 8.28807C66.5005 11.4284 44.8483 21.0963 34.4756 26.3557C33.2561 26.9748 31.937 27.6273 30.5231 28.316Z" fill="#91AA70"/>
</g>
<path opacity="0.6" d="M132.765 53.6098C129.793 52.7022 123.594 50.363 127.147 46.3593C130.324 42.7779 135.114 40.6261 139.337 38.5553C144.714 35.917 149.972 32.9915 155.106 29.8987C161.073 26.3039 167.018 22.3437 171.814 17.2309C163.833 17.166 136.791 13.5545 123.397 9.86068C121.458 9.32457 119.026 8.74028 116.287 8.12988C107.72 11.8197 99.1257 15.4453 90.4895 18.9678C84.486 21.4194 78.4558 23.7499 72.6407 26.6272C67.6644 29.0882 62.7329 31.7212 57.5515 33.7331C52.4764 35.7035 47.1829 37.2462 41.707 37.4082C35.3736 37.5929 29.1418 36.1017 22.9506 34.9639C19.7221 34.3702 16.503 33.899 13.2425 33.5624C11.0312 33.3362 8.96079 33.0183 7.09877 31.7345C6.66199 31.432 6.34141 31.1221 6.11367 30.8082C2.4257 32.4025 0 33.4218 0 33.4218C6.50237 32.4748 35.1185 40.0217 40.925 40.4822C46.7307 40.9447 103.834 53.9752 122.345 56.3284C122.738 56.3759 123.124 56.4255 123.513 56.475C130.576 56.8779 139.22 57.0017 144.7 55.7749C140.676 55.4637 136.694 54.8058 132.765 53.6098Z" fill="url(#paint29_radial_46313_7425)"/>
<path d="M109.104 87.0397L108.15 53.0028C108.15 53.0028 174.81 17.3167 175.557 17.0844C176.307 16.8502 163.057 14.4789 150.821 12.1886C138.586 9.89623 121.337 8.23438 121.337 8.23438C121.337 8.23438 53.4548 40.8926 52.0923 41.5164C50.7272 42.1401 52.121 42.9808 52.2686 46.6519C52.4149 50.3243 55.0416 68.8316 55.1879 72.5027C55.3361 76.1737 55.6681 77.5184 55.6681 77.5184C55.6681 77.5184 76.0848 81.6305 82.8837 82.4638C89.6819 83.2984 109.104 87.0397 109.104 87.0397Z" fill="url(#paint30_linear_46313_7425)"/>
<path d="M106.781 86.8535L105.826 52.8165C105.826 52.8165 172.486 17.1318 173.234 16.8982C173.984 16.6659 160.733 14.2946 148.497 12.0043C136.265 9.71263 119.013 8.0481 119.013 8.0481C119.013 8.0481 51.1313 40.7083 49.7689 41.3321C48.4064 41.9559 49.7996 42.7965 49.9459 46.4676C50.0935 50.14 52.7189 68.6473 52.8671 72.3184C53.0134 75.9895 53.3453 77.3341 53.3453 77.3341C53.3453 77.3341 73.7621 81.4462 80.561 82.2795C87.3612 83.1141 106.781 86.8535 106.781 86.8535Z" fill="url(#paint31_linear_46313_7425)"/>
<path d="M105.826 52.816C105.826 52.816 107.05 52.1621 109.154 51.0357C107.036 51.6936 106.333 52.812 104.264 52.2532C98.6406 50.7312 90.904 49.6851 84.9901 48.4756C73.665 46.1606 62.3447 44.2363 50.7825 41.942C50.5261 41.8911 50.46 41.5485 50.5949 41.343C50.7258 41.1415 50.8627 40.9434 50.9956 40.7473C50.295 41.082 49.8642 41.2854 49.7694 41.3309C48.4069 41.9547 49.8001 42.7954 49.9464 46.4664C50.094 50.1388 52.7194 68.6462 52.8676 72.3172C53.0139 75.9883 53.3458 77.3329 53.3458 77.3329C53.3458 77.3329 73.7625 81.4451 80.5614 82.2784C87.3617 83.113 106.783 86.853 106.783 86.853L105.826 52.816Z" fill="url(#paint32_linear_46313_7425)"/>
<path opacity="0.4" d="M105.937 56.7132C105.783 58.6535 105.553 60.5516 105.261 62.3621C103.991 70.2537 100.876 79.6921 91.4853 80.1004C85.0871 80.3761 79.0248 77.877 72.9339 76.3095C68.5667 75.1837 63.5784 74.5579 60.2023 71.2443C57.243 68.3415 56.3173 64.0929 55.4992 60.1728C54.1267 53.5843 52.443 47.6061 49.2132 41.8462C48.9988 42.5121 49.8356 43.6667 49.9458 46.4663C50.0934 50.1387 52.7188 68.6461 52.8671 72.3171C53.0134 75.9882 53.3453 77.3328 53.3453 77.3328C53.3453 77.3328 73.762 81.445 80.5609 82.2782C87.3612 83.1129 106.782 86.8529 106.782 86.8529L105.937 56.7132Z" fill="url(#paint33_linear_46313_7425)"/>
<path d="M158.878 52.5007C158.878 52.5007 156.17 53.4538 145.613 55.8352C140.133 57.0713 131.465 56.9462 124.384 56.5426C142.407 58.8229 158.179 60.5979 169.135 59.4641C172.289 59.1368 175.903 58.0298 179.896 56.3907C165.953 59.8422 158.878 52.5007 158.878 52.5007Z" fill="url(#paint34_linear_46313_7425)"/>
<path d="M242.278 63.721C255.361 62.0973 266.942 68.6771 268.146 78.4174C269.349 88.1576 259.721 97.3691 246.636 98.9928C233.554 100.617 221.972 94.0367 220.769 84.2964C219.565 74.5575 229.195 65.3454 242.278 63.721Z" fill="#FBDE00"/>
<path d="M268.463 80.0664C268.463 89.4359 259.091 97.6641 246.663 99.2069C233.483 100.843 221.771 94.1657 220.555 84.3238C220.486 83.7696 220.451 83.2061 220.451 82.6485C220.451 73.2784 229.823 65.0501 242.25 63.5074C248.624 62.7163 254.846 63.822 259.772 66.621C264.718 69.4313 267.768 73.6117 268.358 78.3912C268.427 78.9453 268.463 79.5089 268.463 80.0664ZM220.882 82.6485C220.882 83.188 220.915 83.7341 220.982 84.2702C222.17 93.8773 233.666 100.386 246.611 98.7792C258.823 97.2632 268.033 89.2183 268.033 80.0664C268.033 79.527 267.999 78.9808 267.933 78.444C267.359 73.8025 264.386 69.7365 259.561 66.9951C254.714 64.2423 248.586 63.1547 242.304 63.9344C230.092 65.451 220.882 73.4959 220.882 82.6485Z" fill="#FCA500"/>
<path d="M242.424 65.595C253.287 64.247 262.903 69.7098 263.902 77.7969C264.901 85.8839 256.906 93.532 246.043 94.8806C235.18 96.2286 225.564 90.7658 224.565 82.6787C223.566 74.5916 231.562 66.9429 242.424 65.595Z" fill="#FDBA19"/>
<path d="M242.424 65.595C253.287 64.247 262.903 69.7098 263.902 77.7969C264.901 85.8839 256.906 93.532 246.043 94.8806C235.18 96.2286 225.564 90.7658 224.565 82.6787C223.566 74.5916 231.562 66.9429 242.424 65.595Z" fill="#FDBA19"/>
<path d="M246.473 93.8033C235.61 95.1519 225.994 89.6884 224.995 81.6014C224.778 79.8478 224.986 78.1143 225.553 76.4612C224.671 78.4309 224.301 80.5385 224.565 82.6783C225.564 90.7653 235.181 96.2281 246.043 94.8802C254.55 93.824 261.297 88.9047 263.344 82.9373C260.895 88.4121 254.462 92.812 246.473 93.8033Z" fill="#FDBA19"/>
<path d="M246.636 98.9931C234.595 100.488 223.833 95.0302 221.256 86.5582C221.177 87.4825 221.189 88.4176 221.306 89.3586C222.51 99.0988 234.091 105.678 247.175 104.054C260.258 102.431 269.888 93.2191 268.683 83.4788C268.588 82.7031 268.42 81.9502 268.196 81.2173C267.455 89.8659 258.457 97.5266 246.636 98.9931Z" fill="#FBB121"/>
<path d="M269 85.1278C269 94.4973 259.629 102.726 247.2 104.268C234.021 105.904 222.309 99.2272 221.092 89.3852C220.977 88.4522 220.96 87.4931 221.041 86.54C221.05 86.4369 221.13 86.3553 221.233 86.3446C221.336 86.3339 221.431 86.3975 221.461 86.4958C224.035 94.9591 234.847 100.24 246.61 98.7794C258.244 97.3351 267.232 89.942 267.982 81.1991C267.99 81.0967 268.07 81.0143 268.173 81.0036C268.275 80.9929 268.371 81.0565 268.402 81.1549C268.638 81.9313 268.804 82.7043 268.896 83.4532C268.965 84.0067 269 84.571 269 85.1278ZM221.421 87.728C221.421 88.2641 221.454 88.8036 221.519 89.3323C222.706 98.9394 234.204 105.448 247.147 103.841C259.361 102.325 268.57 94.2804 268.57 85.1285C268.57 84.589 268.536 84.0429 268.47 83.5061C268.422 83.1266 268.356 82.7398 268.271 82.3496C266.875 90.8021 258.004 97.7995 246.663 99.2071C235.191 100.631 224.598 95.7187 221.42 87.6818C221.421 87.6966 221.421 87.7119 221.421 87.728Z" fill="#D38622"/>
<path d="M246.636 98.9931C234.595 100.488 223.833 95.0302 221.256 86.5582C221.177 87.4825 221.189 88.4176 221.306 89.3586C222.51 99.0988 234.091 105.678 247.175 104.054C260.258 102.431 269.888 93.2191 268.683 83.4788C268.588 82.7031 268.42 81.9502 268.196 81.2173C267.455 89.8659 258.457 97.5266 246.636 98.9931Z" fill="#FBB121"/>
<path d="M269 85.1278C269 94.4973 259.629 102.726 247.2 104.268C234.021 105.904 222.309 99.2272 221.092 89.3852C220.977 88.4522 220.96 87.4931 221.041 86.54C221.05 86.4369 221.13 86.3553 221.233 86.3446C221.336 86.3339 221.431 86.3975 221.461 86.4958C224.035 94.9591 234.847 100.24 246.61 98.7794C258.244 97.3351 267.232 89.942 267.982 81.1991C267.99 81.0967 268.07 81.0143 268.173 81.0036C268.275 80.9929 268.371 81.0565 268.402 81.1549C268.638 81.9313 268.804 82.7043 268.896 83.4532C268.965 84.0067 269 84.571 269 85.1278ZM221.421 87.728C221.421 88.2641 221.454 88.8036 221.519 89.3323C222.706 98.9394 234.204 105.448 247.147 103.841C259.361 102.325 268.57 94.2804 268.57 85.1285C268.57 84.589 268.536 84.0429 268.47 83.5061C268.422 83.1266 268.356 82.7398 268.271 82.3496C266.875 90.8021 258.004 97.7995 246.663 99.2071C235.191 100.631 224.598 95.7187 221.42 87.6818C221.421 87.6966 221.421 87.7119 221.421 87.728Z" fill="#D38622"/>
<path d="M231.332 96.9023V101.544C231.332 101.662 231.237 101.759 231.119 101.759C231 101.759 230.905 101.662 230.905 101.544V96.9023C230.905 96.7845 231 96.6875 231.119 96.6875C231.237 96.6875 231.332 96.7839 231.332 96.9023Z" fill="#E59D3F"/>
<path d="M234.644 98.0549V102.968C234.644 103.087 234.549 103.183 234.431 103.183C234.312 103.183 234.216 103.087 234.216 102.968V98.0549C234.216 97.9365 234.312 97.8401 234.431 97.8401C234.549 97.8401 234.644 97.9365 234.644 98.0549Z" fill="#E59D3F"/>
<path d="M238.068 98.8311V103.867C238.068 103.985 237.972 104.081 237.853 104.081C237.736 104.081 237.64 103.985 237.64 103.867V98.8311C237.64 98.7126 237.736 98.6162 237.853 98.6162C237.972 98.6162 238.068 98.7126 238.068 98.8311Z" fill="#E59D3F"/>
<path d="M240.844 99.1645V104.228C240.844 104.346 240.748 104.443 240.63 104.443C240.511 104.443 240.417 104.347 240.417 104.228V99.1645C240.417 99.0461 240.512 98.9497 240.63 98.9497C240.747 98.9497 240.844 99.0461 240.844 99.1645Z" fill="#E59D3F"/>
<path d="M243.676 99.22V104.284C243.676 104.402 243.58 104.499 243.462 104.499C243.344 104.499 243.247 104.402 243.247 104.284V99.22C243.247 99.1015 243.343 99.0051 243.462 99.0051C243.58 99.0051 243.676 99.1015 243.676 99.22Z" fill="#E59D3F"/>
<path d="M246.785 99.0386V104.133C246.785 104.252 246.689 104.348 246.57 104.348C246.452 104.348 246.356 104.252 246.356 104.133V99.0386C246.356 98.9201 246.452 98.8237 246.57 98.8237C246.689 98.8237 246.785 98.9201 246.785 99.0386Z" fill="#E59D3F"/>
<path d="M250.212 98.4458V103.58C250.212 103.698 250.116 103.795 249.998 103.795C249.881 103.795 249.785 103.698 249.785 103.58V98.4458C249.785 98.328 249.881 98.231 249.998 98.231C250.116 98.2316 250.212 98.328 250.212 98.4458Z" fill="#E59D3F"/>
<path d="M253.523 97.5383V102.672C253.523 102.79 253.427 102.887 253.31 102.887C253.191 102.887 253.095 102.79 253.095 102.672V97.5383C253.095 97.4199 253.191 97.3235 253.31 97.3235C253.427 97.3235 253.523 97.4199 253.523 97.5383Z" fill="#E59D3F"/>
<path d="M256.991 96.0376V101.29C256.991 101.408 256.895 101.505 256.777 101.505C256.66 101.505 256.563 101.409 256.563 101.29V96.0376C256.563 95.9191 256.66 95.8228 256.777 95.8228C256.894 95.8228 256.991 95.9191 256.991 96.0376Z" fill="#E59D3F"/>
<path d="M260.538 93.7291V99.1959C260.538 99.3143 260.442 99.4107 260.323 99.4107C260.206 99.4107 260.109 99.3143 260.109 99.1959V93.7291C260.109 93.6113 260.206 93.5149 260.323 93.5149C260.442 93.5149 260.538 93.6113 260.538 93.7291Z" fill="#E59D3F"/>
<path d="M263.633 91.0587V96.6673C263.633 96.7858 263.538 96.8822 263.419 96.8822C263.302 96.8822 263.206 96.7858 263.206 96.6673V91.0587C263.206 90.9409 263.302 90.8445 263.419 90.8445C263.538 90.8438 263.633 90.9402 263.633 91.0587Z" fill="#E59D3F"/>
<path d="M266.317 87.5349V93.4488C266.317 93.5673 266.221 93.6636 266.102 93.6636C265.984 93.6636 265.888 93.5673 265.888 93.4488V87.5349C265.888 87.4164 265.984 87.3201 266.102 87.3201C266.221 87.3201 266.317 87.4164 266.317 87.5349Z" fill="#E59D3F"/>
<path d="M268.245 83.9629V89.5261C268.245 89.6445 268.149 89.7409 268.032 89.7409C267.913 89.7409 267.818 89.6445 267.818 89.5261V83.9629C267.818 83.8451 267.913 83.748 268.032 83.748C268.149 83.748 268.245 83.8451 268.245 83.9629Z" fill="#E59D3F"/>
<path d="M228.535 95.4233V100.037C228.535 100.155 228.439 100.252 228.321 100.252C228.203 100.252 228.107 100.155 228.107 100.037V95.4233C228.107 95.3049 228.203 95.2085 228.321 95.2085C228.439 95.2085 228.535 95.3049 228.535 95.4233Z" fill="#E59D3F"/>
<path d="M225.988 93.7053V97.9754C225.988 98.0939 225.892 98.1903 225.774 98.1903C225.656 98.1903 225.561 98.0939 225.561 97.9754V93.7053C225.561 93.5869 225.657 93.4905 225.774 93.4905C225.892 93.4911 225.988 93.5875 225.988 93.7053Z" fill="#E59D3F"/>
<path d="M223.49 91.0059V95.0799C223.49 95.1983 223.394 95.2947 223.276 95.2947C223.158 95.2947 223.062 95.1983 223.062 95.0799V91.0059C223.062 90.8874 223.158 90.791 223.276 90.791C223.394 90.7917 223.49 90.8874 223.49 91.0059Z" fill="#E59D3F"/>
<path d="M251.124 71.9219C245.265 72.0805 242.967 75.8038 242.16 79.2179L236.431 80.7987C236.696 78.7266 237.978 77.9522 237.978 77.9522L236.294 76.2295C236.294 76.2295 233.415 76.4389 233.19 81.6929L231.135 82.2598L231.458 85.4905L233.504 84.9135C234.429 88.351 237.099 89.6488 238.657 89.4755C240.592 89.2599 243.6 89.4754 244.909 81.8094C244.916 81.7672 244.926 81.7297 244.933 81.6882L254.421 79.011C254.72 79.4467 254.922 79.9253 254.992 80.4293C255.528 84.3065 252.52 84.4143 252.52 84.4143L254.455 86.9991C254.455 86.9991 255.959 87.4301 258.001 83.2296C258.621 81.6394 258.637 79.7426 258.144 77.9602L261.225 77.0908L260.796 74.0757L256.857 75.1626C255.588 73.306 253.625 71.9694 251.124 71.9219ZM241.774 82.5837C241.774 86.0708 237.976 87.4053 236.778 83.9906L241.774 82.5804C241.774 82.5817 241.774 82.5824 241.774 82.5837ZM246.837 77.9281C247.967 76.9295 249.401 76.6444 250.755 76.8472L246.837 77.9281Z" fill="#D38622"/>
<path d="M250.671 71.4695C244.813 71.6281 242.514 75.3514 241.709 78.7661L235.98 80.347C236.245 78.2749 237.526 77.5005 237.526 77.5005L235.842 75.7777C235.842 75.7777 232.964 75.9872 232.738 81.2418L230.684 81.8087L231.007 85.0394L233.053 84.4618C233.978 87.8993 236.649 89.1971 238.207 89.0237C240.142 88.8082 243.151 89.0237 244.458 81.357C244.466 81.3148 244.476 81.2773 244.483 81.2358L253.971 78.5586C254.269 78.9944 254.472 79.4729 254.541 79.9769C255.079 83.8541 252.07 83.9619 252.07 83.9619L254.004 86.5467C254.004 86.5467 255.509 86.9777 257.55 82.7772C258.17 81.187 258.187 79.2902 257.693 77.5079L260.775 76.6384L260.345 73.6226L256.406 74.7095C255.135 72.8536 253.174 71.517 250.671 71.4695ZM241.323 82.1313C241.323 85.6184 237.524 86.9529 236.326 83.5382L241.323 82.128C241.323 82.128 241.323 82.13 241.323 82.1313ZM246.384 77.4751C247.515 76.4771 248.949 76.1914 250.302 76.3941L246.384 77.4751Z" fill="#FCF4B1"/>
<path opacity="0.5" d="M242.424 65.5951C236.27 66.3588 231.037 69.1464 227.838 72.8891C231.007 72.5176 234.207 72.4467 237.354 72.8309C241.876 73.383 246.548 74.8662 249.604 78.4536C253.125 82.5872 253.7 87.9482 252.782 93.1158C260.01 90.1161 264.679 84.0897 263.902 77.797C262.903 69.71 253.287 64.2465 242.424 65.5951Z" fill="#FDBA19"/>
<path d="M242.424 65.5951C238.584 66.0717 235.104 67.3387 232.251 69.1317C234.963 67.5675 238.182 66.4632 241.708 66.0255C252.571 64.6775 262.186 70.1403 263.186 78.2281C263.831 83.4559 260.716 88.497 255.5 91.7746C261.145 88.5191 264.577 83.2598 263.902 77.797C262.903 69.71 253.287 64.2465 242.424 65.5951Z" fill="white"/>
<g opacity="0.5">
<path d="M246.636 98.9929C234.595 100.487 223.833 95.03 221.256 86.5581C221.177 87.4824 221.189 88.4174 221.306 89.3584C221.77 93.1064 223.773 96.3826 226.804 98.9072C226.66 97.3364 227.378 96.3445 230.362 97.7467C237.239 100.977 249.001 102.58 261.14 94.6779C266.897 90.4139 262.834 100.19 249.785 103.58C249.768 103.596 249.754 103.612 249.737 103.629C261.49 101.2 269.807 92.571 268.683 83.4793C268.588 82.7036 268.42 81.9507 268.196 81.2178C267.455 89.8657 258.457 97.5265 246.636 98.9929Z" fill="#FBB121"/>
</g>
<g opacity="0.5">
<path d="M221.704 77.4059L256.343 96.1468C258.092 95.2922 259.699 94.2882 261.123 93.1598L224.167 73.1653C223.124 74.4985 222.295 75.9228 221.704 77.4059Z" fill="white"/>
<path d="M220.769 84.2972C220.82 84.7168 220.898 85.1291 220.988 85.5367L245.987 99.0611C246.203 99.039 246.42 99.0203 246.636 98.9929C247.596 98.8737 248.533 98.7091 249.452 98.5116L220.678 82.9438C220.688 83.3936 220.712 83.8447 220.769 84.2972Z" fill="white"/>
<path d="M241.439 63.8414L268.124 78.2787C266.827 68.6155 255.297 62.1052 242.278 63.7209C241.995 63.7557 241.717 63.7992 241.439 63.8414Z" fill="white"/>
<path d="M229.62 68.24L265.914 87.8764C266.374 87.1315 266.772 86.3652 267.103 85.5814L232.248 66.7234C231.326 67.1872 230.451 67.6959 229.62 68.24Z" fill="white"/>
</g>
<path d="M96.8753 70.2064C109.958 68.5827 121.54 75.1625 122.743 84.9027C123.946 94.643 114.317 103.854 101.233 105.478C88.1502 107.102 76.5687 100.522 75.3652 90.7818C74.1617 81.0422 83.7924 71.8301 96.8753 70.2064Z" fill="#FBDE00"/>
<path d="M123.06 86.5513C123.06 95.9207 113.689 104.149 101.26 105.692C88.0805 107.328 76.368 100.651 75.1519 90.8086C75.0831 90.2545 75.0483 89.6909 75.0483 89.1334C75.0483 79.7633 84.4199 71.535 96.8476 69.9923C103.222 69.2012 109.443 70.3068 114.369 73.1052C119.315 75.9155 122.365 80.0959 122.955 84.8754C123.025 85.4302 123.06 85.9937 123.06 86.5513ZM75.4791 89.1334C75.4791 89.6729 75.5125 90.219 75.5793 90.7551C76.7668 100.362 88.2635 106.87 101.208 105.264C113.42 103.748 122.631 95.7032 122.631 86.5513C122.631 86.0118 122.597 85.4657 122.53 84.9289C121.956 80.2874 118.983 76.2214 114.158 73.48C109.311 70.7272 103.183 69.6396 96.901 70.4193C84.689 71.9359 75.4791 79.9808 75.4791 89.1334Z" fill="#FCA500"/>
<path d="M97.0219 72.0798C107.885 70.7311 117.501 76.1946 118.5 84.2816C119.499 92.3687 111.504 100.017 100.641 101.365C89.7782 102.713 80.1622 97.2506 79.1624 89.1635C78.1633 81.0771 86.159 73.4284 97.0219 72.0798Z" fill="#FDBA19"/>
<path d="M97.0219 72.0798C107.885 70.7311 117.501 76.1946 118.5 84.2816C119.499 92.3687 111.504 100.017 100.641 101.365C89.7782 102.713 80.1622 97.2506 79.1624 89.1635C78.1633 81.0771 86.159 73.4284 97.0219 72.0798Z" fill="#FDBA19"/>
<path d="M101.07 100.288C90.2076 101.637 80.5916 96.1736 79.5925 88.0865C79.3754 86.3329 79.5831 84.5994 80.1501 82.9463C79.2686 84.916 78.8979 87.0236 79.1624 89.1634C80.1615 97.2504 89.7781 102.713 100.641 101.365C109.148 100.309 115.894 95.3898 117.942 89.4224C115.492 94.8972 109.059 99.2971 101.07 100.288Z" fill="#FDBA19"/>
<path d="M101.234 105.478C89.1927 106.972 78.4307 101.515 75.8534 93.0431C75.7746 93.9674 75.7866 94.9024 75.9035 95.8434C77.107 105.584 88.6885 112.163 101.772 110.539C114.855 108.915 124.485 99.7039 123.281 89.9637C123.185 89.188 123.017 88.435 122.794 87.7021C122.053 96.3501 113.054 104.011 101.234 105.478Z" fill="#FBB121"/>
<path d="M123.598 91.6129C123.598 100.982 114.226 109.211 101.798 110.753C88.6182 112.389 76.9065 105.712 75.6896 95.8703C75.5747 94.9373 75.5574 93.9782 75.6388 93.0251C75.6475 92.9221 75.7283 92.8404 75.8305 92.8297C75.9334 92.819 76.0282 92.8826 76.0589 92.9809C78.6329 101.444 89.445 106.725 101.208 105.265C112.842 103.82 121.83 96.4271 122.579 87.6842C122.587 87.5817 122.668 87.4994 122.77 87.4887C122.873 87.478 122.969 87.5416 122.999 87.64C123.236 88.4164 123.402 89.1901 123.494 89.9383C123.562 90.4918 123.598 91.0554 123.598 91.6129ZM76.0182 94.2125C76.0182 94.7479 76.0509 95.288 76.1164 95.8167C77.3038 105.424 88.8005 111.932 101.745 110.326C113.958 108.81 123.168 100.765 123.168 91.6129C123.168 91.0735 123.134 90.5273 123.068 89.9905C123.02 89.6111 122.953 89.2242 122.868 88.834C121.473 97.2865 112.601 104.284 101.26 105.692C89.789 107.116 79.1959 102.203 76.0175 94.1663C76.0182 94.1817 76.0182 94.1971 76.0182 94.2125Z" fill="#D38622"/>
<path d="M101.234 105.478C89.1927 106.972 78.4307 101.515 75.8534 93.0431C75.7746 93.9674 75.7866 94.9024 75.9035 95.8434C77.107 105.584 88.6885 112.163 101.772 110.539C114.855 108.915 124.485 99.7039 123.281 89.9637C123.185 89.188 123.017 88.435 122.794 87.7021C122.053 96.3501 113.054 104.011 101.234 105.478Z" fill="#FBB121"/>
<path d="M123.598 91.6129C123.598 100.982 114.226 109.211 101.798 110.753C88.6182 112.389 76.9065 105.712 75.6896 95.8703C75.5747 94.9373 75.5574 93.9782 75.6388 93.0251C75.6475 92.9221 75.7283 92.8404 75.8305 92.8297C75.9334 92.819 76.0282 92.8826 76.0589 92.9809C78.6329 101.444 89.445 106.725 101.208 105.265C112.842 103.82 121.83 96.4271 122.579 87.6842C122.587 87.5817 122.668 87.4994 122.77 87.4887C122.873 87.478 122.969 87.5416 122.999 87.64C123.236 88.4164 123.402 89.1901 123.494 89.9383C123.562 90.4918 123.598 91.0554 123.598 91.6129ZM76.0182 94.2125C76.0182 94.7479 76.0509 95.288 76.1164 95.8167C77.3038 105.424 88.8005 111.932 101.745 110.326C113.958 108.81 123.168 100.765 123.168 91.6129C123.168 91.0735 123.134 90.5273 123.068 89.9905C123.02 89.6111 122.953 89.2242 122.868 88.834C121.473 97.2865 112.601 104.284 101.26 105.692C89.789 107.116 79.1959 102.203 76.0175 94.1663C76.0182 94.1817 76.0182 94.1971 76.0182 94.2125Z" fill="#D38622"/>
<path d="M85.9294 103.387V108.028C85.9294 108.147 85.8339 108.243 85.7157 108.243C85.5975 108.243 85.502 108.147 85.502 108.028V103.387C85.502 103.269 85.5975 103.172 85.7157 103.172C85.8339 103.173 85.9294 103.269 85.9294 103.387Z" fill="#E59D3F"/>
<path d="M89.2421 104.54V109.453C89.2421 109.572 89.1459 109.668 89.0283 109.668C88.9101 109.668 88.814 109.572 88.814 109.453V104.54C88.814 104.422 88.9101 104.325 89.0283 104.325C89.1459 104.325 89.2421 104.422 89.2421 104.54Z" fill="#E59D3F"/>
<path d="M92.6654 105.316V110.351C92.6654 110.469 92.5692 110.566 92.451 110.566C92.3335 110.566 92.2373 110.469 92.2373 110.351V105.316C92.2373 105.197 92.3335 105.101 92.451 105.101C92.5686 105.101 92.6654 105.197 92.6654 105.316Z" fill="#E59D3F"/>
<path d="M95.4406 105.65V110.713C95.4406 110.831 95.3444 110.928 95.2269 110.928C95.108 110.928 95.0132 110.831 95.0132 110.713V105.65C95.0132 105.531 95.1087 105.435 95.2269 105.435C95.3444 105.435 95.4406 105.531 95.4406 105.65Z" fill="#E59D3F"/>
<path d="M98.273 105.705V110.769C98.273 110.887 98.1768 110.984 98.0593 110.984C97.9404 110.984 97.8442 110.887 97.8442 110.769V105.705C97.8442 105.587 97.9404 105.49 98.0593 105.49C98.1768 105.49 98.273 105.587 98.273 105.705Z" fill="#E59D3F"/>
<path d="M101.381 105.523V110.618C101.381 110.736 101.285 110.833 101.166 110.833C101.049 110.833 100.953 110.736 100.953 110.618V105.523C100.953 105.405 101.049 105.308 101.166 105.308C101.285 105.308 101.381 105.405 101.381 105.523Z" fill="#E59D3F"/>
<path d="M104.81 104.931V110.065C104.81 110.184 104.714 110.28 104.596 110.28C104.478 110.28 104.382 110.184 104.382 110.065V104.931C104.382 104.813 104.478 104.716 104.596 104.716C104.714 104.716 104.81 104.813 104.81 104.931Z" fill="#E59D3F"/>
<path d="M108.12 104.023V109.157C108.12 109.275 108.024 109.371 107.906 109.371C107.788 109.371 107.691 109.275 107.691 109.157V104.023C107.691 103.904 107.788 103.808 107.906 103.808C108.024 103.808 108.12 103.904 108.12 104.023Z" fill="#E59D3F"/>
<path d="M111.588 102.522V107.775C111.588 107.892 111.492 107.989 111.374 107.989C111.257 107.989 111.161 107.893 111.161 107.775V102.522C111.161 102.404 111.257 102.307 111.374 102.307C111.492 102.307 111.588 102.404 111.588 102.522Z" fill="#E59D3F"/>
<path d="M115.135 100.214V105.682C115.135 105.8 115.039 105.896 114.92 105.896C114.802 105.896 114.706 105.8 114.706 105.682V100.214C114.706 100.096 114.802 100 114.92 100C115.039 99.9993 115.135 100.096 115.135 100.214Z" fill="#E59D3F"/>
<path d="M118.231 97.5433V103.152C118.231 103.27 118.135 103.367 118.017 103.367C117.899 103.367 117.803 103.27 117.803 103.152V97.5433C117.803 97.4255 117.899 97.3291 118.017 97.3291C118.135 97.3291 118.231 97.4255 118.231 97.5433Z" fill="#E59D3F"/>
<path d="M120.914 94.0193V99.9338C120.914 100.052 120.818 100.149 120.699 100.149C120.582 100.149 120.485 100.052 120.485 99.9338V94.0193C120.485 93.9008 120.582 93.8044 120.699 93.8044C120.818 93.8044 120.914 93.9008 120.914 94.0193Z" fill="#E59D3F"/>
<path d="M122.842 90.448V96.0112C122.842 96.1296 122.746 96.226 122.629 96.226C122.51 96.226 122.415 96.1296 122.415 96.0112V90.448C122.415 90.3302 122.511 90.2332 122.629 90.2332C122.746 90.2332 122.842 90.3295 122.842 90.448Z" fill="#E59D3F"/>
<path d="M83.132 101.908V106.523C83.132 106.64 83.0359 106.737 82.9183 106.737C82.8001 106.737 82.7046 106.64 82.7046 106.523V101.908C82.7046 101.79 82.8001 101.694 82.9183 101.694C83.0359 101.694 83.132 101.79 83.132 101.908Z" fill="#E59D3F"/>
<path d="M80.5847 100.19V104.461C80.5847 104.579 80.4885 104.675 80.3709 104.675C80.2527 104.675 80.1572 104.579 80.1572 104.461V100.19C80.1572 100.072 80.2534 99.9756 80.3709 99.9756C80.4892 99.9756 80.5847 100.072 80.5847 100.19Z" fill="#E59D3F"/>
<path d="M78.0876 97.491V101.565C78.0876 101.683 77.9921 101.78 77.8739 101.78C77.7557 101.78 77.6602 101.683 77.6602 101.565V97.491C77.6602 97.3725 77.7557 97.2761 77.8739 97.2761C77.9914 97.2761 78.0876 97.3725 78.0876 97.491Z" fill="#E59D3F"/>
<path d="M105.721 78.4072C99.8625 78.5658 97.5637 82.2891 96.7576 85.7032L91.028 87.2841C91.2931 85.2119 92.5747 84.4376 92.5747 84.4376L90.891 82.7148C90.891 82.7148 88.0119 82.9243 87.7868 88.1783L85.7324 88.7451L86.055 91.9758L88.1007 91.3989C89.0257 94.8364 91.6965 96.1342 93.2546 95.9608C95.1894 95.7453 98.1975 95.9608 99.5059 88.2947C99.5132 88.2525 99.5232 88.2151 99.5306 88.1736L109.018 85.4964C109.316 85.9321 109.519 86.4106 109.589 86.9153C110.126 90.7925 107.117 90.9003 107.117 90.9003L109.052 93.4851C109.052 93.4851 110.556 93.9161 112.598 89.7156C113.218 88.1254 113.235 86.2293 112.741 84.4463L115.823 83.5769L115.393 80.5617L111.454 81.6486C110.185 79.7907 108.223 78.4541 105.721 78.4072ZM96.3716 89.0691C96.3716 92.5561 92.5727 93.8907 91.3752 90.4759L96.3716 89.0657C96.3716 89.0657 96.3716 89.0677 96.3716 89.0691ZM101.434 84.4128C102.564 83.4149 103.999 83.1291 105.352 83.3319L101.434 84.4128Z" fill="#D38622"/>
<path d="M105.269 77.9548C99.4102 78.1135 97.1114 81.8367 96.3066 85.2515L90.5763 86.8323C90.8414 84.7602 92.1224 83.9852 92.1224 83.9852L90.4387 82.2624C90.4387 82.2624 87.5602 82.4719 87.3351 87.7265L85.2808 88.2934L85.6033 91.5241L87.6497 90.9465C88.5747 94.384 91.2455 95.6818 92.8036 95.5084C94.7378 95.2929 97.7472 95.5084 99.0549 87.8416C99.0622 87.7995 99.0722 87.762 99.0796 87.7205L108.567 85.0433C108.865 85.479 109.068 85.9576 109.137 86.4616C109.675 90.3388 106.666 90.4465 106.666 90.4465L108.599 93.0314C108.599 93.0314 110.104 93.4624 112.146 89.2626C112.766 87.6723 112.782 85.7755 112.289 83.9932L115.37 83.1238L114.941 80.1086L111.002 81.1956C109.733 79.3383 107.771 78.0017 105.269 77.9548ZM95.9199 88.6167C95.9199 92.1037 92.1211 93.4383 90.9236 90.0235L95.9199 88.6133C95.9199 88.6133 95.9199 88.6153 95.9199 88.6167ZM100.982 83.9604C102.112 82.9618 103.546 82.6767 104.899 82.8795L100.982 83.9604Z" fill="#FCF4B1"/>
<path opacity="0.5" d="M97.0216 72.0796C90.8672 72.8432 85.6351 75.6308 82.436 79.3735C85.6044 79.0021 88.8048 78.9311 91.9518 79.3153C96.474 79.8675 101.146 81.3506 104.202 84.938C107.722 89.0716 108.298 94.4326 107.38 99.6003C114.607 96.6005 119.277 90.5742 118.5 84.2815C117.5 76.195 107.884 70.7316 97.0216 72.0796Z" fill="#FDBA19"/>
<path d="M97.0216 72.0796C93.1814 72.5561 89.7018 73.8231 86.8486 75.6161C89.5602 74.052 92.78 72.9476 96.3057 72.5099C107.169 71.1613 116.784 76.6247 117.784 84.7125C118.429 89.9403 115.314 94.9815 110.098 98.259C115.743 95.0036 119.175 89.7442 118.5 84.2815C117.5 76.195 107.884 70.7316 97.0216 72.0796Z" fill="white"/>
<g opacity="0.5">
<path d="M101.233 105.478C89.1923 106.973 78.4302 101.515 75.8529 93.0434C75.7741 93.9677 75.7861 94.9027 75.903 95.8437C76.3665 99.5917 78.3701 102.868 81.4009 105.393C81.2573 103.822 81.9746 102.83 84.9586 104.232C91.8363 107.463 103.598 109.065 115.737 101.163C121.494 96.8985 117.431 106.674 104.382 110.064C104.365 110.081 104.351 110.097 104.334 110.114C116.087 107.684 124.404 99.0556 123.28 89.9639C123.185 89.1882 123.016 88.4353 122.793 87.7024C122.053 96.3503 113.054 104.011 101.233 105.478Z" fill="#FBB121"/>
</g>
<g opacity="0.5">
<path d="M76.3013 83.891L110.941 102.632C112.69 101.777 114.296 100.773 115.721 99.6449L78.7644 79.6504C77.7212 80.983 76.8923 82.4079 76.3013 83.891Z" fill="white"/>
<path d="M75.3652 90.7813C75.4167 91.2009 75.4955 91.6132 75.585 92.0208L100.583 105.545C100.8 105.523 101.017 105.504 101.233 105.477C102.193 105.358 103.13 105.193 104.049 104.996L75.2744 89.428C75.2844 89.8784 75.3098 90.3289 75.3652 90.7813Z" fill="white"/>
<path d="M96.0361 70.3265L122.721 84.7638C121.424 75.1006 109.894 68.5903 96.875 70.206C96.5931 70.2408 96.3153 70.2837 96.0361 70.3265Z" fill="white"/>
<path d="M84.2168 74.7251L120.511 94.3615C120.971 93.6166 121.369 92.8503 121.7 92.0665L86.8449 73.2085C85.9239 73.6716 85.0483 74.181 84.2168 74.7251Z" fill="white"/>
</g>
<path d="M210.794 69.9156C223.876 68.2919 235.458 74.8717 236.661 84.6119C237.864 94.3522 228.236 103.564 215.152 105.187C202.069 106.811 190.488 100.231 189.284 90.491C188.081 80.7515 197.711 71.5393 210.794 69.9156Z" fill="#FBDE00"/>
<path d="M236.979 86.2607C236.979 95.6302 227.607 103.858 215.179 105.401C201.999 107.037 190.287 100.36 189.07 90.5181C189.002 89.9639 188.967 89.4004 188.967 88.8429C188.967 79.4728 198.338 71.2445 210.766 69.7017C217.139 68.9106 223.361 70.0163 228.288 72.8153C233.234 75.6257 236.283 79.8061 236.874 84.5855C236.943 85.1397 236.979 85.7039 236.979 86.2607ZM189.397 88.8429C189.397 89.3823 189.43 89.9285 189.497 90.4646C190.685 100.072 202.181 106.58 215.126 104.974C227.338 103.458 236.548 95.4127 236.548 86.2607C236.548 85.7213 236.514 85.1751 236.448 84.6384C235.874 79.9968 232.901 75.9309 228.076 73.1894C223.229 70.4366 217.101 69.349 210.819 70.1287C198.607 71.6454 189.397 79.6903 189.397 88.8429Z" fill="#FCA500"/>
<path d="M210.94 71.7888C221.803 70.4409 231.419 75.9036 232.418 83.9907C233.417 92.0778 225.422 99.7258 214.559 101.074C203.696 102.422 194.08 96.9596 193.081 88.8725C192.082 80.7861 200.077 73.1374 210.94 71.7888Z" fill="#FDBA19"/>
<path d="M210.94 71.7888C221.803 70.4409 231.419 75.9036 232.418 83.9907C233.417 92.0778 225.422 99.7258 214.559 101.074C203.696 102.422 194.08 96.9596 193.081 88.8725C192.082 80.7861 200.077 73.1374 210.94 71.7888Z" fill="#FDBA19"/>
<path d="M214.989 99.9978C204.126 101.346 194.51 95.883 193.511 87.7959C193.294 86.0424 193.502 84.3089 194.069 82.6558C193.187 84.6255 192.816 86.7331 193.081 88.8728C194.08 96.9599 203.697 102.423 214.559 101.075C223.065 100.019 229.812 95.0993 231.86 89.1319C229.41 94.6067 222.978 99.0066 214.989 99.9978Z" fill="#FDBA19"/>
<path d="M215.152 105.188C203.111 106.682 192.348 101.225 189.772 92.7531C189.692 93.6774 189.705 94.6124 189.821 95.5534C191.024 105.294 202.606 111.873 215.69 110.249C228.773 108.625 238.403 99.4139 237.199 89.6737C237.103 88.8979 236.935 88.145 236.712 87.4121C235.971 96.0601 226.972 103.721 215.152 105.188Z" fill="#FBB121"/>
<path d="M237.516 91.3224C237.516 100.692 228.144 108.921 215.716 110.463C202.536 112.099 190.824 105.422 189.608 95.5798C189.493 94.6468 189.475 93.6877 189.557 92.7346C189.565 92.6315 189.646 92.5499 189.749 92.5392C189.851 92.5285 189.946 92.592 189.977 92.6904C192.551 101.154 203.363 106.434 215.126 104.974C226.76 103.53 235.748 96.1366 236.497 87.3936C236.506 87.2912 236.586 87.2089 236.688 87.1982C236.791 87.1875 236.887 87.2511 236.917 87.3495C237.154 88.1258 237.32 88.8989 237.412 89.6478C237.48 90.2013 237.516 90.7649 237.516 91.3224ZM189.936 93.9219C189.936 94.458 189.969 94.9975 190.034 95.5262C191.222 105.133 202.719 111.641 215.663 110.035C227.876 108.519 237.086 100.474 237.086 91.3224C237.086 90.7829 237.052 90.2368 236.985 89.7C236.938 89.3205 236.871 88.9337 236.786 88.5435C235.391 96.9953 226.519 103.993 215.178 105.401C203.707 106.825 193.114 101.913 189.936 93.8757C189.936 93.8911 189.936 93.9065 189.936 93.9219Z" fill="#D38622"/>
<path d="M215.152 105.188C203.111 106.682 192.348 101.225 189.772 92.7531C189.692 93.6774 189.705 94.6124 189.821 95.5534C191.024 105.294 202.606 111.873 215.69 110.249C228.773 108.625 238.403 99.4139 237.199 89.6737C237.103 88.8979 236.935 88.145 236.712 87.4121C235.971 96.0601 226.972 103.721 215.152 105.188Z" fill="#FBB121"/>
<path d="M237.516 91.3224C237.516 100.692 228.144 108.921 215.716 110.463C202.536 112.099 190.824 105.422 189.608 95.5798C189.493 94.6468 189.475 93.6877 189.557 92.7346C189.565 92.6315 189.646 92.5499 189.749 92.5392C189.851 92.5285 189.946 92.592 189.977 92.6904C192.551 101.154 203.363 106.434 215.126 104.974C226.76 103.53 235.748 96.1366 236.497 87.3936C236.506 87.2912 236.586 87.2089 236.688 87.1982C236.791 87.1875 236.887 87.2511 236.917 87.3495C237.154 88.1258 237.32 88.8989 237.412 89.6478C237.48 90.2013 237.516 90.7649 237.516 91.3224ZM189.936 93.9219C189.936 94.458 189.969 94.9975 190.034 95.5262C191.222 105.133 202.719 111.641 215.663 110.035C227.876 108.519 237.086 100.474 237.086 91.3224C237.086 90.7829 237.052 90.2368 236.985 89.7C236.938 89.3205 236.871 88.9337 236.786 88.5435C235.391 96.9953 226.519 103.993 215.178 105.401C203.707 106.825 193.114 101.913 189.936 93.8757C189.936 93.8911 189.936 93.9065 189.936 93.9219Z" fill="#D38622"/>
<path d="M199.848 103.096V107.737C199.848 107.856 199.752 107.952 199.634 107.952C199.516 107.952 199.42 107.856 199.42 107.737V103.096C199.42 102.978 199.516 102.881 199.634 102.881C199.752 102.882 199.848 102.978 199.848 103.096Z" fill="#E59D3F"/>
<path d="M203.161 104.249V109.163C203.161 109.281 203.065 109.377 202.947 109.377C202.829 109.377 202.732 109.281 202.732 109.163V104.249C202.732 104.131 202.829 104.034 202.947 104.034C203.064 104.034 203.161 104.131 203.161 104.249Z" fill="#E59D3F"/>
<path d="M206.584 105.025V110.06C206.584 110.179 206.488 110.275 206.369 110.275C206.252 110.275 206.156 110.178 206.156 110.06V105.025C206.156 104.906 206.252 104.81 206.369 104.81C206.488 104.81 206.584 104.906 206.584 105.025Z" fill="#E59D3F"/>
<path d="M209.36 105.359V110.423C209.36 110.54 209.263 110.637 209.146 110.637C209.028 110.637 208.932 110.541 208.932 110.423V105.359C208.932 105.24 209.028 105.144 209.146 105.144C209.263 105.144 209.36 105.24 209.36 105.359Z" fill="#E59D3F"/>
<path d="M212.191 105.414V110.478C212.191 110.597 212.095 110.693 211.978 110.693C211.86 110.693 211.763 110.597 211.763 110.478V105.414C211.763 105.296 211.859 105.199 211.978 105.199C212.095 105.199 212.191 105.296 212.191 105.414Z" fill="#E59D3F"/>
<path d="M215.301 105.232V110.327C215.301 110.445 215.205 110.542 215.086 110.542C214.968 110.542 214.872 110.445 214.872 110.327V105.232C214.872 105.114 214.968 105.017 215.086 105.017C215.204 105.017 215.301 105.114 215.301 105.232Z" fill="#E59D3F"/>
<path d="M218.729 104.64V109.774C218.729 109.893 218.633 109.989 218.515 109.989C218.397 109.989 218.301 109.893 218.301 109.774V104.64C218.301 104.522 218.397 104.425 218.515 104.425C218.633 104.425 218.729 104.522 218.729 104.64Z" fill="#E59D3F"/>
<path d="M222.039 103.732V108.866C222.039 108.984 221.942 109.08 221.825 109.08C221.707 109.08 221.61 108.984 221.61 108.866V103.732C221.61 103.613 221.706 103.517 221.825 103.517C221.942 103.518 222.039 103.613 222.039 103.732Z" fill="#E59D3F"/>
<path d="M225.507 102.231V107.484C225.507 107.602 225.41 107.699 225.293 107.699C225.175 107.699 225.079 107.602 225.079 107.484V102.231C225.079 102.113 225.175 102.016 225.293 102.016C225.41 102.016 225.507 102.113 225.507 102.231Z" fill="#E59D3F"/>
<path d="M229.054 99.9232V105.39C229.054 105.508 228.958 105.605 228.839 105.605C228.721 105.605 228.625 105.508 228.625 105.39V99.9232C228.625 99.8054 228.721 99.709 228.839 99.709C228.958 99.7083 229.054 99.8047 229.054 99.9232Z" fill="#E59D3F"/>
<path d="M232.149 97.2523V102.861C232.149 102.979 232.054 103.076 231.935 103.076C231.818 103.076 231.722 102.979 231.722 102.861V97.2523C231.722 97.1345 231.818 97.0381 231.935 97.0381C232.054 97.0381 232.149 97.1345 232.149 97.2523Z" fill="#E59D3F"/>
<path d="M234.834 93.7285V99.6424C234.834 99.7609 234.737 99.8572 234.618 99.8572C234.501 99.8572 234.405 99.7609 234.405 99.6424V93.7285C234.405 93.61 234.501 93.5137 234.618 93.5137C234.737 93.5137 234.834 93.61 234.834 93.7285Z" fill="#E59D3F"/>
<path d="M236.761 90.157V95.7202C236.761 95.8386 236.665 95.935 236.548 95.935C236.429 95.935 236.334 95.8386 236.334 95.7202V90.157C236.334 90.0392 236.429 89.9421 236.548 89.9421C236.665 89.9421 236.761 90.0385 236.761 90.157Z" fill="#E59D3F"/>
<path d="M197.051 101.617V106.231C197.051 106.349 196.955 106.445 196.837 106.445C196.719 106.445 196.624 106.349 196.624 106.231V101.617C196.624 101.498 196.719 101.402 196.837 101.402C196.955 101.403 197.051 101.499 197.051 101.617Z" fill="#E59D3F"/>
<path d="M194.504 99.8994V104.17C194.504 104.288 194.409 104.384 194.29 104.384C194.172 104.384 194.077 104.288 194.077 104.17V99.8994C194.077 99.7809 194.172 99.6846 194.29 99.6846C194.408 99.6846 194.504 99.7809 194.504 99.8994Z" fill="#E59D3F"/>
<path d="M192.006 97.2V101.274C192.006 101.392 191.911 101.489 191.792 101.489C191.674 101.489 191.579 101.392 191.579 101.274V97.2C191.579 97.0815 191.674 96.9851 191.792 96.9851C191.911 96.9851 192.006 97.0815 192.006 97.2Z" fill="#E59D3F"/>
<path d="M219.639 78.1165C213.78 78.2751 211.482 81.9984 210.676 85.4124L204.946 86.9933C205.211 84.9212 206.493 84.1468 206.493 84.1468L204.809 82.424C204.809 82.424 201.93 82.6335 201.705 87.8875L199.65 88.4544L199.973 91.6851L202.019 91.1081C202.944 94.5456 205.614 95.8434 207.173 95.67C209.107 95.4545 212.115 95.67 213.424 88.0039C213.431 87.9618 213.441 87.9243 213.449 87.8828L222.936 85.2056C223.235 85.6413 223.437 86.1199 223.507 86.6239C224.044 90.5011 221.035 90.6088 221.035 90.6088L222.97 93.1936C222.97 93.1936 224.474 93.6247 226.516 89.4242C227.136 87.8339 227.153 85.9372 226.659 84.1548L229.741 83.2854L229.311 80.2702L225.372 81.3572C224.103 79.4999 222.141 78.164 219.639 78.1165ZM210.29 88.7783C210.29 92.2653 206.491 93.5999 205.294 90.1852L210.29 88.775C210.29 88.775 210.29 88.777 210.29 88.7783ZM215.352 84.122C216.482 83.1234 217.917 82.8383 219.27 83.0411L215.352 84.122Z" fill="#D38622"/>
<path d="M219.187 77.6641C213.329 77.8227 211.03 81.546 210.225 84.9607L204.495 86.5416C204.76 84.4694 206.041 83.6951 206.041 83.6951L204.357 81.9723C204.357 81.9723 201.479 82.1818 201.254 87.4364L199.199 88.0033L199.522 91.234L201.568 90.6564C202.493 94.0939 205.164 95.3917 206.722 95.2183C208.657 95.0028 211.666 95.2183 212.973 87.5515C212.981 87.5094 212.991 87.4719 212.998 87.4304L222.486 84.7532C222.784 85.1889 222.987 85.6675 223.056 86.1715C223.594 90.0487 220.585 90.1564 220.585 90.1564L222.518 92.7412C222.518 92.7412 224.024 93.1723 226.065 88.9718C226.685 87.3815 226.701 85.4848 226.208 83.7024L229.289 82.833L228.859 79.8179L224.92 80.9048C223.651 79.0475 221.69 77.7109 219.187 77.6641ZM209.838 88.3259C209.838 91.8129 206.039 93.1475 204.841 89.7328L209.838 88.3226C209.838 88.3226 209.838 88.3246 209.838 88.3259ZM214.899 83.6696C216.03 82.6717 217.464 82.3859 218.817 82.5887L214.899 83.6696Z" fill="#FCF4B1"/>
<path opacity="0.5" d="M210.94 71.7888C204.786 72.5525 199.554 75.3401 196.354 79.0828C199.522 78.7113 202.723 78.6404 205.87 79.0245C210.392 79.5767 215.064 81.0599 218.12 84.6473C221.641 88.7808 222.216 94.1419 221.298 99.3095C228.526 96.3097 233.195 90.2834 232.418 83.9907C231.419 75.9043 221.803 70.4408 210.94 71.7888Z" fill="#FDBA19"/>
<path d="M210.94 71.7888C207.099 72.2653 203.62 73.5323 200.767 75.3253C203.478 73.7612 206.698 72.6569 210.224 72.2192C221.086 70.8712 230.702 76.334 231.702 84.4217C232.347 89.6496 229.232 94.6907 224.016 97.9682C229.661 94.7128 233.093 89.4535 232.418 83.9907C231.418 75.9043 221.802 70.4408 210.94 71.7888Z" fill="white"/>
<g opacity="0.5">
<path d="M215.152 105.187C203.111 106.682 192.349 101.225 189.772 92.7527C189.693 93.6769 189.706 94.6119 189.821 95.553C190.285 99.301 192.289 102.577 195.319 105.102C195.176 103.531 195.893 102.539 198.877 103.941C205.755 107.172 217.516 108.774 229.656 100.873C235.413 96.6084 231.349 106.384 218.3 109.774C218.283 109.791 218.269 109.807 218.253 109.824C230.006 107.394 238.322 98.7656 237.199 89.6739C237.103 88.8982 236.935 88.1452 236.712 87.4124C235.971 96.0596 226.973 103.72 215.152 105.187Z" fill="#FBB121"/>
</g>
<g opacity="0.5">
<path d="M190.219 83.6008L224.859 102.342C226.609 101.487 228.214 100.483 229.639 99.3546L192.683 79.3601C191.639 80.6927 190.811 82.1176 190.219 83.6008Z" fill="white"/>
<path d="M189.284 90.491C189.335 90.9106 189.414 91.3229 189.504 91.7305L214.502 105.255C214.718 105.233 214.936 105.214 215.153 105.187C216.112 105.068 217.049 104.903 217.968 104.705L189.194 89.1377C189.203 89.5881 189.228 90.0386 189.284 90.491Z" fill="white"/>
<path d="M209.955 70.0362L236.639 84.4735C235.343 74.8103 223.813 68.3001 210.793 69.9157C210.511 69.9505 210.233 69.994 209.955 70.0362Z" fill="white"/>
<path d="M198.135 74.4348L234.429 94.0712C234.889 93.3263 235.288 92.56 235.618 91.7762L200.763 72.9182C199.842 73.3814 198.966 73.8907 198.135 74.4348Z" fill="white"/>
</g>
</g>
<defs>
<radialGradient id="paint0_radial_46313_7425" cx="0" cy="0" r="1" gradientUnits="userSpaceOnUse" gradientTransform="translate(121.779 51.2068) rotate(4.54633) scale(91.3572 91.5497)">
<stop stop-color="#B2E6B5"/>
<stop offset="1" stop-color="#92A961"/>
</radialGradient>
<radialGradient id="paint1_radial_46313_7425" cx="0" cy="0" r="1" gradientUnits="userSpaceOnUse" gradientTransform="translate(123.033 34.1313) rotate(4.54633) scale(87.8015 87.9865)">
<stop stop-color="#B5D894"/>
<stop offset="0.8345" stop-color="#B5D894"/>
<stop offset="1" stop-color="#92A961"/>
</radialGradient>
<linearGradient id="paint2_linear_46313_7425" x1="1.99594" y1="30.3411" x2="243.172" y2="49.4367" gradientUnits="userSpaceOnUse">
<stop offset="0.1974" stop-color="#92A961"/>
<stop offset="0.6742" stop-color="#749649"/>
<stop offset="0.8023" stop-color="white"/>
<stop offset="1" stop-color="#92A961"/>
</linearGradient>
<linearGradient id="paint3_linear_46313_7425" x1="2.0495" y1="32.0086" x2="243.051" y2="51.0904" gradientUnits="userSpaceOnUse">
<stop offset="0.1974" stop-color="#92A961"/>
<stop offset="0.6742" stop-color="#749649"/>
<stop offset="0.8023" stop-color="white"/>
<stop offset="1" stop-color="#92A961"/>
</linearGradient>
<linearGradient id="paint4_linear_46313_7425" x1="2.11087" y1="33.5644" x2="242.939" y2="52.6324" gradientUnits="userSpaceOnUse">
<stop offset="0.1974" stop-color="#92A961"/>
<stop offset="0.6742" stop-color="#749649"/>
<stop offset="0.8023" stop-color="white"/>
<stop offset="1" stop-color="#92A961"/>
</linearGradient>
<linearGradient id="paint5_linear_46313_7425" x1="2.1795" y1="35.0947" x2="242.798" y2="54.1462" gradientUnits="userSpaceOnUse">
<stop offset="0.1974" stop-color="#92A961"/>
<stop offset="0.6742" stop-color="#749649"/>
<stop offset="0.8023" stop-color="white"/>
<stop offset="1" stop-color="#92A961"/>
</linearGradient>
<linearGradient id="paint6_linear_46313_7425" x1="2.2252" y1="36.8374" x2="242.67" y2="55.8751" gradientUnits="userSpaceOnUse">
<stop offset="0.1974" stop-color="#92A961"/>
<stop offset="0.6742" stop-color="#749649"/>
<stop offset="0.8023" stop-color="white"/>
<stop offset="1" stop-color="#92A961"/>
</linearGradient>
<linearGradient id="paint7_linear_46313_7425" x1="2.28852" y1="38.3803" x2="242.558" y2="57.4042" gradientUnits="userSpaceOnUse">
<stop offset="0.1974" stop-color="#92A961"/>
<stop offset="0.6742" stop-color="#749649"/>
<stop offset="0.8023" stop-color="white"/>
<stop offset="1" stop-color="#92A961"/>
</linearGradient>
<linearGradient id="paint8_linear_46313_7425" x1="2.34637" y1="39.9915" x2="242.473" y2="59.004" gradientUnits="userSpaceOnUse">
<stop offset="0.1974" stop-color="#92A961"/>
<stop offset="0.6742" stop-color="#749649"/>
<stop offset="0.8023" stop-color="white"/>
<stop offset="1" stop-color="#92A961"/>
</linearGradient>
<linearGradient id="paint9_linear_46313_7425" x1="2.41031" y1="41.5289" x2="242.33" y2="60.525" gradientUnits="userSpaceOnUse">
<stop offset="0.1974" stop-color="#92A961"/>
<stop offset="0.6742" stop-color="#749649"/>
<stop offset="0.8023" stop-color="white"/>
<stop offset="1" stop-color="#92A961"/>
</linearGradient>
<linearGradient id="paint10_linear_46313_7425" x1="2.47297" y1="43.0755" x2="242.218" y2="62.0578" gradientUnits="userSpaceOnUse">
<stop offset="0.1974" stop-color="#92A961"/>
<stop offset="0.6742" stop-color="#749649"/>
<stop offset="0.8023" stop-color="white"/>
<stop offset="1" stop-color="#92A961"/>
</linearGradient>
<linearGradient id="paint11_linear_46313_7425" x1="2.53138" y1="44.7069" x2="242.099" y2="63.6752" gradientUnits="userSpaceOnUse">
<stop offset="0.1974" stop-color="#92A961"/>
<stop offset="0.6742" stop-color="#749649"/>
<stop offset="0.8023" stop-color="white"/>
<stop offset="1" stop-color="#92A961"/>
</linearGradient>
<linearGradient id="paint12_linear_46313_7425" x1="2.60098" y1="46.1661" x2="241.995" y2="65.1205" gradientUnits="userSpaceOnUse">
<stop offset="0.1974" stop-color="#92A961"/>
<stop offset="0.6742" stop-color="#749649"/>
<stop offset="0.8023" stop-color="white"/>
<stop offset="1" stop-color="#92A961"/>
</linearGradient>
<linearGradient id="paint13_linear_46313_7425" x1="2.66275" y1="47.7193" x2="241.881" y2="66.6598" gradientUnits="userSpaceOnUse">
<stop offset="0.1974" stop-color="#92A961"/>
<stop offset="0.6742" stop-color="#749649"/>
<stop offset="0.8023" stop-color="white"/>
<stop offset="1" stop-color="#92A961"/>
</linearGradient>
<linearGradient id="paint14_linear_46313_7425" x1="2.70802" y1="49.502" x2="241.782" y2="68.4311" gradientUnits="userSpaceOnUse">
<stop offset="0.1974" stop-color="#92A961"/>
<stop offset="0.6742" stop-color="#749649"/>
<stop offset="0.8023" stop-color="white"/>
<stop offset="1" stop-color="#92A961"/>
</linearGradient>
<linearGradient id="paint15_linear_46313_7425" x1="2.76447" y1="51.0902" x2="241.667" y2="70.0057" gradientUnits="userSpaceOnUse">
<stop offset="0.1974" stop-color="#92A961"/>
<stop offset="0.6742" stop-color="#749649"/>
<stop offset="0.8023" stop-color="white"/>
<stop offset="1" stop-color="#92A961"/>
</linearGradient>
<linearGradient id="paint16_linear_46313_7425" x1="2.82935" y1="52.6543" x2="241.553" y2="71.5557" gradientUnits="userSpaceOnUse">
<stop offset="0.1974" stop-color="#92A961"/>
<stop offset="0.6742" stop-color="#749649"/>
<stop offset="0.8023" stop-color="white"/>
<stop offset="1" stop-color="#92A961"/>
</linearGradient>
<linearGradient id="paint17_linear_46313_7425" x1="2.88726" y1="54.2429" x2="241.437" y2="73.1306" gradientUnits="userSpaceOnUse">
<stop offset="0.1974" stop-color="#92A961"/>
<stop offset="0.6742" stop-color="#749649"/>
<stop offset="0.8023" stop-color="white"/>
<stop offset="1" stop-color="#92A961"/>
</linearGradient>
<linearGradient id="paint18_linear_46313_7425" x1="2.95618" y1="55.7526" x2="241.295" y2="74.6235" gradientUnits="userSpaceOnUse">
<stop offset="0.1974" stop-color="#92A961"/>
<stop offset="0.6742" stop-color="#749649"/>
<stop offset="0.8023" stop-color="white"/>
<stop offset="1" stop-color="#92A961"/>
</linearGradient>
<linearGradient id="paint19_linear_46313_7425" x1="3.02441" y1="57.2359" x2="241.221" y2="76.0956" gradientUnits="userSpaceOnUse">
<stop offset="0.1974" stop-color="#92A961"/>
<stop offset="0.6742" stop-color="#749649"/>
<stop offset="0.8023" stop-color="white"/>
<stop offset="1" stop-color="#92A961"/>
</linearGradient>
<linearGradient id="paint20_linear_46313_7425" x1="3.08047" y1="58.8626" x2="241.102" y2="77.7084" gradientUnits="userSpaceOnUse">
<stop offset="0.1974" stop-color="#92A961"/>
<stop offset="0.6742" stop-color="#749649"/>
<stop offset="0.8023" stop-color="white"/>
<stop offset="1" stop-color="#92A961"/>
</linearGradient>
<linearGradient id="paint21_linear_46313_7425" x1="3.13721" y1="60.4915" x2="240.952" y2="79.3209" gradientUnits="userSpaceOnUse">
<stop offset="0.1974" stop-color="#92A961"/>
<stop offset="0.6742" stop-color="#749649"/>
<stop offset="0.8023" stop-color="white"/>
<stop offset="1" stop-color="#92A961"/>
</linearGradient>
<linearGradient id="paint22_linear_46313_7425" x1="3.20258" y1="62.0218" x2="240.842" y2="80.8374" gradientUnits="userSpaceOnUse">
<stop offset="0.1974" stop-color="#92A961"/>
<stop offset="0.6742" stop-color="#749649"/>
<stop offset="0.8023" stop-color="white"/>
<stop offset="1" stop-color="#92A961"/>
</linearGradient>
<linearGradient id="paint23_linear_46313_7425" x1="3.25648" y1="63.6764" x2="240.753" y2="82.4807" gradientUnits="userSpaceOnUse">
<stop offset="0.1974" stop-color="#92A961"/>
<stop offset="0.6742" stop-color="#749649"/>
<stop offset="0.8023" stop-color="white"/>
<stop offset="1" stop-color="#92A961"/>
</linearGradient>
<linearGradient id="paint24_linear_46313_7425" x1="170.685" y1="61.099" x2="241.982" y2="66.7442" gradientUnits="userSpaceOnUse">
<stop offset="0.0404" stop-color="white"/>
<stop offset="0.4493" stop-color="#F7FFD7"/>
<stop offset="0.6363" stop-color="#B4D996"/>
<stop offset="1" stop-color="#82A65E"/>
</linearGradient>
<linearGradient id="paint25_linear_46313_7425" x1="87.1978" y1="51.4039" x2="86.3901" y2="88.6206" gradientUnits="userSpaceOnUse">
<stop offset="0.0996" stop-color="#B4D996"/>
<stop offset="0.8244" stop-color="#627E0F"/>
</linearGradient>
<linearGradient id="paint26_linear_46313_7425" x1="2.5246" y1="23.6699" x2="243.784" y2="42.7721" gradientUnits="userSpaceOnUse">
<stop offset="0.0384" stop-color="#749649"/>
<stop offset="1" stop-color="#92A961"/>
</linearGradient>
<linearGradient id="paint27_linear_46313_7425" x1="2.5246" y1="23.6699" x2="243.784" y2="42.7721" gradientUnits="userSpaceOnUse">
<stop offset="0.0384" stop-color="#749649"/>
<stop offset="1" stop-color="#92A961"/>
</linearGradient>
<radialGradient id="paint28_radial_46313_7425" cx="0" cy="0" r="1" gradientUnits="userSpaceOnUse" gradientTransform="translate(55.6454 -15.0472) rotate(4.54633) scale(225.238 225.713)">
<stop offset="0.5153" stop-color="#B2E6B5"/>
<stop offset="0.8345" stop-color="#B5D894"/>
<stop offset="1" stop-color="#92A961"/>
</radialGradient>
<radialGradient id="paint29_radial_46313_7425" cx="0" cy="0" r="1" gradientUnits="userSpaceOnUse" gradientTransform="translate(122.553 -75.3997) rotate(4.54633) scale(151.94 152.261)">
<stop offset="0.5153" stop-color="#B2E6B5"/>
<stop offset="0.8345" stop-color="#B5D894"/>
<stop offset="1" stop-color="#92A961"/>
</radialGradient>
<linearGradient id="paint30_linear_46313_7425" x1="118.234" y1="7.72711" x2="99.045" y2="96.9081" gradientUnits="userSpaceOnUse">
<stop offset="0.0384" stop-color="#749649"/>
<stop offset="1" stop-color="#92A961"/>
</linearGradient>
<linearGradient id="paint31_linear_46313_7425" x1="115.911" y1="7.5418" x2="96.7222" y2="96.7236" gradientUnits="userSpaceOnUse">
<stop offset="0.2973" stop-color="#E7FFE7"/>
<stop offset="1" stop-color="#909E81"/>
</linearGradient>
<linearGradient id="paint32_linear_46313_7425" x1="92.523" y1="-3.46137" x2="73.3337" y2="85.7227" gradientUnits="userSpaceOnUse">
<stop offset="0.2973" stop-color="#E7FFE7"/>
<stop offset="1" stop-color="#909E81"/>
</linearGradient>
<linearGradient id="paint33_linear_46313_7425" x1="91.302" y1="2.24236" x2="72.112" y2="91.4298" gradientUnits="userSpaceOnUse">
<stop offset="0.2973" stop-color="#E7FFE7"/>
<stop offset="1" stop-color="#909E81"/>
</linearGradient>
<linearGradient id="paint34_linear_46313_7425" x1="151.051" y1="70.2205" x2="152.686" y2="49.6629" gradientUnits="userSpaceOnUse">
<stop offset="0.5471" stop-color="#749649"/>
<stop offset="0.9055" stop-color="white"/>
</linearGradient>
</defs>
</svg>
